<svg width="975" height="704" viewBox="0 0 975 704" fill="none" xmlns="http://www.w3.org/2000/svg">
<rect width="975" height="704" fill="white"/>
<path d="M767.586 614.099L766.122 633.624L736.349 623.862L748.549 609.219L767.586 614.099Z" fill="#FEB8B8"/>
<path d="M875.945 607.754L874.478 626.789L857.883 629.23L848.121 619.956L859.347 601.896L875.945 607.754Z" fill="#FEB8B8"/>
<path d="M888.147 364.681C888.147 364.681 901.326 380.3 884.73 404.217C868.134 428.134 848.123 451.563 848.123 451.563L811.023 521.849C811.023 521.849 791.987 590.671 787.594 592.623C783.201 594.575 780.761 586.766 783.201 595.063C785.641 603.36 784.177 602.873 782.225 603.363C780.273 603.853 774.904 602.875 776.856 606.292C778.808 609.709 780.273 609.709 776.368 609.709C772.463 609.709 770.999 607.269 770.999 610.685C770.999 614.101 767.582 621.911 767.582 621.911C767.582 621.911 743.665 615.078 742.689 612.149C741.713 609.22 749.034 607.756 747.57 604.828C746.106 601.9 745.618 601.899 745.618 597.507C745.618 593.115 748.547 592.138 748.547 592.138C748.547 592.138 750.987 591.162 750.011 589.209C749.035 587.256 745.13 588.233 750.011 585.792C754.892 583.351 774.906 508.671 774.906 508.671C774.906 508.671 774.906 471.571 781.251 459.371C787.596 447.171 782.715 360.287 797.851 359.311C812.987 358.335 888.147 364.681 888.147 364.681Z" fill="#2F2E41"/>
<path d="M883.266 392.502L880.337 468.157C880.337 468.157 894.98 541.372 890.099 563.824C885.218 586.276 888.635 583.348 885.706 587.253C882.777 591.158 880.337 589.205 882.777 592.622C885.217 596.039 886.677 597.015 882.777 600.922C878.877 604.829 876.92 614.101 876.92 614.101L852.027 611.661C852.027 611.661 858.372 600.435 855.927 597.994C853.482 595.553 847.141 599.458 852.027 594.094C856.913 588.73 859.837 591.165 856.908 588.725C853.979 586.285 849.587 587.261 853.491 583.356C857.395 579.451 861.791 579.456 857.884 577.987C853.977 576.518 849.584 577.987 851.539 575.058C853.494 572.129 855.932 568.713 855.932 568.713L850.075 524.296C850.075 524.296 843.242 509.653 845.194 503.308C847.146 496.963 836.894 444.736 836.894 444.736L883.266 392.502Z" fill="#2F2E41"/>
<path d="M872.53 617.515C872.53 617.515 877.411 612.634 878.875 615.563C880.339 618.492 891.075 644.849 884.732 646.801C878.389 648.753 869.113 650.701 864.232 649.241C859.351 647.781 849.101 640.941 836.899 640.941C824.697 640.941 814.447 635.572 814.447 633.62C814.447 631.668 812.495 619.953 821.768 619.953C831.041 619.953 848.125 609.215 848.125 609.215C848.125 609.215 852.025 601.405 853.982 601.894C855.939 602.383 854.47 618.001 854.47 618.001C854.47 618.001 865.694 628.741 872.53 617.515Z" fill="#2F2E41"/>
<path d="M764.17 623.86C764.17 623.86 768.563 613.122 772.956 615.56C777.349 617.998 774.42 648.26 774.42 648.26C774.42 648.26 770.52 654.605 759.289 653.141C748.058 651.677 718.289 648.26 711.455 649.724C704.621 651.188 686.074 642.891 690.955 631.664C690.955 631.664 693.395 625.319 705.11 625.807C716.825 626.295 738.301 612.14 738.301 612.14C738.301 612.14 741.718 602.378 742.694 603.354C743.67 604.33 744.646 621.414 744.646 621.414C744.646 621.414 757.337 629.717 764.17 623.86Z" fill="#2F2E41"/>
<path d="M828.111 173.835C843.746 173.835 856.421 161.16 856.421 145.525C856.421 129.89 843.746 117.215 828.111 117.215C812.476 117.215 799.801 129.89 799.801 145.525C799.801 161.16 812.476 173.835 828.111 173.835Z" fill="#FEB8B8"/>
<path d="M850.075 147.477C850.075 147.477 865.206 177.739 870.575 180.668C875.944 183.597 833.968 201.657 833.968 201.657C833.968 201.657 827.135 171.883 818.837 165.538C810.539 159.193 850.075 147.477 850.075 147.477Z" fill="#FEB8B8"/>
<path d="M806.635 394.942L804.683 413.49C804.683 413.49 783.695 406.169 790.528 392.502L806.635 394.942Z" fill="#FEB8B8"/>
<path d="M798.34 367.121C812.983 382.736 890.587 369.557 890.587 369.557L889.615 358.332L899.377 348.089L896.45 300.252C896.45 300.252 905.23 277.802 906.693 243.635C906.782 241.535 906.655 239.431 906.315 237.357C901.283 206.75 851.445 187.037 850.076 187.5C849.387 187.727 842.051 191.55 834.395 195.572C825.606 200.189 816.401 205.072 816.401 205.072C804.685 209.472 806.639 279.759 802.731 286.103C798.823 292.447 802.731 314.403 802.731 314.403L798.341 335.39C798.341 335.39 783.693 351.506 798.34 367.121Z" fill="#1E8449"/>
<path opacity="0.1" d="M845.645 212.169C845.645 212.169 859.312 253.169 856.383 280.991C853.454 308.813 821.728 388.373 821.728 388.373L810.995 394.23V407.896L803.442 387.438L824.212 344.01C824.212 344.01 798.295 194.11 845.645 212.169Z" fill="black"/>
<path opacity="0.1" d="M832.827 199.867C846.988 192.059 868.466 212.567 890.917 234.524C898.98 242.407 903.643 241.614 906.317 237.356C901.285 206.749 851.447 187.036 850.078 187.499C849.389 187.726 842.053 191.549 834.397 195.571L832.827 199.867Z" fill="black"/>
<path d="M832.834 196.094L838.691 179.987C838.691 179.987 878.715 160.951 905.072 179.987L909.465 207.32C909.465 207.32 913.365 252.713 890.917 230.749C868.469 208.785 846.987 188.284 832.834 196.094Z" fill="#1E8449"/>
<path d="M844.219 205.561C844.219 205.561 857.886 246.561 854.957 274.383C852.028 302.205 820.302 381.765 820.302 381.765L809.564 387.626V401.293L787.112 394.948L791.993 378.841C791.993 378.841 784.183 369.079 789.553 366.15C794.923 363.221 793.946 347.114 793.946 347.114C793.946 347.114 796.873 187.501 844.219 205.561Z" fill="#1E8449"/>
<path d="M853.349 157.376C852.887 155.188 852.949 152.834 851.901 150.859C850.328 147.898 846.713 146.659 843.372 146.367C839.107 145.996 834.81 146.734 830.539 146.442C826.268 146.15 821.706 144.522 819.58 140.807C818.732 139.325 818.314 137.58 817.189 136.295C814.848 133.621 810.581 134.035 807.217 135.181C803.853 136.327 800.344 138.001 796.905 137.105C794.013 129.014 797.574 119.681 803.733 113.69C809.892 107.699 818.198 104.475 826.448 102.072C837.329 98.902 849.574 97.029 859.578 102.354C874.085 110.075 879.204 130.512 877.866 145.744C877.36 151.502 876.533 158.022 871.878 161.909C865.056 167.607 855.409 167.118 853.349 157.376Z" fill="#2F2E41"/>
<path d="M675.723 41.3472H64.2622V432.954H675.723V41.3472Z" fill="#E6E6E6"/>
<path d="M660.238 90.4639H83.7461V409.786H660.238V90.4639Z" fill="white"/>
<path d="M675.461 41H64V66.977H675.461V41Z" fill="#1E8449"/>
<path d="M83.3052 59.0958C85.9645 59.0958 88.1202 56.9401 88.1202 54.2808C88.1202 51.6216 85.9645 49.4658 83.3052 49.4658C80.646 49.4658 78.4902 51.6216 78.4902 54.2808C78.4902 56.9401 80.646 59.0958 83.3052 59.0958Z" fill="white"/>
<path d="M101.58 59.0958C104.239 59.0958 106.395 56.9401 106.395 54.2808C106.395 51.6216 104.239 49.4658 101.58 49.4658C98.9209 49.4658 96.7651 51.6216 96.7651 54.2808C96.7651 56.9401 98.9209 59.0958 101.58 59.0958Z" fill="white"/>
<path d="M119.855 59.0958C122.514 59.0958 124.67 56.9401 124.67 54.2808C124.67 51.6216 122.514 49.4658 119.855 49.4658C117.196 49.4658 115.04 51.6216 115.04 54.2808C115.04 56.9401 117.196 59.0958 119.855 59.0958Z" fill="white"/>
<path d="M184.605 135.221L146.472 172.878L184.605 210.534L193.185 201.954L164.35 173.115L193.426 144.039L184.605 135.221Z" fill="#1E8449"/>
<path d="M215.85 135.221L253.982 172.878L215.85 210.534L207.27 201.954L236.107 173.116L207.029 144.039L215.85 135.221Z" fill="#1E8449"/>
<path d="M339.194 144.671C336.075 144.671 333.547 146.465 333.547 148.677C333.547 150.889 336.075 152.683 339.194 152.683H605.408C608.527 152.683 611.055 150.889 611.055 148.677C611.055 146.465 608.527 144.671 605.408 144.671H339.194Z" fill="#E6E6E6"/>
<path d="M602.761 364.15H154.923C150.345 364.15 146.635 361.507 146.63 358.25V279.208C146.635 275.951 150.345 273.308 154.923 273.308H602.761C607.339 273.308 611.049 275.951 611.054 279.208V358.249C611.05 361.506 607.339 364.146 602.761 364.15ZM154.923 275.666C152.176 275.666 149.95 277.252 149.947 279.206V358.247C149.947 360.201 152.176 361.785 154.923 361.787H602.761C605.508 361.787 607.734 360.201 607.737 358.247V279.208C607.737 277.254 605.508 275.67 602.761 275.668L154.923 275.666Z" fill="#E6E6E6"/>
<path d="M201.04 338.731C212.105 338.731 221.076 329.761 221.076 318.695C221.076 307.63 212.105 298.659 201.04 298.659C189.974 298.659 181.004 307.63 181.004 318.695C181.004 329.761 189.974 338.731 201.04 338.731Z" fill="#E6E6E6"/>
<path d="M257.55 302.671C256.488 302.67 255.468 303.09 254.716 303.841C253.964 304.591 253.54 305.609 253.539 306.672C253.538 307.734 253.958 308.754 254.709 309.506C255.459 310.258 256.477 310.682 257.54 310.683H446.411C447.474 310.683 448.493 310.261 449.244 309.51C449.995 308.758 450.417 307.739 450.417 306.677C450.417 305.614 449.995 304.596 449.244 303.844C448.493 303.093 447.474 302.671 446.411 302.671H257.55Z" fill="#1E8449"/>
<path d="M257.55 326.708C257.024 326.707 256.503 326.81 256.017 327.011C255.531 327.212 255.089 327.506 254.716 327.878C253.964 328.628 253.54 329.646 253.539 330.709C253.538 331.771 253.958 332.791 254.709 333.543C255.459 334.295 256.477 334.719 257.54 334.72H338.816C339.879 334.721 340.898 334.301 341.65 333.55C342.403 332.8 342.826 331.782 342.827 330.719C342.829 329.657 342.408 328.637 341.658 327.885C340.907 327.133 339.889 326.709 338.827 326.708H257.55Z" fill="#1E8449"/>
<path d="M337.25 168.671C336.243 168.752 335.304 169.209 334.619 169.952C333.934 170.694 333.554 171.667 333.554 172.677C333.554 173.687 333.934 174.66 334.619 175.402C335.304 176.144 336.243 176.602 337.25 176.683H511.72C512.727 176.602 513.666 176.144 514.351 175.402C515.036 174.66 515.416 173.687 515.416 172.677C515.416 171.667 515.036 170.694 514.351 169.952C513.666 169.209 512.727 168.752 511.72 168.671H337.25Z" fill="#E6E6E6"/>
<path d="M338.398 192.671C335.719 192.671 333.547 194.465 333.547 196.677C333.547 198.889 335.719 200.683 338.398 200.683H567.098C569.777 200.683 571.949 198.889 571.949 196.677C571.949 194.465 569.777 192.671 567.098 192.671H338.398Z" fill="#E6E6E6"/>
</svg>
