<svg width="975" height="637" viewBox="0 0 975 637" fill="none" xmlns="http://www.w3.org/2000/svg">
<g clip-path="url(#clip0)">
<path d="M974.88 552.402C981.644 558.533 699.805 558.533 706.59 552.4C699.826 546.271 981.665 546.271 974.88 552.402Z" fill="#E6E6E6"/>
<path d="M881.33 373.451C896.246 394.521 900.187 514.441 901.065 552.881C901.087 553.747 901.11 554.568 901.121 555.344H938.879C939.34 554.523 939.768 553.713 940.174 552.881C962.554 508.738 950.136 455.809 949.484 453.131C951.183 461.546 943.495 485.935 934.804 509.559C929.501 436.921 884.167 377.119 881.33 373.451Z" fill="#E6E6E6"/>
<path d="M172.112 139.057C142.552 180.812 134.744 418.458 133.004 494.633C132.959 496.35 132.915 497.977 132.892 499.516H58.0673C57.1525 497.888 56.3048 496.283 55.5017 494.633C11.151 407.155 35.7581 302.266 37.0519 296.96C33.6834 313.635 48.9205 361.967 66.1432 408.782C76.6508 264.835 166.49 146.325 172.112 139.057Z" fill="#E6E6E6"/>
<path d="M519.706 497.056C532.805 512.155 -12.9044 512.155 0.233493 497.052C-12.8647 481.957 532.844 481.957 519.706 497.056Z" fill="#E6E6E6"/>
<path d="M801.507 488.598C799.41 488.598 799.367 495.126 801.507 495.126H879.862C880.78 495.155 881.537 493.718 881.552 491.916C881.569 490.076 880.799 488.565 879.862 488.598H801.507Z" fill="#3F3D56"/>
<path d="M826.249 464.286C823.526 464.286 823.511 470.813 826.249 470.813H855.094C856.275 470.843 857.249 469.406 857.268 467.603C857.29 465.763 856.3 464.252 855.094 464.286H826.249Z" fill="#1E8449"/>
<path d="M801.507 513.811C799.41 513.811 799.367 520.339 801.507 520.339H879.862C880.78 520.368 881.537 518.931 881.552 517.128C881.569 515.289 880.799 513.778 879.862 513.811H801.507Z" fill="#3F3D56"/>
<path d="M896.603 431.981H784.866C783.671 431.981 782.525 432.456 781.68 433.3C780.836 434.144 780.361 435.289 780.36 436.483V548.141C780.361 549.334 780.836 550.479 781.68 551.324C782.525 552.168 783.671 552.642 784.866 552.643H896.603C897.798 552.642 898.944 552.168 899.789 551.324C900.634 550.479 901.109 549.334 901.109 548.141V436.483C901.109 435.289 900.634 434.144 899.789 433.3C898.944 432.456 897.798 431.981 896.603 431.981ZM899.307 548.141C899.305 548.856 899.019 549.542 898.513 550.048C898.006 550.555 897.32 550.84 896.603 550.842H784.866C784.15 550.84 783.463 550.555 782.957 550.048C782.45 549.542 782.165 548.856 782.163 548.141V436.483C782.165 435.767 782.45 435.082 782.957 434.575C783.463 434.069 784.15 433.784 784.866 433.782H896.603C897.32 433.784 898.006 434.069 898.513 434.575C899.019 435.082 899.305 435.767 899.307 436.483V548.141Z" fill="#3F3D56"/>
<path d="M742.29 343.351L751.355 338.822L743.801 318.44L741.81 308.162C741.552 306.827 740.947 305.582 740.056 304.554C739.166 303.525 738.02 302.748 736.735 302.3C735.45 301.853 734.07 301.75 732.732 302.002C731.395 302.254 730.147 302.853 729.113 303.738C727.582 305.05 726.62 306.905 726.432 308.912C726.243 310.918 726.842 312.92 728.102 314.494L735.492 323.724L742.29 343.351Z" fill="#A0616A"/>
<path d="M739.266 341.086L740.937 346.315L748.44 369.806C749.175 372.109 750.559 374.151 752.426 375.688C754.293 377.225 756.564 378.19 758.967 378.469C761.369 378.748 763.802 378.328 765.972 377.26C768.142 376.192 769.957 374.521 771.2 372.448L795.523 330.791C795.912 330.142 796.244 329.46 796.515 328.754C797.691 325.671 797.632 322.254 796.352 319.213C795.072 316.172 792.668 313.742 789.641 312.426C786.614 311.11 783.195 311.01 780.097 312.148C776.998 313.285 774.456 315.572 773.001 318.533L758.152 350.146L751.356 335.049L739.266 341.086Z" fill="#E6E6E6"/>
<path d="M742.767 492.825L759.386 494.335L768.451 428.662C798.331 433.686 826.521 435.295 850.903 429.218C852.964 428.712 854.897 427.785 856.582 426.497C858.267 425.208 859.667 423.585 860.695 421.73C861.722 419.875 862.355 417.828 862.553 415.717C862.751 413.606 862.51 411.476 861.845 409.463C858.927 400.76 853.786 391.434 847.768 381.861L807.731 396.204L806.221 402.242L763.517 396.841C761.361 396.568 759.171 396.747 757.087 397.365C755.003 397.983 753.071 399.028 751.413 400.433C749.755 401.837 748.407 403.571 747.456 405.524C746.505 407.477 745.97 409.607 745.887 411.777L742.767 492.825Z" fill="#2F2E41"/>
<path d="M724.669 505.55C724.509 504.427 724.674 503.281 725.146 502.249C725.617 501.217 726.374 500.341 727.328 499.725L744.388 491.359L757.249 492.982L760.287 503.864C760.415 504.639 760.385 505.432 760.196 506.195C760.008 506.958 759.667 507.675 759.192 508.302C758.718 508.929 758.121 509.453 757.438 509.842C756.754 510.23 755.999 510.476 755.217 510.564L731.217 510.617C729.681 510.789 728.137 510.357 726.915 509.411C725.692 508.465 724.886 507.08 724.669 505.55Z" fill="#2F2E41"/>
<path d="M738.569 484.428L755.188 485.938L764.253 420.265C794.133 425.289 822.323 426.898 846.705 420.821C848.766 420.315 850.699 419.388 852.384 418.1C854.069 416.811 855.469 415.188 856.497 413.333C857.524 411.478 858.157 409.431 858.355 407.32C858.553 405.209 858.312 403.079 857.647 401.066C854.729 392.363 849.588 383.037 843.57 373.464L803.534 387.807L802.023 393.845L759.319 388.444C757.163 388.171 754.973 388.349 752.889 388.968C750.805 389.586 748.873 390.631 747.215 392.036C745.557 393.44 744.21 395.174 743.258 397.127C742.307 399.08 741.772 401.21 741.689 403.38L738.569 484.428Z" fill="#2F2E41"/>
<path d="M720.47 497.154C720.31 496.03 720.476 494.885 720.947 493.852C721.419 492.82 722.176 491.944 723.13 491.329L740.189 482.963L753.051 484.585L756.089 495.467C756.217 496.242 756.186 497.036 755.998 497.799C755.81 498.562 755.468 499.278 754.994 499.905C754.52 500.532 753.923 501.056 753.239 501.445C752.556 501.834 751.8 502.08 751.019 502.168L727.019 502.22C725.482 502.393 723.939 501.96 722.716 501.014C721.494 500.068 720.688 498.683 720.47 497.154Z" fill="#2F2E41"/>
<path d="M768.785 304.772C780.049 304.772 789.181 295.648 789.181 284.391C789.181 273.135 780.049 264.01 768.785 264.01C757.521 264.01 748.389 273.135 748.389 284.391C748.389 295.648 757.521 304.772 768.785 304.772Z" fill="#A0616A"/>
<path d="M769.541 325.908L792.958 322.889L783.893 294.959H761.231L769.541 325.908Z" fill="#A0616A"/>
<path d="M763.167 354.071C764.355 357.367 766.077 360.446 768.264 363.185C771.382 367.008 775.128 370.274 779.342 372.842C780.076 373.317 780.837 373.772 781.625 374.22L786.124 378.051L802.02 391.579L845.834 374.974C836.17 353.514 824.114 336.55 810.298 322.886C807.427 318.679 803.335 315.452 798.573 313.64C793.811 311.829 788.608 311.519 783.664 312.754L767.272 316.849C761.441 330.601 759.273 343.246 763.167 354.071Z" fill="#1E8449"/>
<path d="M727.477 295.343C727.222 295.091 726.887 294.935 726.53 294.9C726.173 294.864 725.814 294.953 725.514 295.15C725.113 295.573 711.992 303.343 712.814 304.113C712.79 304.347 712.818 304.583 712.897 304.805C712.976 305.026 713.104 305.227 713.271 305.393L743.766 335.734C743.914 335.882 744.09 335.998 744.284 336.077C744.478 336.156 744.685 336.196 744.894 336.193C745.508 336.977 755.503 325.595 756.007 325.377C756.296 325.077 756.455 324.675 756.449 324.258C756.443 323.842 756.272 323.445 755.975 323.153L727.477 295.343Z" fill="#3F3D56"/>
<path d="M715.885 303.79L717.126 302.999C717.002 303.232 716.959 303.499 717.004 303.759C717.049 304.019 717.18 304.257 717.375 304.435C717.57 304.612 717.818 304.72 718.081 304.741C718.345 304.762 718.607 304.695 718.828 304.55L726.858 299.033C727.038 298.906 727.179 298.732 727.266 298.53C727.352 298.327 727.381 298.105 727.348 297.887C727.316 297.67 727.224 297.466 727.082 297.297C726.941 297.129 726.755 297.003 726.546 296.934C726.864 296.826 727.378 296.181 727.723 296.587L754.738 323.116C755.7 323.585 744.922 332.918 744.916 333.285C744.112 334.181 716.401 304.477 715.812 304.457C715.766 304.411 715.732 304.356 715.71 304.295C715.689 304.234 715.682 304.169 715.689 304.105C715.696 304.041 715.717 303.98 715.751 303.925C715.785 303.871 715.831 303.824 715.885 303.79Z" fill="white"/>
<path d="M747.066 317.259L738.778 325.067L719.065 305.606L729.07 299.098L747.066 317.259Z" fill="#1E8449"/>
<path d="M719.831 310.408C720.303 310.064 718.198 308.532 718.108 308.28C718.053 308.228 717.98 308.199 717.905 308.199C717.829 308.199 717.757 308.228 717.702 308.28C717.231 308.625 719.335 310.156 719.426 310.408C719.48 310.46 719.553 310.49 719.629 310.489C719.704 310.489 719.777 310.46 719.831 310.408Z" fill="#E6E6E6"/>
<path d="M722.735 312.905C722.476 312.809 720.957 310.716 720.606 311.182C720.134 311.527 722.239 313.058 722.329 313.31C722.588 313.576 723.002 313.164 722.735 312.905Z" fill="#E6E6E6"/>
<path d="M744.938 323.961C744.901 326.471 748.847 326.471 748.81 323.96C748.846 321.451 744.901 321.451 744.938 323.961Z" fill="#1E8449"/>
<path opacity="0.2" d="M768.265 363.185C771.382 367.008 775.128 370.274 779.342 372.842C780.076 373.317 780.837 373.772 781.626 374.22L786.125 378.051C795.055 366.322 794.552 330.689 794.552 330.689L780.96 332.047L768.265 363.185Z" fill="black"/>
<path d="M741.591 353.839L750.655 349.309L743.101 328.928L741.111 318.65C740.852 317.314 740.247 316.07 739.356 315.042C738.466 314.013 737.321 313.236 736.036 312.788C734.75 312.34 733.37 312.238 732.032 312.49C730.695 312.742 729.447 313.341 728.414 314.226C726.882 315.538 725.921 317.393 725.732 319.399C725.543 321.406 726.142 323.408 727.402 324.981L734.792 334.212L741.591 353.839Z" fill="#A0616A"/>
<path d="M750.656 345.535L738.569 351.574L747.742 380.293C748.4 382.355 749.581 384.213 751.169 385.685C752.758 387.157 754.7 388.194 756.807 388.695C759.406 389.314 762.134 389.089 764.596 388.054C767.058 387.018 769.126 385.226 770.501 382.937L794.823 341.278C796.546 338.407 797.078 334.977 796.305 331.719C795.532 328.462 793.515 325.636 790.685 323.845C789.162 322.881 787.454 322.249 785.671 321.989C783.888 321.729 782.071 321.847 780.336 322.335C778.602 322.824 776.99 323.672 775.606 324.824C774.221 325.976 773.095 327.406 772.3 329.022L757.454 360.632L750.656 345.535Z" fill="#1E8449"/>
<path d="M761.108 276.453C759.446 277.838 757.57 278.945 755.553 279.729C754.542 280.114 753.458 280.273 752.377 280.196C751.297 280.118 750.247 279.806 749.301 279.28C748.263 278.535 747.445 277.526 746.931 276.356C746.418 275.187 746.229 273.902 746.383 272.634C746.728 270.098 747.748 267.701 749.335 265.692C752.073 261.887 755.673 258.783 759.84 256.634C764.008 254.484 768.625 253.35 773.315 253.324C778.005 253.298 782.634 254.381 786.825 256.485C791.016 258.588 794.65 261.652 797.43 265.427C799.456 267.954 800.702 271.016 801.016 274.239C801.307 279.901 797.43 285.187 797.845 290.841C798.195 295.624 801.63 299.721 805.699 302.264C809.767 304.806 814.469 306.096 819.018 307.623C823.567 309.15 828.167 311.034 831.534 314.451C834.901 317.868 836.758 323.171 834.91 327.596C833.391 331.232 829.783 333.545 826.164 335.111C816.462 339.263 805.563 339.672 795.577 336.259C791.895 334.983 787.874 332.431 787.818 328.537C787.794 326.848 788.555 325.261 789.012 323.634C789.469 322.007 789.555 320.066 788.409 318.823C786.987 317.282 784.36 317.637 782.661 318.866C780.962 320.095 779.857 321.96 778.455 323.519C775.794 326.479 771.759 328.371 767.815 327.813C763.872 327.255 760.308 323.899 760.145 319.922C759.864 313.091 768.429 308.814 769.36 302.041C769.982 297.518 767.035 293.379 764.481 289.593C761.927 285.806 759.552 281.062 761.339 276.86" fill="#2F2E41"/>
<path d="M476.896 494.207H140.367C138.715 494.205 137.131 493.548 135.962 492.38C134.794 491.213 134.137 489.63 134.135 487.979V200.409C134.137 198.758 134.794 197.175 135.962 196.007C137.131 194.84 138.715 194.183 140.367 194.181H476.896C478.549 194.183 480.133 194.84 481.301 196.007C482.469 197.175 483.126 198.758 483.128 200.409V487.979C483.126 489.63 482.469 491.213 481.301 492.38C480.133 493.548 478.549 494.205 476.896 494.207ZM140.367 196.672C139.375 196.673 138.425 197.067 137.724 197.768C137.023 198.468 136.629 199.418 136.628 200.409V487.979C136.629 488.97 137.023 489.919 137.724 490.62C138.425 491.32 139.375 491.715 140.367 491.716H476.896C477.888 491.715 478.838 491.32 479.539 490.62C480.24 489.919 480.634 488.97 480.636 487.979V200.409C480.634 199.418 480.24 198.468 479.539 197.768C478.838 197.067 477.888 196.673 476.896 196.672H140.367Z" fill="#3F3D56"/>
<path d="M192.657 468.437C206.677 468.437 218.043 457.079 218.043 443.069C218.043 429.059 206.677 417.701 192.657 417.701C178.637 417.701 167.271 429.059 167.271 443.069C167.271 457.079 178.637 468.437 192.657 468.437Z" fill="#E6E6E6"/>
<path d="M251.286 426.157C250.165 426.159 249.091 426.605 248.299 427.398C247.506 428.19 247.062 429.265 247.062 430.385C247.062 431.505 247.506 432.58 248.299 433.373C249.091 434.165 250.165 434.611 251.286 434.613H450.747C451.869 434.613 452.946 434.168 453.739 433.375C454.533 432.582 454.978 431.507 454.978 430.385C454.978 429.264 454.533 428.188 453.739 427.396C452.946 426.603 451.869 426.157 450.747 426.157H251.286Z" fill="#E6E6E6"/>
<path d="M251.286 451.525C250.164 451.525 249.088 451.97 248.294 452.763C247.501 453.556 247.055 454.632 247.055 455.753C247.055 456.874 247.501 457.95 248.294 458.743C249.088 459.535 250.164 459.981 251.286 459.981H337.115C337.671 459.982 338.222 459.873 338.736 459.661C339.25 459.449 339.717 459.137 340.111 458.745C340.504 458.352 340.816 457.886 341.029 457.372C341.242 456.859 341.352 456.309 341.352 455.753C341.352 455.197 341.242 454.647 341.029 454.133C340.816 453.62 340.504 453.154 340.111 452.761C339.717 452.368 339.25 452.057 338.736 451.845C338.222 451.633 337.671 451.524 337.115 451.525H251.286Z" fill="#E6E6E6"/>
<path d="M556.852 393.905H220.322C218.67 393.903 217.086 393.247 215.918 392.079C214.749 390.912 214.092 389.329 214.09 387.678V240.097C214.092 238.446 214.749 236.863 215.918 235.696C217.086 234.528 218.67 233.872 220.322 233.87H556.852C558.504 233.872 560.088 234.528 561.256 235.696C562.425 236.863 563.082 238.446 563.084 240.097V387.678C563.082 389.329 562.425 390.912 561.256 392.079C560.088 393.247 558.504 393.903 556.852 393.905Z" fill="#1E8449"/>
<path d="M288.857 285.31C287.736 285.312 286.661 285.758 285.869 286.551C285.077 287.343 284.632 288.418 284.632 289.538C284.632 290.658 285.077 291.733 285.869 292.525C286.661 293.318 287.736 293.764 288.857 293.766H488.318C489.439 293.764 490.513 293.318 491.305 292.525C492.098 291.733 492.543 290.658 492.543 289.538C492.543 288.418 492.098 287.343 491.305 286.551C490.513 285.758 489.439 285.312 488.318 285.31H288.857Z" fill="white"/>
<path d="M288.857 309.808C287.736 309.81 286.661 310.256 285.869 311.049C285.077 311.841 284.632 312.916 284.632 314.036C284.632 315.156 285.077 316.231 285.869 317.024C286.661 317.816 287.736 318.262 288.857 318.264H488.318C489.439 318.262 490.513 317.816 491.305 317.024C492.098 316.231 492.543 315.156 492.543 314.036C492.543 312.916 492.098 311.841 491.305 311.049C490.513 310.256 489.439 309.81 488.318 309.808H288.857Z" fill="white"/>
<path d="M288.857 334.009C287.736 334.011 286.661 334.457 285.869 335.25C285.077 336.042 284.632 337.117 284.632 338.237C284.632 339.357 285.077 340.432 285.869 341.225C286.661 342.017 287.736 342.464 288.857 342.465H374.685C375.242 342.466 375.792 342.357 376.306 342.145C376.82 341.933 377.288 341.622 377.681 341.229C378.075 340.836 378.387 340.37 378.6 339.857C378.813 339.343 378.923 338.793 378.923 338.237C378.923 337.681 378.813 337.131 378.6 336.618C378.387 336.104 378.075 335.638 377.681 335.245C377.288 334.853 376.82 334.541 376.306 334.329C375.792 334.117 375.242 334.008 374.685 334.009H288.857Z" fill="white"/>
<path d="M557.471 409.809C571.492 409.809 582.857 398.451 582.857 384.441C582.857 370.431 571.492 359.073 557.471 359.073C543.451 359.073 532.085 370.431 532.085 384.441C532.085 398.451 543.451 409.809 557.471 409.809Z" fill="#3F3D56"/>
<path d="M555.356 395.657L547.298 385.306L551.984 381.663L555.799 386.565L568.687 372.97L572.997 377.05L555.356 395.657Z" fill="white"/>
<path d="M515.578 123.708L474.327 133.141L456.897 100.293L492.17 86.5322L515.578 123.708Z" fill="#2F2E41"/>
<path d="M549.856 357.007L565.315 342.969L531.975 267.817L502.841 231.982L550.44 252.569L555.393 304.989L579.062 313.127L575.994 247.676C575.802 243.595 574.441 239.654 572.073 236.323C569.704 232.992 566.428 230.412 562.633 228.889L523.583 213.214L516.591 183.886L475.823 183.303C463.155 205.33 457.494 224.716 466.636 238.524L509.056 279.866L549.856 357.007Z" fill="#2F2E41"/>
<path d="M557.062 347.389C557.062 347.389 559.259 340.827 562.704 342.337C566.148 343.848 575.797 351.5 575.797 351.5C575.797 351.5 591.913 353.778 581.819 359.614C571.725 365.45 567.776 365.087 567.454 364.261C567.132 363.436 564.513 361.604 564.513 361.604L560.705 364.039L554.278 364.641C554.278 364.641 545.864 350.398 548.572 350.02C551.279 349.643 557.202 350.187 557.062 347.389Z" fill="#2F2E41"/>
<path d="M567.229 307.146C567.229 307.146 573.931 305.405 574.544 309.114C575.157 312.823 574.005 325.078 574.005 325.078C574.005 325.078 580.889 339.817 570.486 334.548C560.084 329.28 558.234 325.775 558.75 325.055C559.267 324.335 559.375 321.142 559.375 321.142L555.254 319.282L551.242 314.229C551.242 314.229 558.595 299.411 560.39 301.472C562.184 303.534 564.959 308.791 567.229 307.146Z" fill="#2F2E41"/>
<path d="M480.733 120.639C488.985 120.639 495.675 113.954 495.675 105.708C495.675 97.4618 488.985 90.7769 480.733 90.7769C472.481 90.7769 465.792 97.4618 465.792 105.708C465.792 113.954 472.481 120.639 480.733 120.639Z" fill="#FFB9B9"/>
<path d="M478.998 154.909L515.269 149.677C509.854 139.884 504.272 130.959 496.769 131.957C490.095 127.289 489.71 119.785 491.398 111.346L473.243 116.195C474.841 121.397 474.223 125.965 469.968 129.492C475.913 137.854 479.76 146.295 478.998 154.909Z" fill="#FFB9B9"/>
<path d="M476.256 186.695C489.144 203.464 502.362 210.089 516.572 186.119L517.743 175.423C526.862 163.932 524.192 154.002 513.072 145.191L507.709 132.59L499.627 131.288C500.691 132.517 501.367 134.033 501.57 135.646C501.772 137.258 501.492 138.894 500.764 140.347C500.036 141.801 498.894 143.006 497.481 143.811C496.069 144.616 494.449 144.984 492.827 144.87L489.905 144.663C488.822 144.587 487.765 144.297 486.794 143.811C485.824 143.324 484.96 142.651 484.251 141.829L471.836 127.428L466.605 128.826C466.012 128.984 465.483 129.323 465.093 129.796C464.702 130.269 464.469 130.852 464.426 131.464L462.729 155.462C470.196 163.728 474.492 174.294 476.256 186.695Z" fill="#1E8449"/>
<path d="M470.487 176.479L441.942 170.687L460.901 153.058L453.685 140.019L423.041 172.589C422.515 173.187 422.163 173.918 422.024 174.702C421.884 175.487 421.963 176.294 422.251 177.037C422.539 177.78 423.025 178.429 423.657 178.915C424.289 179.401 425.042 179.704 425.835 179.792L467.336 184.384L469.038 191.889C469.265 192.888 469.729 193.817 470.39 194.598C471.052 195.38 471.892 195.991 472.84 196.379C473.788 196.768 474.815 196.922 475.835 196.83C476.856 196.738 477.839 196.402 478.702 195.851C479.5 195.34 480.175 194.658 480.677 193.854C481.178 193.05 481.495 192.144 481.602 191.203C481.71 190.261 481.606 189.308 481.298 188.411C480.991 187.515 480.488 186.699 479.825 186.021L470.487 176.479Z" fill="#FFB9B9"/>
<path d="M514.867 222.843L511.078 232.701C510.708 233.664 510.547 234.695 510.605 235.725C510.663 236.755 510.939 237.761 511.415 238.677C511.891 239.592 512.556 240.396 513.366 241.036C514.176 241.676 515.112 242.136 516.114 242.387C517.287 242.682 518.515 242.68 519.688 242.382C520.86 242.084 521.94 241.499 522.831 240.681C523.721 239.862 524.394 238.835 524.788 237.692C525.182 236.549 525.286 235.326 525.09 234.133L523.486 224.381L528.757 185.377L524.046 159.611L513.304 162.907L516.874 186.892L514.867 222.843Z" fill="#FFB9B9"/>
<path d="M510.814 165.659L527.055 159.329L518.003 139.509C517.036 137.392 515.51 135.577 513.59 134.26C511.67 132.942 509.427 132.172 507.102 132.031L502.937 131.779L510.814 165.659Z" fill="#1E8449"/>
<path d="M457.316 157.572L474.632 151.714L468.527 130.958C468.329 130.286 467.898 129.706 467.312 129.323C466.725 128.94 466.021 128.778 465.326 128.866C464.738 128.941 464.186 129.192 463.742 129.585L446.054 145.267C449.438 150.834 453.041 150.973 457.316 157.572Z" fill="#1E8449"/>
<path d="M490.66 81.4672C490.66 81.4672 499.798 83.1848 501.911 94.5735C502.242 96.4941 502.302 98.4514 502.09 100.389C501.879 102.581 502.185 107.211 506.949 112.663C510.057 116.199 512.953 119.916 515.622 123.794L506.073 126.334L501.807 110.525C499.739 102.861 496.552 95.5423 492.35 88.8055L492.263 88.6649C492.263 88.6649 489.091 97.1326 480.591 98.2934L483.212 94.8453C483.212 94.8453 473.275 100.585 467.646 102.339C467.003 102.539 466.428 102.911 465.981 103.414C465.534 103.916 465.233 104.532 465.11 105.193C464.987 105.854 465.047 106.536 465.284 107.166C465.52 107.796 465.924 108.349 466.452 108.766C466.492 108.798 466.533 108.829 466.574 108.86C470.715 112.003 479.162 119.502 475.825 126.756C472.488 134.011 476.38 135.333 476.38 135.333L469.203 132.605L465.918 131.2L466.25 133.626L450.215 133.962C450.215 133.962 445.882 133.936 453.579 122.378C453.579 122.378 455.436 118.044 453.912 114.733C452.688 112.226 452.079 109.464 452.134 106.675C452.619 95.0222 457.531 71.3162 490.66 81.4672Z" fill="#2F2E41"/>
</g>
<defs>
<clipPath id="clip0">
<rect width="975" height="637" fill="white"/>
</clipPath>
</defs>
</svg>
