<svg width="975" height="632" viewBox="0 0 975 632" fill="none" xmlns="http://www.w3.org/2000/svg">
<path d="M98.1767 467.515C99.3625 519.963 105.201 573.77 117.601 627.148C117.871 628.348 118.155 629.529 118.438 630.728H190.927C190.85 629.654 190.772 628.455 190.695 627.148C185.861 549.981 157.995 80.3179 191.314 0C188.401 6.51564 92.5571 222.319 98.1767 467.515Z" fill="#E6E6E6"/>
<path d="M103.616 627.148C104.222 628.348 104.853 629.547 105.498 630.728H159.877C159.465 629.708 158.988 628.509 158.433 627.148C149.45 604.63 122.859 537.308 98.1767 467.515C71.6509 392.513 47.3162 314.666 49.3656 286.491C48.7341 292.846 30.3799 486.561 103.616 627.148Z" fill="#E6E6E6"/>
<path d="M760.932 176.96L756.368 212.095L753.61 233.42L751.551 249.252L691.068 310.774L673.347 322.18C671.713 323.231 669.876 323.924 667.955 324.213C666.034 324.502 664.073 324.381 662.203 323.857C660.332 323.333 658.594 322.418 657.102 321.173C655.611 319.928 654.4 318.381 653.55 316.634C652.7 314.886 652.229 312.979 652.17 311.036C652.11 309.094 652.463 307.161 653.204 305.365C653.946 303.569 655.059 301.951 656.472 300.616C657.884 299.282 659.563 298.263 661.398 297.625L680.834 290.872L721.792 237.655L723.661 227.253L748.093 144.966C750.584 140.795 752.262 156.003 755.72 152.595C756.75 153.74 763.703 139.93 764.618 141.151C773.161 152.506 762.801 162.54 760.932 176.96Z" fill="#FEB8B8"/>
<path d="M771.468 604.946H752.614V421.485L795.464 420.628L771.468 604.946Z" fill="#FEB8B8"/>
<path d="M862.309 604.946H881.163V421.485L838.313 420.628L862.309 604.946Z" fill="#FEB8B8"/>
<path d="M794.607 109.431C812.119 109.431 826.316 95.2294 826.316 77.711C826.316 60.1927 812.119 45.9912 794.607 45.9912C777.095 45.9912 762.898 60.1927 762.898 77.711C762.898 95.2294 777.095 109.431 794.607 109.431Z" fill="#FEB8B8"/>
<path d="M848.597 123.147L843.455 154.009L783.466 157.439V120.261C795.842 114.938 793.057 107.163 783.466 98.2854L822.031 87.1406C823.473 99.9154 825.746 111.797 836.375 114.68C841.04 115.87 845.166 118.606 848.078 122.443L848.597 123.147Z" fill="#FEB8B8"/>
<path d="M888.876 425.771L826.744 427.915L819.031 379.906L808.319 425.771L744.901 427.486L750.043 343.471L869.165 315.181C883.26 350.298 889.97 387.945 888.876 425.771Z" fill="#2F2E41"/>
<path d="M762.621 630.463L722.505 630.095C720.584 630.57 718.58 630.602 716.646 630.187C714.711 629.773 712.896 628.923 711.338 627.703C709.78 626.483 708.52 624.924 707.653 623.145C706.787 621.365 706.336 619.412 706.336 617.432C706.336 614.976 707.03 612.57 708.337 610.49C709.644 608.41 711.511 606.742 713.724 605.678L722.874 601.274L752.614 580.941L774.039 586.942L778.142 605.414C779.336 610.79 778.381 616.42 775.481 621.101C772.581 625.782 767.965 629.142 762.621 630.463Z" fill="#2F2E41"/>
<path d="M870.602 630.236L830.487 629.868C828.566 630.343 826.562 630.374 824.627 629.96C822.692 629.545 820.877 628.696 819.319 627.476C817.761 626.255 816.501 624.697 815.635 622.917C814.768 621.138 814.318 619.184 814.318 617.205C814.318 614.748 815.011 612.342 816.318 610.262C817.625 608.183 819.492 606.515 821.705 605.45L830.856 601.047L860.596 580.714L882.02 586.715L886.124 605.187C887.318 610.563 886.363 616.193 883.462 620.873C880.562 625.554 875.947 628.914 870.602 630.236Z" fill="#2F2E41"/>
<path d="M780.896 65.9755C769.377 73.9785 754.299 62.8964 758.432 49.4897C761.852 38.3981 770.472 27.5648 791.179 27.9876C833.171 28.8449 838.597 70.8971 824.743 87.5919C824.743 87.5919 822.888 61.422 818.603 65.7084C814.318 69.9948 807.462 67.423 807.462 67.423C807.462 67.423 810.89 51.1344 794.607 57.9928C789.766 60.1578 785.169 62.8338 780.896 65.9755Z" fill="#2F2E41"/>
<path d="M872.593 322.039C838.253 349.891 797.642 359.952 749.186 347.758C761.497 285.712 759.128 219.752 749.186 151.772C749.186 147.301 750.442 142.92 752.81 139.129C755.178 135.337 758.563 132.288 762.58 130.328L784.323 119.718C803.622 147.139 821.383 140.145 838.313 114.574L862.304 123.354C865.568 124.549 868.385 126.722 870.371 129.577C872.356 132.431 873.413 135.829 873.398 139.307C870.126 208.283 868.113 273.878 872.593 322.039Z" fill="#1E8449"/>
<path d="M768.038 244.026L757.348 241.826L753.61 241.05L723.661 234.882L709.767 232.021L733.271 163.404C736.19 154.901 741.037 147.188 747.432 140.871C752.406 135.963 758.224 131.991 764.606 129.146V129.337L768.038 244.026Z" fill="#1E8449"/>
<path d="M880.306 313.466L870.299 341.916C869.561 344.016 869.315 346.259 869.581 348.469C869.846 350.68 870.617 352.8 871.833 354.665C873.049 356.53 874.677 358.091 876.592 359.226C878.508 360.361 880.658 361.04 882.877 361.211C884.786 361.358 886.704 361.125 888.523 360.527C890.341 359.929 892.024 358.978 893.473 357.726C894.922 356.475 896.109 354.95 896.967 353.238C897.824 351.526 898.335 349.661 898.469 347.751L900.874 313.466L898.303 219.164L871.736 221.736L880.306 313.466Z" fill="#FEB8B8"/>
<path d="M914.586 217.449L858.024 233.738L857.167 121.433C866.169 121.933 874.79 125.235 881.824 130.876C888.858 136.518 893.955 144.217 896.4 152.898L914.586 217.449Z" fill="#1E8449"/>
<rect x="252.966" y="532.812" width="355.932" height="35.6057" rx="6" fill="#E6E6E6"/>
<path d="M199.576 159.182H662.288C667.076 159.182 670.958 163.064 670.958 167.855V621.827C670.958 626.617 667.076 630.5 662.288 630.5H199.576C194.789 630.5 190.907 626.617 190.907 621.827V167.855C190.907 163.064 194.789 159.182 199.576 159.182Z" fill="white" stroke="black" stroke-width="3"/>
<rect x="252.966" y="344.611" width="355.932" height="55.9517" rx="6" fill="#E6E6E6"/>
<rect x="441.102" y="476.861" width="167.797" height="35.6057" rx="6" fill="#E6E6E6"/>
<rect x="441.102" y="420.909" width="167.797" height="35.6057" rx="6" fill="#1E8449"/>
<rect x="303.813" y="232.708" width="254.237" height="38.1489" rx="6" fill="#E6E6E6"/>
<rect x="191.949" y="158.954" width="477.966" height="39.4205" rx="6" fill="#1E8449"/>
<rect x="252.966" y="476.861" width="167.797" height="35.6057" rx="6" fill="#E6E6E6"/>
<rect x="252.966" y="420.909" width="167.797" height="35.6057" rx="6" fill="#E6E6E6"/>
<rect x="252.966" y="305.191" width="355.932" height="20.3461" rx="8" fill="#E6E6E6"/>
<path d="M252.966 313.191C252.966 308.773 256.548 305.191 260.966 305.191H457.627L448.729 325.538H260.966C256.548 325.538 252.966 321.956 252.966 317.538V313.191Z" fill="#1E8449"/>
<path d="M975 628.186H0V632H975V628.186Z" fill="#2F2E41"/>
</svg>
