<svg width="28" height="28" viewBox="0 0 28 28" fill="none" xmlns="http://www.w3.org/2000/svg">
<path d="M1.64062 1.64062H6.5625V0H0V6.5625H1.64062V1.64062Z" fill="white"/>
<path d="M21.4375 0V1.64062H26.3594V6.5625H28V0H21.4375Z" fill="white"/>
<path d="M26.3594 26.3594H21.4375V28H28V21.4375H26.3594V26.3594Z" fill="white"/>
<path d="M1.64062 21.4375H0V28H6.5625V26.3594H1.64062V21.4375Z" fill="white"/>
<path d="M3.33594 3.28125V11.4844H11.5391V6.5625H13.1797V4.92188H11.5391V3.28125H3.33594ZM9.89844 9.84375H4.97656V4.92188H9.89844V9.84375Z" fill="white"/>
<path d="M24.6641 24.6094V16.4062H21.3828V14.7656H19.7422V16.4062H14.8203V18.0469H16.4609V19.6875H14.8203V21.3281H16.4609V24.6094H24.6641ZM18.1016 18.0469H23.0234V22.9688H18.1016V18.0469Z" fill="white"/>
<path d="M8.25781 14.7656H11.5391V13.125H3.33594V14.7656H6.61719V16.4062H4.97656V18.0469H6.61719V21.3281H4.97656V22.9688H6.61719V24.6094H14.8203V22.9688H13.1797V21.3281H11.5391V22.9688H8.25781V21.3281H9.89844V19.6875H8.25781V14.7656Z" fill="white"/>
<path d="M6.61719 6.5625H8.25781V8.20312H6.61719V6.5625Z" fill="white"/>
<path d="M19.7422 6.5625H21.3828V8.20312H19.7422V6.5625Z" fill="white"/>
<path d="M21.3828 11.4844H24.6641V3.28125H16.4609V11.4844H19.7422V13.125H21.3828V11.4844ZM18.1016 9.84375V4.92188H23.0234V9.84375H18.1016Z" fill="white"/>
<path d="M24.6641 14.7656V13.125C24.2672 13.125 21.7825 13.125 21.3828 13.125V14.7656H24.6641Z" fill="white"/>
<path d="M19.7422 19.6875H21.3828V21.3281H19.7422V19.6875Z" fill="white"/>
<path d="M13.1797 18.0469H14.8203V19.6875H13.1797V18.0469Z" fill="white"/>
<path d="M9.89844 19.6875H11.5391C11.5391 19.2906 11.5391 16.806 11.5391 16.4062H9.89844V19.6875Z" fill="white"/>
<path d="M11.5391 14.7656H13.1797V16.4062H11.5391V14.7656Z" fill="white"/>
<path d="M4.97656 18.0469H3.33594V21.3281H4.97656C4.97656 20.9312 4.97656 18.4466 4.97656 18.0469Z" fill="white"/>
<path d="M3.33594 22.9688H4.97656V24.6094H3.33594V22.9688Z" fill="white"/>
<path d="M13.1797 3.28125H14.8203V4.92188H13.1797V3.28125Z" fill="white"/>
<path d="M13.1797 9.84375H14.8203C14.8203 9.44685 14.8203 6.96219 14.8203 6.5625H13.1797V9.84375Z" fill="white"/>
<path d="M14.8203 13.125V11.4844H13.1797V14.7656H19.7422V13.125H14.8203Z" fill="white"/>
</svg>
