<svg width="29" height="24" viewBox="0 0 29 24" fill="none" xmlns="http://www.w3.org/2000/svg">
<path d="M28.8379 3.46515C27.797 3.91965 26.6879 4.22091 25.5316 4.36719C26.7212 3.66019 27.6291 2.54918 28.056 1.21005C26.9468 1.8683 25.7223 2.33325 24.4172 2.59272C23.3641 1.47649 21.8631 0.785156 20.2257 0.785156C17.0488 0.785156 14.4912 3.35196 14.4912 6.49865C14.4912 6.95141 14.5297 7.38676 14.6241 7.80121C9.85353 7.5696 5.63224 5.29361 2.79648 1.82651C2.3014 2.68153 2.011 3.66019 2.011 4.71373C2.011 6.69194 3.0344 8.44552 4.55987 9.46075C3.63794 9.44334 2.7335 9.1769 1.96727 8.75723C1.96727 8.77464 1.96727 8.79728 1.96727 8.81992C1.96727 11.5957 3.95633 13.9013 6.56467 14.4324C6.09758 14.5595 5.58851 14.6205 5.06019 14.6205C4.69282 14.6205 4.32195 14.5996 3.97382 14.523C4.71731 16.785 6.82708 18.448 9.33571 18.502C7.38339 20.0223 4.9045 20.9382 2.22093 20.9382C1.75034 20.9382 1.299 20.9173 0.847656 20.8599C3.38952 22.4916 6.40198 23.4232 9.6506 23.4232C20.2099 23.4232 25.9829 14.7163 25.9829 7.16908C25.9829 6.91658 25.9742 6.67279 25.9619 6.43074C27.1008 5.62621 28.0577 4.62143 28.8379 3.46515Z" fill="white"/>
</svg>
