<svg width="471" height="395" viewBox="0 0 471 395" fill="none" xmlns="http://www.w3.org/2000/svg">
<path d="M425.736 196.591C425.736 235.109 414.404 270.971 394.887 301.037C371.445 293.76 345.913 289.767 319.2 289.767C245.224 289.767 180.315 320.386 143.725 366.437C82.9033 334.188 41.4805 270.231 41.4805 196.591C41.4805 90.4835 127.498 4.46582 233.612 4.46582C339.719 4.46582 425.736 90.4835 425.736 196.591Z" fill="url(#paint0_linear)"/>
<path d="M341.806 132.808C353.794 132.808 363.513 123.089 363.513 111.101C363.513 99.1129 353.794 89.3945 341.806 89.3945C329.818 89.3945 320.1 99.1129 320.1 111.101C320.1 123.089 329.818 132.808 341.806 132.808Z" fill="#FFD664"/>
<path d="M270.467 145.154C269.907 145.154 269.354 145.191 268.819 145.272C266.922 142.79 263.799 141.042 260.18 140.632C257.107 137.093 252.156 134.798 246.571 134.798C241.794 134.798 237.49 136.471 234.418 139.164C232.969 138.76 231.42 138.536 229.803 138.536C221.717 138.536 215.168 144.078 215.168 150.913C215.168 151.336 215.193 151.753 215.243 152.169H280.319C279.51 148.183 275.405 145.154 270.467 145.154Z" fill="white"/>
<path d="M417.519 252.356C412.245 269.759 404.576 286.11 394.886 301.038C371.444 293.761 345.912 289.768 319.199 289.768C252.014 289.768 192.312 315.019 154.509 354.153C154.117 351.734 153.918 349.29 153.918 346.827C153.918 292.977 248.45 249.321 365.063 249.321C383.174 249.321 400.751 250.372 417.519 252.356Z" fill="url(#paint1_linear)"/>
<path d="M417.519 252.356C412.245 269.759 404.576 286.11 394.886 301.038C371.444 293.761 345.912 289.768 319.199 289.768C252.014 289.768 192.312 315.019 154.509 354.153C154.117 351.734 153.918 349.29 153.918 346.827C153.918 292.977 248.45 249.321 365.063 249.321C383.174 249.321 400.751 250.372 417.519 252.356Z" fill="url(#paint2_linear)"/>
<path d="M337.638 290.407C300.457 258.414 236.451 237.298 163.737 237.298C122.133 237.298 83.3789 244.214 50.875 256.118C51.2171 257.163 51.5654 258.202 51.9199 259.241C52.0754 259.689 52.2309 260.136 52.3926 260.584C52.4983 260.889 52.6103 261.2 52.7222 261.505C52.9275 262.096 53.1452 262.686 53.3629 263.271C53.5805 263.862 53.7982 264.453 54.0284 265.037C54.5384 266.381 55.067 267.712 55.6019 269.043C55.7761 269.46 55.944 269.876 56.1182 270.293C56.3607 270.871 56.6033 271.45 56.8521 272.028C57.0946 272.601 57.3434 273.179 57.5984 273.751C57.8472 274.323 58.1022 274.896 58.3634 275.468C58.6122 276.028 58.8672 276.581 59.1222 277.141C62.2818 283.964 65.827 290.575 69.733 296.938C69.9444 297.293 70.1621 297.641 70.386 297.989C70.5851 298.319 70.7965 298.655 71.008 298.991C71.2257 299.339 71.4496 299.693 71.6735 300.042C73.471 302.847 75.3369 305.602 77.2774 308.308C77.663 308.849 78.0548 309.39 78.4529 309.925C78.6644 310.217 78.8821 310.516 79.0997 310.808C79.5538 311.43 80.0203 312.046 80.4805 312.655C81.3077 313.737 82.1412 314.82 82.9932 315.889C83.5344 316.58 84.0879 317.264 84.6414 317.942C84.6974 318.01 84.7472 318.072 84.7969 318.135C85.4189 318.893 86.0533 319.652 86.6877 320.405C87.347 321.195 88.0187 321.972 88.6967 322.75C90.2143 324.491 91.7692 326.208 93.349 327.899C93.9771 328.571 94.6115 329.243 95.2522 329.902C95.2584 329.908 95.2584 329.908 95.2646 329.915C95.9052 330.58 96.5521 331.246 97.2051 331.899C97.2984 331.998 97.3979 332.098 97.4975 332.191C98.25 332.95 99.0088 333.696 99.7738 334.442C99.7925 334.461 99.8174 334.486 99.8423 334.511C100.477 335.12 101.111 335.73 101.758 336.34C102.013 336.582 102.274 336.825 102.529 337.061C103.157 337.652 103.798 338.243 104.439 338.821C105.166 339.487 105.906 340.146 106.647 340.799C107.573 341.614 108.512 342.422 109.452 343.225C110.117 343.784 110.783 344.344 111.454 344.898C111.74 345.128 112.02 345.364 112.306 345.594C112.935 346.104 113.563 346.614 114.191 347.112C115.012 347.765 115.839 348.412 116.673 349.052C116.685 349.059 116.704 349.071 116.716 349.084C117.562 349.737 118.414 350.377 119.272 351.012C120.131 351.652 120.995 352.28 121.866 352.896C124.472 354.768 127.128 356.572 129.833 358.307C130.735 358.892 131.637 359.464 132.551 360.024C133.403 360.559 134.262 361.081 135.12 361.591C135.182 361.622 135.238 361.66 135.3 361.697C136.221 362.251 137.141 362.792 138.074 363.32C139.001 363.861 139.94 364.384 140.886 364.9C141.825 365.429 142.77 365.939 143.722 366.436" fill="url(#paint3_linear)"/>
<path d="M394.884 301.037C360.645 353.81 301.204 388.721 233.609 388.721C201.136 388.721 170.542 380.66 143.723 366.436C180.313 320.386 245.221 289.767 319.198 289.767C345.911 289.767 371.443 293.76 394.884 301.037Z" fill="url(#paint4_linear)"/>
<path d="M273.695 328.106L271.052 170.301H268.408H265.765L263.122 328.106H260.584V335.718H276.233V328.106H273.695Z" fill="url(#paint5_linear)"/>
<path d="M277.186 170.264L341.273 183.922L340.968 185.377L275.799 176.788L276.819 171.999L272.465 171.072L272.838 169.337L277.186 170.264Z" fill="url(#paint6_linear)"/>
<path d="M265.971 162.706L251 98.9111L252.443 98.5752L272.464 161.182L267.706 162.302L268.72 166.631L266.991 167.035L265.971 162.706Z" fill="url(#paint7_linear)"/>
<path d="M263.159 175.084L216.2 220.786L215.168 219.722L258.506 170.301L261.921 173.809L265.105 170.705L266.349 171.98L263.159 175.084Z" fill="url(#paint8_linear)"/>
<path d="M263.159 175.084L216.2 220.786L215.168 219.722L258.506 170.301L261.921 173.809L265.105 170.705L266.349 171.98L263.159 175.084Z" fill="url(#paint9_linear)"/>
<path d="M168.844 232.714L167.252 137.628H165.66H164.068L162.475 232.714H160.945V237.298H170.374V232.714H168.844Z" fill="url(#paint10_linear)"/>
<path d="M161.388 141.174L126.757 160.144L126.328 159.36L159.46 137.653L160.878 140.234L163.229 138.947L163.739 139.886L161.388 141.174Z" fill="url(#paint11_linear)"/>
<path d="M170.966 138.518L208.315 151.324L208.029 152.164L169.666 142.324L170.617 139.532L168.086 138.667L168.434 137.653L170.966 138.518Z" fill="url(#paint12_linear)"/>
<path d="M163.824 133.287L164.434 93.8047L165.33 93.8171L167.842 133.349L164.9 133.299L164.857 135.98L163.787 135.968L163.824 133.287Z" fill="url(#paint13_linear)"/>
<path d="M268.408 174.953C270.978 174.953 273.06 172.87 273.06 170.301C273.06 167.731 270.978 165.648 268.408 165.648C265.839 165.648 263.756 167.731 263.756 170.301C263.756 172.87 265.839 174.953 268.408 174.953Z" fill="url(#paint14_radial)"/>
<path d="M165.661 140.433C167.21 140.433 168.466 139.178 168.466 137.628C168.466 136.079 167.21 134.823 165.661 134.823C164.111 134.823 162.855 136.079 162.855 137.628C162.855 139.178 164.111 140.433 165.661 140.433Z" fill="url(#paint15_radial)"/>
<path opacity="0.49" d="M208.551 275.052L208.844 275.425L171.495 281.085L168.988 281.464C168.988 281.47 168.994 281.476 168.994 281.476C168.994 282.161 167.738 282.714 166.189 282.714C165.916 282.714 165.654 282.689 165.399 282.658L165.424 283.386L168.372 283.367L165.853 300.851L164.958 300.857L164.348 283.398L164.311 282.397C163.745 282.173 163.378 281.843 163.378 281.476C163.378 281.265 163.515 281.066 163.726 280.886L161.394 280.32L159.976 281.464L126.844 271.861L127.273 271.513L161.904 279.903L164.255 280.475L163.919 280.743C164.093 280.637 164.305 280.544 164.541 280.469L162.986 239.419H161.456V237.392H170.879V239.419H169.349L167.794 280.469C168.211 280.599 168.546 280.78 168.745 280.991L171.121 280.631L170.164 279.399L208.551 275.052Z" fill="url(#paint16_linear)"/>
<path opacity="0.49" d="M261.728 386.682L261.436 373.595L260.584 335.718H276.226L277.47 364.875L278.266 383.503C278.21 383.516 278.154 383.528 278.099 383.547L261.728 386.682Z" fill="url(#paint17_linear)"/>
<path d="M451.047 129.176C449.933 129.176 448.851 129.263 447.787 129.443C444.037 123.653 437.873 119.567 430.721 118.602C424.657 110.343 414.873 104.981 403.833 104.981C394.404 104.981 385.89 108.894 379.825 115.182C376.958 114.23 373.898 113.714 370.714 113.714C354.748 113.714 341.805 126.657 341.805 142.623C341.805 143.612 341.854 144.588 341.954 145.552H470.514C468.909 136.254 460.805 129.176 451.047 129.176Z" fill="white"/>
<path d="M109.236 88.6056C108.122 88.6056 107.04 88.6926 105.977 88.873C102.226 83.0825 96.0624 78.9962 88.9098 78.0322C82.8457 69.7725 73.0622 64.4111 62.0223 64.4111C52.5933 64.4111 44.0786 68.3233 38.0145 74.6114C35.1472 73.6597 32.0872 73.1435 28.9027 73.1435C12.9431 73.1435 0 86.0804 0 102.052C0 103.041 0.0497572 104.018 0.149271 104.982H128.709C127.105 95.6773 119 88.6056 109.236 88.6056Z" fill="white"/>
<path d="M427.171 197.075C427.171 304.842 341.216 392.149 235.252 392.149C129.288 392.149 43.332 304.842 43.332 197.075C43.332 89.3074 129.288 2 235.252 2C341.216 2 427.171 89.3074 427.171 197.075Z" stroke="#ADDE18" stroke-width="4"/>
<defs>
<linearGradient id="paint0_linear" x1="41.4824" y1="185.451" x2="425.738" y2="185.451" gradientUnits="userSpaceOnUse">
<stop stop-color="#B6FFFD"/>
<stop offset="0.2176" stop-color="#AFFCFA"/>
<stop offset="0.5386" stop-color="#9BF4F2"/>
<stop offset="0.922" stop-color="#7BE8E5"/>
<stop offset="1" stop-color="#73E5E2"/>
</linearGradient>
<linearGradient id="paint1_linear" x1="153.92" y1="301.737" x2="417.521" y2="301.737" gradientUnits="userSpaceOnUse">
<stop stop-color="#02AF60"/>
<stop offset="0.9413" stop-color="#00AE87"/>
</linearGradient>
<linearGradient id="paint2_linear" x1="153.92" y1="301.737" x2="417.521" y2="301.737" gradientUnits="userSpaceOnUse">
<stop stop-color="#02AF60"/>
<stop offset="0.9413" stop-color="#00AE87"/>
</linearGradient>
<linearGradient id="paint3_linear" x1="197.607" y1="359.764" x2="193.273" y2="247.81" gradientUnits="userSpaceOnUse">
<stop stop-color="#006D53"/>
<stop offset="1" stop-color="#00AE89"/>
</linearGradient>
<linearGradient id="paint4_linear" x1="264.178" y1="299.978" x2="281.512" y2="414.098" gradientUnits="userSpaceOnUse">
<stop stop-color="#00908B"/>
<stop offset="1" stop-color="#023330"/>
</linearGradient>
<linearGradient id="paint5_linear" x1="260.587" y1="253.01" x2="276.23" y2="253.01" gradientUnits="userSpaceOnUse">
<stop stop-color="#D8D8D8"/>
<stop offset="0.0385" stop-color="#DBDBDB"/>
<stop offset="0.359" stop-color="#EFEFEF"/>
<stop offset="0.6799" stop-color="#FBFBFB"/>
<stop offset="1" stop-color="white"/>
</linearGradient>
<linearGradient id="paint6_linear" x1="272.468" y1="177.354" x2="341.276" y2="177.354" gradientUnits="userSpaceOnUse">
<stop stop-color="#D8D8D8"/>
<stop offset="0.0385" stop-color="#DBDBDB"/>
<stop offset="0.359" stop-color="#EFEFEF"/>
<stop offset="0.6799" stop-color="#FBFBFB"/>
<stop offset="1" stop-color="white"/>
</linearGradient>
<linearGradient id="paint7_linear" x1="250.998" y1="132.805" x2="272.467" y2="132.805" gradientUnits="userSpaceOnUse">
<stop stop-color="#D8D8D8"/>
<stop offset="0.0385" stop-color="#DBDBDB"/>
<stop offset="0.359" stop-color="#EFEFEF"/>
<stop offset="0.6799" stop-color="#FBFBFB"/>
<stop offset="1" stop-color="white"/>
</linearGradient>
<linearGradient id="paint8_linear" x1="215.169" y1="195.545" x2="266.347" y2="195.545" gradientUnits="userSpaceOnUse">
<stop stop-color="#D8D8D8"/>
<stop offset="0.0385" stop-color="#DBDBDB"/>
<stop offset="0.359" stop-color="#EFEFEF"/>
<stop offset="0.6799" stop-color="#FBFBFB"/>
<stop offset="1" stop-color="white"/>
</linearGradient>
<linearGradient id="paint9_linear" x1="215.169" y1="195.545" x2="266.347" y2="195.545" gradientUnits="userSpaceOnUse">
<stop stop-color="#D8D8D8"/>
<stop offset="0.0385" stop-color="#DBDBDB"/>
<stop offset="0.359" stop-color="#EFEFEF"/>
<stop offset="0.6799" stop-color="#FBFBFB"/>
<stop offset="1" stop-color="white"/>
</linearGradient>
<linearGradient id="paint10_linear" x1="160.947" y1="187.463" x2="170.373" y2="187.463" gradientUnits="userSpaceOnUse">
<stop stop-color="#D8D8D8"/>
<stop offset="0.0385" stop-color="#DBDBDB"/>
<stop offset="0.359" stop-color="#EFEFEF"/>
<stop offset="0.6799" stop-color="#FBFBFB"/>
<stop offset="1" stop-color="white"/>
</linearGradient>
<linearGradient id="paint11_linear" x1="126.331" y1="148.896" x2="163.742" y2="148.896" gradientUnits="userSpaceOnUse">
<stop stop-color="#D8D8D8"/>
<stop offset="0.0385" stop-color="#DBDBDB"/>
<stop offset="0.359" stop-color="#EFEFEF"/>
<stop offset="0.6799" stop-color="#FBFBFB"/>
<stop offset="1" stop-color="white"/>
</linearGradient>
<linearGradient id="paint12_linear" x1="168.084" y1="144.908" x2="208.317" y2="144.908" gradientUnits="userSpaceOnUse">
<stop stop-color="#D8D8D8"/>
<stop offset="0.0385" stop-color="#DBDBDB"/>
<stop offset="0.359" stop-color="#EFEFEF"/>
<stop offset="0.6799" stop-color="#FBFBFB"/>
<stop offset="1" stop-color="white"/>
</linearGradient>
<linearGradient id="paint13_linear" x1="163.784" y1="114.894" x2="167.845" y2="114.894" gradientUnits="userSpaceOnUse">
<stop stop-color="#D8D8D8"/>
<stop offset="0.0385" stop-color="#DBDBDB"/>
<stop offset="0.359" stop-color="#EFEFEF"/>
<stop offset="0.6799" stop-color="#FBFBFB"/>
<stop offset="1" stop-color="white"/>
</linearGradient>
<radialGradient id="paint14_radial" cx="0" cy="0" r="1" gradientUnits="userSpaceOnUse" gradientTransform="translate(268.409 170.302) scale(4.65068)">
<stop stop-color="white"/>
<stop offset="0.3889" stop-color="#F8F9F9"/>
<stop offset="0.9477" stop-color="#E5E7E7"/>
<stop offset="1" stop-color="#E3E5E5"/>
</radialGradient>
<radialGradient id="paint15_radial" cx="0" cy="0" r="1" gradientUnits="userSpaceOnUse" gradientTransform="translate(165.661 137.628) scale(2.80226)">
<stop stop-color="white"/>
<stop offset="0.3889" stop-color="#F8F9F9"/>
<stop offset="0.9477" stop-color="#E5E7E7"/>
<stop offset="1" stop-color="#E3E5E5"/>
</radialGradient>
<linearGradient id="paint16_linear" x1="167.844" y1="237.392" x2="167.288" y2="285.847" gradientUnits="userSpaceOnUse">
<stop stop-color="#012D2D"/>
<stop offset="0.78125" stop-color="#012D2D" stop-opacity="0"/>
</linearGradient>
<linearGradient id="paint17_linear" x1="269.425" y1="335.718" x2="271.175" y2="374.652" gradientUnits="userSpaceOnUse">
<stop stop-color="#012D2D"/>
<stop offset="1" stop-color="#012D2D" stop-opacity="0"/>
</linearGradient>
</defs>
</svg>
