<svg width="300" height="300" viewBox="0 0 300 300" fill="none" xmlns="http://www.w3.org/2000/svg">
<path d="M152.357 16.2703C151.133 11.8414 149.548 7.80856 148.72 5C147.928 9.03281 146.703 13.0296 145.515 16.6663C112.528 19.871 86.3828 47.2365 85.9867 81.4073C85.9867 86.2323 86.3828 90.6612 87.2111 95.0901C85.9867 95.8822 84.4022 97.1065 83.1777 97.8986C110.115 114.786 132.227 116.406 145.515 113.166C161.613 85.8362 160.784 55.2661 156.787 34.3459C156.391 31.9334 155.563 29.5209 155.166 26.7124C184.913 28.3327 208.249 53.2497 207.852 83.0276C207.852 92.6776 205.44 101.535 201.01 109.169C201.01 109.169 199.786 111.581 198.201 113.598C184.913 107.549 174.469 110.393 162.009 114.39C145.119 119.611 125.024 125.66 91.6406 108.773C101.688 131.673 124.592 147.733 151.133 148.165C187.325 148.561 217.108 119.611 217.504 82.9916C217.9 46.3723 188.55 16.6663 152.357 16.2703ZM96.0341 88.2487C95.638 85.8362 95.638 83.8198 95.638 81.4073C96.0341 54.0778 115.733 31.5373 141.482 27.1084C130.642 53.6458 113.32 74.566 96.0341 88.2487ZM159.992 109.133C170.436 105.928 180.915 103.084 192.583 106.324C188.946 86.2323 180.915 62.5035 163.233 43.5997C166.042 68.9488 162.441 91.8494 152.357 111.545C155.166 110.357 157.579 109.961 159.992 109.133Z" fill="#15284B"/>
<path d="M73.1335 117.703C71.9091 118.099 70.3246 117.703 69.4963 115.686L68.704 113.67C68.704 113.67 68.704 113.67 68.704 113.274L73.5297 111.653C73.5297 111.653 73.9258 111.653 73.9258 112.049L74.7181 114.066C75.5463 115.722 74.3219 117.307 73.1335 117.703ZM79.5437 112.085L77.1309 106.036C77.1309 105.244 76.7348 105.244 75.9065 105.244L57.7923 111.689C57.3961 111.689 57.3961 111.689 57 112.085C57 112.482 57 112.878 57 112.878L57.7923 115.29C58.1884 116.082 58.5845 116.082 59.4128 116.082L63.4462 114.858C63.4462 114.858 63.8423 114.858 63.8423 115.254L64.6346 117.271C66.2552 121.699 70.6847 124.112 74.682 122.492C76.6987 121.699 78.3193 120.475 79.1116 118.855C79.9398 116.91 80.372 114.498 79.5437 112.085ZM192.983 151.765L181.711 158.211C181.315 158.607 180.918 159.435 181.315 159.831L182.539 161.847C182.935 162.244 183.763 162.64 184.159 162.244L187.365 160.623C187.365 160.623 187.365 160.623 187.761 160.623C187.761 160.623 187.761 160.623 188.157 160.623L195.395 173.91C195.791 174.306 196.62 174.702 197.016 174.306L199.429 173.082C199.825 173.082 199.825 172.686 199.825 172.29C199.825 171.893 199.825 171.497 199.825 171.497L192.586 158.211V157.815L195.791 156.194C196.188 155.798 196.584 154.97 196.188 154.574L194.963 152.558C194.567 151.369 193.775 151.369 192.983 151.765ZM91.6078 137.291L89.9873 138.911C89.5911 139.307 89.5911 140.135 89.9873 140.531L92.4001 142.944V143.34L81.9565 154.214C81.5604 154.61 81.5604 155.438 81.9565 155.834L83.9732 157.851C84.3694 158.247 85.1976 158.247 85.5938 157.851L96.0374 146.976C96.0374 146.976 96.0374 146.976 96.4335 146.976C96.4335 146.976 96.4335 146.976 96.8296 146.976L99.6386 149.785C100.035 150.181 100.035 150.181 100.431 150.181C100.827 150.181 101.223 150.181 101.223 149.785L102.844 148.165C103.24 147.769 103.24 147.769 103.24 147.373C103.24 146.976 103.24 146.58 102.844 146.58L93.1924 137.327C92.8323 136.894 92.04 136.894 91.6078 137.291ZM113.755 155.798L112.963 157.815C112.567 158.607 112.963 159.039 113.755 159.435L116.961 161.055C116.961 161.055 116.961 161.055 116.961 161.451L110.91 175.134C110.514 175.926 110.91 176.358 111.703 176.754L114.116 177.979C114.908 178.375 115.34 177.979 115.736 177.187L121.786 163.504C121.786 163.504 121.786 163.504 122.182 163.504L125.82 165.124C126.216 165.124 126.612 165.124 126.612 165.124C127.008 165.124 127.008 164.728 127.404 164.332L128.196 162.316C128.196 161.919 128.196 161.523 128.196 161.523C128.196 161.127 127.8 161.127 127.404 160.731L115.34 155.51C114.944 154.97 114.152 154.97 113.755 155.798ZM223.953 132.466L220.748 137.291C220.748 137.291 220.748 137.291 220.352 137.291C220.352 137.291 220.352 137.291 219.956 137.291L219.163 136.498C217.939 135.706 217.147 133.69 218.371 132.069C219.596 130.449 221.576 130.449 222.801 131.277L223.593 132.069C223.953 132.069 223.953 132.069 223.953 132.466ZM236.81 134.878C236.81 134.482 236.413 134.482 236.413 134.086L225.538 126.848C223.917 125.624 221.9 125.228 219.92 125.624C217.939 126.02 215.886 127.245 214.698 129.261C213.474 130.881 213.077 132.466 213.077 134.086C213.077 134.482 213.077 134.878 213.077 135.706C213.474 137.723 214.698 139.343 216.282 140.531L227.158 147.769C227.554 147.769 227.554 148.165 227.95 147.769C228.347 147.769 228.347 147.373 228.743 147.373L230.363 144.96C230.759 144.564 230.759 143.736 229.967 143.34L225.142 140.135V139.739L228.347 134.914H228.743L233.568 138.119C233.965 138.119 233.965 138.515 234.361 138.119C234.757 138.119 234.757 137.723 235.153 137.723L236.774 135.31C236.81 135.274 236.81 134.878 236.81 134.878ZM174.868 169.481L169.25 171.101C169.25 171.101 169.25 171.101 168.854 171.101C168.854 171.101 168.854 171.101 168.854 170.705L168.458 169.481C168.062 167.861 168.854 165.844 170.871 165.448C172.888 165.052 174.508 166.24 174.904 167.861L175.3 169.085L174.868 169.481ZM182.899 179.131L179.694 166.672C179.298 164.656 178.073 163.036 176.057 161.847C174.04 160.623 172.023 160.623 169.611 161.055C167.198 161.451 165.577 163.072 164.389 164.692C163.2 166.312 163.164 168.725 163.596 170.309L166.802 182.768C166.802 183.56 167.594 183.992 168.422 183.56L171.231 182.768C171.627 182.768 171.627 182.372 172.023 182.372C172.023 181.975 172.419 181.579 172.023 181.579L170.403 175.962C170.403 175.962 170.403 175.566 170.799 175.566L176.417 173.946C176.417 173.946 176.813 173.946 176.813 174.342L178.434 179.959C178.434 180.751 179.226 181.183 180.054 180.751L182.863 179.959C182.899 180.319 182.899 179.923 182.899 179.131ZM153.369 180.211C152.973 180.607 152.577 181.003 151.748 181.003H148.111C148.111 181.003 148.111 181.003 147.715 181.003C147.715 181.003 147.715 181.003 147.715 180.607V176.97C147.715 176.97 147.715 176.574 148.111 176.574H151.748C153.369 176.574 153.765 177.799 153.765 178.591C153.765 179.419 153.765 179.815 153.369 180.211ZM147.751 168.545C148.147 168.149 148.147 168.149 147.751 168.545L150.956 168.149C152.181 168.149 152.973 169.373 152.973 170.165C152.973 170.561 152.973 171.785 150.956 171.785H148.543C148.543 171.785 148.543 171.785 148.147 171.785C148.147 171.785 148.147 171.785 148.147 171.389L147.751 168.545ZM155.782 173.766C157.006 172.542 157.402 171.353 157.402 169.733C157.402 166.528 154.593 163.684 151.352 163.684H144.114C143.718 163.684 142.889 164.476 142.889 164.908V183.812C142.889 184.208 142.889 184.604 143.286 184.604C143.682 185 143.682 185 144.078 185H152.109C156.142 185 158.951 182.588 158.951 178.951C159.419 176.97 158.195 174.99 155.782 173.766ZM225.934 105.136L225.142 107.945C224.745 108.737 225.142 109.169 225.934 109.565L237.998 113.598C239.618 113.994 240.411 115.614 240.015 117.631C239.618 118.423 239.222 119.251 238.394 119.647C237.602 120.043 236.773 120.043 235.981 119.647L223.917 115.614C223.521 115.614 223.125 115.614 223.125 115.614C222.729 115.614 222.729 116.01 222.333 116.406L221.54 119.215C221.54 119.611 221.54 120.007 221.54 120.007C221.54 120.403 221.936 120.403 222.333 120.799L234.397 124.832C236.413 125.624 238.43 125.228 240.015 124.436C242.031 123.644 243.652 121.627 244.444 119.215C246.065 114.786 244.048 110.357 239.618 108.773L227.554 104.74C226.762 103.912 225.934 104.308 225.934 105.136ZM106.913 149.749C106.517 149.749 106.517 150.145 106.121 150.145L95.6772 165.844C95.6772 166.24 95.2811 166.24 95.6772 166.636C95.6772 167.032 96.0734 167.032 96.0734 167.429L98.4862 169.049C98.8823 169.049 98.8823 169.445 99.2785 169.049C99.6746 169.049 99.6746 168.653 100.071 168.653L110.514 152.954C110.91 152.558 110.91 151.729 110.118 151.333L107.705 149.713C107.705 149.749 107.309 149.749 106.913 149.749ZM207.063 140.099L198.6 147.733C198.204 148.129 198.204 148.957 198.6 149.353L211.457 163.432C211.853 163.828 212.681 163.828 213.077 163.432L221.54 155.798C221.936 155.402 221.936 154.574 221.54 154.178L219.92 152.558C219.524 152.162 219.524 152.162 219.127 152.162C218.731 152.162 218.335 152.162 218.335 152.558L212.285 157.779H211.889L209.872 154.97V154.574L213.906 150.937C214.302 150.541 214.302 149.713 213.906 149.317L212.285 147.697C211.889 147.301 211.061 147.301 210.665 147.697L206.631 151.333C206.631 151.333 206.631 151.333 206.235 151.333C206.235 151.333 206.235 151.333 205.839 151.333L204.218 149.317C204.218 149.317 204.218 149.317 204.218 148.921C204.218 148.921 204.218 148.921 204.218 148.525L209.836 143.304C210.232 142.908 210.232 142.908 210.232 142.512C210.232 142.115 210.232 141.719 209.836 141.719L208.216 140.099C207.82 139.703 207.82 139.703 207.423 139.703C207.459 139.703 207.063 140.099 207.063 140.099ZM82.3887 123.212L66.2912 133.258C65.895 133.654 65.4989 134.482 65.895 134.878L71.9451 144.528C71.9451 144.924 72.3412 144.924 72.7374 144.924C73.1335 144.924 73.5297 144.924 73.5297 144.924L75.5463 143.7C75.9425 143.7 75.9425 143.304 75.9425 142.908C75.9425 142.512 75.9425 142.116 75.9425 142.116L71.9091 135.67V135.274L75.1142 133.654C75.1142 133.654 75.1142 133.654 75.5103 133.654C75.5103 133.654 75.5103 133.654 75.9065 133.654L78.7154 138.479C79.1116 138.875 79.9398 139.271 80.336 138.875L81.9565 137.651C82.3527 137.255 82.7488 136.426 82.3527 136.03L79.5437 131.205C79.5437 131.205 79.5437 131.205 79.5437 130.809C79.5437 130.809 79.5437 130.809 79.5437 130.413L81.5604 129.189C81.5604 129.189 81.5604 129.189 81.9565 129.189C81.9565 129.189 81.9565 129.189 82.3527 129.189L86.3861 135.634C86.3861 136.03 86.7822 136.03 87.1783 136.03C87.5745 136.03 87.9706 136.03 87.9706 136.03L89.9873 134.806C90.3834 134.41 90.7796 133.582 90.3834 133.186L84.3333 123.536C83.5771 123.212 83.181 122.816 82.3887 123.212ZM230.759 101.499C228.743 101.103 227.554 99.483 227.95 97.8626C228.347 95.8462 229.967 94.658 231.588 95.0541C233.604 95.4502 234.793 97.0705 234.397 98.6908C234.001 100.707 232.38 101.895 230.759 101.499ZM230.759 102.292C233.172 102.688 235.189 101.067 235.585 98.6548C235.981 96.2423 234.361 94.2259 231.948 93.8298C229.535 93.4338 227.518 95.0541 227.122 97.4666C226.762 99.879 228.347 102.292 230.759 102.292ZM230.759 97.8986C230.759 97.8986 230.759 98.2947 230.759 98.6908C230.363 98.6908 230.363 98.6908 229.967 98.6908C229.967 98.2947 229.967 97.8986 229.967 97.8986C229.967 97.5026 230.363 97.5026 230.363 97.5026C230.363 97.5026 230.759 97.4666 230.759 97.8986ZM233.172 96.6744C233.172 96.6744 231.948 97.0705 231.552 97.0705C231.552 96.6744 231.156 96.2783 230.327 96.2783C229.499 96.2783 229.103 96.6744 228.707 97.5026V99.1229C228.707 99.1229 228.707 99.519 229.103 99.519L232.74 99.915C232.74 99.915 233.136 99.915 233.136 99.519V99.1229C233.136 99.1229 233.136 98.7268 232.74 98.7268C232.74 98.7268 231.948 98.7268 231.516 98.7268C231.516 98.3307 231.516 98.3307 231.516 98.3307C231.912 98.3307 233.136 97.9347 233.136 97.9347C233.136 97.9347 233.136 97.9346 233.532 97.5386V97.1425C233.604 97.0705 233.604 97.0705 233.172 96.6744Z" fill="#15284B"/>
<path fill-rule="evenodd" clip-rule="evenodd" d="M170.957 219.766C169.941 218.745 168.294 218.745 167.277 219.766L150.96 236.163L134.719 219.845C133.703 218.824 132.055 218.824 131.039 219.845C130.023 220.867 130.023 222.522 131.039 223.543L147.28 239.861L130.762 256.46C129.746 257.481 129.746 259.137 130.762 260.158C131.778 261.179 133.426 261.179 134.442 260.158L150.96 243.559L167.558 260.234C168.574 261.255 170.222 261.255 171.238 260.234C172.254 259.213 172.254 257.558 171.238 256.537L154.64 239.861L170.957 223.464C171.973 222.443 171.973 220.787 170.957 219.766Z" fill="black"/>
<path d="M288.689 232.165C288.689 232.165 289.445 236.847 288.595 243.207C288.481 241.266 288.132 239.297 287.509 237.356C283.552 225.014 270.311 218.202 257.94 222.15C254.144 223.365 250.867 225.447 248.27 228.114C250.725 224.788 258.932 219.578 263.436 210.486C267.866 201.545 264.475 193 264.475 193C264.475 193 284.43 202.676 288.689 232.165Z" fill="#B1E03F"/>
<path d="M286.332 246.881C286.332 253.608 283.348 259.647 278.626 263.736C278.616 263.745 278.607 263.755 278.597 263.764C278.031 264.254 277.436 264.725 276.813 265.159C275.906 265.79 274.962 266.355 273.97 266.855C273.97 266.855 273.97 266.855 273.97 266.864C270.957 268.371 267.558 269.219 263.95 269.219C262.779 269.219 261.636 269.135 260.522 268.956C260.512 268.956 260.503 268.956 260.494 268.956C260.002 268.852 259.511 268.767 259.039 268.682C259.039 268.682 259.03 268.682 259.02 268.682C258.104 268.532 257.226 268.409 256.357 268.324C244.373 267.128 236.874 272.036 236.468 272.31C235.798 272.62 235.165 272.884 234.504 273.092C233.645 273.374 232.766 273.581 231.794 273.751C230.698 273.939 229.565 274.043 228.413 274.043C222.775 274.043 217.212 271.49 213.558 267.203C212.509 265.978 211.631 264.612 210.923 263.171C210.819 262.963 210.734 262.756 210.639 262.549C206.579 253.382 210.328 242.34 219.139 237.441C219.262 237.375 219.384 237.309 219.507 237.243C222.803 235.538 226.571 234.822 230.254 235.17C230.292 235.17 230.339 235.18 230.387 235.189C232.294 235.415 239.897 235.933 247.631 231.081C248.311 230.657 248.982 230.196 249.661 229.687C249.661 229.687 249.661 229.678 249.671 229.678C253.543 226.474 258.52 224.543 263.95 224.543C267.576 224.543 270.995 225.4 274.027 226.927C274.178 227.002 274.329 227.077 274.48 227.162C277.417 228.726 279.967 230.921 281.941 233.578C282.649 234.52 283.282 235.528 283.829 236.593C283.933 236.791 284.028 236.989 284.132 237.196C285.539 240.126 286.332 243.405 286.332 246.881Z" fill="#AAAAAA"/>
<path d="M261.72 271C251.02 276.031 249.82 277.312 249.424 278C249.424 277.925 249.424 277.821 249.424 277.689C249.424 276.728 249.471 274.222 249.924 270.642C252.172 270.444 254.656 270.435 257.347 270.727H257.357C257.357 270.727 257.366 270.727 257.376 270.727C257.376 270.727 257.385 270.727 257.394 270.727C257.546 270.755 257.687 270.774 257.838 270.793C258.169 270.84 258.509 270.877 258.849 270.915C258.858 270.915 258.868 270.915 258.877 270.915C259.803 271 260.756 271.028 261.72 271Z" fill="#B1E03F"/>
<path d="M228.677 232.551C225.721 232.212 222.689 232.551 219.894 233.55C219.289 233.766 218.704 234.002 218.128 234.275C216.721 234.935 215.399 235.764 214.19 236.744C214.058 236.847 213.916 236.96 213.784 237.083C212.886 237.846 212.065 238.684 211.328 239.589C210.96 240.041 210.601 240.512 210.271 240.993C210.063 241.294 209.439 242.001 209.383 242.387C210.318 230.299 209.638 221.33 209.638 221.33C209.638 221.33 209.761 221.434 210.006 221.622C210.223 221.792 210.535 222.037 210.922 222.329C210.998 222.385 211.083 222.451 211.168 222.517C211.319 222.63 211.479 222.753 211.659 222.885C211.706 222.913 211.744 222.951 211.791 222.988C211.885 223.054 211.98 223.13 212.074 223.205C212.122 223.243 212.169 223.28 212.225 223.318C212.235 223.318 212.235 223.327 212.244 223.337C212.329 223.393 212.405 223.459 212.49 223.516C212.556 223.563 212.632 223.61 212.698 223.667C212.745 223.704 212.801 223.742 212.858 223.78C213.255 224.062 213.68 224.373 214.124 224.675C214.19 224.722 214.256 224.769 214.322 224.807C214.473 224.91 214.615 225.014 214.775 225.117C215.021 225.287 215.266 225.457 215.521 225.626C215.672 225.73 215.833 225.834 215.994 225.937C216.352 226.173 216.73 226.418 217.108 226.653C217.155 226.681 217.202 226.71 217.25 226.747C217.637 226.992 218.043 227.247 218.439 227.482C218.506 227.529 218.581 227.567 218.647 227.605C219.025 227.831 219.412 228.057 219.799 228.283C220.073 228.434 220.347 228.594 220.63 228.745C220.744 228.811 220.857 228.867 220.97 228.933C221.509 229.225 222.056 229.508 222.595 229.772C222.869 229.904 223.152 230.035 223.435 230.158C223.558 230.214 223.69 230.271 223.813 230.328C223.964 230.393 224.106 230.459 224.247 230.516C224.342 230.554 224.446 230.601 224.54 230.638C225.22 230.931 225.891 231.232 226.571 231.543C227.288 231.863 227.987 232.202 228.677 232.551Z" fill="#44EACA"/>
<path d="M244.456 271.198C244.078 272.724 243.729 274.297 243.417 275.918C243.408 275.984 243.389 276.04 243.379 276.106C243.379 276.106 242.775 274.533 242.066 271.876C242.558 271.716 243.087 271.556 243.644 271.405C243.899 271.339 244.173 271.263 244.456 271.198Z" fill="#B1E03F"/>
<path d="M226.37 265.884C232.681 265.884 237.798 260.78 237.798 254.484C237.798 248.188 232.681 243.084 226.37 243.084C220.059 243.084 214.943 248.188 214.943 254.484C214.943 260.78 220.059 265.884 226.37 265.884Z" fill="#494949"/>
<path d="M265.327 258.356C271.638 258.356 276.755 253.252 276.755 246.956C276.755 240.66 271.638 235.556 265.327 235.556C259.016 235.556 253.9 240.66 253.9 246.956C253.9 253.252 259.016 258.356 265.327 258.356Z" fill="#494949"/>
<path d="M263.986 243.828C265.285 243.828 266.338 242.778 266.338 241.482C266.338 240.187 265.285 239.136 263.986 239.136C262.688 239.136 261.635 240.187 261.635 241.482C261.635 242.778 262.688 243.828 263.986 243.828Z" fill="#FEC841"/>
<path d="M265.989 242.726C265.299 243.819 263.863 244.159 262.768 243.49C263.901 243.725 265.195 242.595 265.554 242.152C265.922 241.7 266.206 241.172 266.187 240.625C266.442 241.294 266.395 242.076 265.989 242.726Z" fill="#CC9E37"/>
<path d="M266.584 255.05C267.883 255.05 268.935 253.999 268.935 252.704C268.935 251.408 267.883 250.358 266.584 250.358C265.285 250.358 264.232 251.408 264.232 252.704C264.232 253.999 265.285 255.05 266.584 255.05Z" fill="#A8D04C"/>
<path d="M268.452 254.145C267.715 255.087 266.411 255.322 265.41 254.738C266.61 254.813 267.441 254.597 268.13 253.702C268.508 253.212 268.631 252.901 268.848 252.053C269.047 252.75 268.924 253.532 268.452 254.145Z" fill="#85B23D"/>
<path d="M259.658 250.734C260.957 250.734 262.01 249.684 262.01 248.388C262.01 247.093 260.957 246.042 259.658 246.042C258.359 246.042 257.307 247.093 257.307 248.388C257.307 249.684 258.359 250.734 259.658 250.734Z" fill="#689FD8"/>
<path d="M261.661 249.632C260.971 250.735 259.517 251.064 258.412 250.377C258.261 250.282 258.119 250.169 257.996 250.047C259.205 250.433 260.565 249.971 261.274 248.85C261.595 248.342 261.727 247.767 261.699 247.211C262.124 247.946 262.133 248.869 261.661 249.632Z" fill="#5A8BB7"/>
<path d="M270.906 248.143C272.205 248.143 273.258 247.093 273.258 245.797C273.258 244.502 272.205 243.451 270.906 243.451C269.608 243.451 268.555 244.502 268.555 245.797C268.555 247.093 269.608 248.143 270.906 248.143Z" fill="#F14434"/>
<path d="M272.915 247.06C272.225 248.163 270.771 248.492 269.666 247.804C269.647 247.795 269.619 247.776 269.6 247.757C270.705 247.955 271.876 247.484 272.509 246.467C272.887 245.873 273.009 245.185 272.906 244.545C273.368 245.289 273.406 246.269 272.915 247.06Z" fill="#CC362F"/>
<path d="M232.899 254.767C232.597 255.238 232.106 255.587 231.511 255.709L229.292 256.161C229.273 256.161 229.254 256.171 229.226 256.171L228.791 256.256C228.782 256.256 228.772 256.256 228.772 256.256L228.99 257.311L229.339 258.997C229.585 260.184 228.82 261.343 227.63 261.579C226.817 261.748 226.015 261.437 225.514 260.853C225.288 260.58 225.118 260.25 225.042 259.883L224.485 257.188L224.475 257.151L221.727 257.716C220.537 257.961 219.376 257.198 219.14 256.011C218.894 254.823 219.659 253.665 220.849 253.429L223.597 252.864L223.03 250.122C222.785 248.935 223.55 247.776 224.74 247.541C225.335 247.418 225.92 247.55 226.383 247.861C226.855 248.172 227.205 248.662 227.327 249.246L227.894 251.988H227.922L230.642 251.432C230.944 251.375 231.247 251.375 231.53 251.432C232.361 251.601 233.05 252.251 233.23 253.137C233.343 253.712 233.211 254.296 232.899 254.767Z" fill="#A8A8A8"/>
<path d="M246.091 252.562C246.873 252.562 247.507 251.93 247.507 251.149C247.507 250.369 246.873 249.736 246.091 249.736C245.308 249.736 244.674 250.369 244.674 251.149C244.674 251.93 245.308 252.562 246.091 252.562Z" fill="url(#paint0_radial_3191_106)"/>
<path d="M238.035 277.991C237.818 277.981 237.6 277.962 237.383 277.944C234.163 277.67 231.32 277.001 228.855 276.144C229.857 276.125 231.934 275.607 232.888 275.447C233.105 275.409 234.578 274.976 234.777 274.9C237.176 273.883 238.403 273.28 238.781 273.176C239.489 274.542 238.035 277.991 238.035 277.991Z" fill="#44EACA"/>
<path d="M288.69 232.165C288.69 232.165 289.446 236.847 288.596 243.207C288.483 241.266 288.133 239.297 287.51 237.356C286.103 232.975 283.525 229.291 280.238 226.531C278.671 210.081 269.935 198.596 264.816 193.179C267.48 194.63 284.762 204.965 288.69 232.165Z" fill="url(#paint1_linear_3191_106)"/>
<path d="M261.719 271C255.77 273.798 252.757 275.437 251.189 276.455C253.144 274.326 255.94 272.498 257.828 270.793C258.159 270.84 258.499 270.878 258.839 270.915C258.848 270.915 258.858 270.915 258.867 270.915C259.802 271 260.756 271.028 261.719 271Z" fill="#B1E03F"/>
<path d="M261.719 271C255.77 273.798 252.757 275.437 251.189 276.455C253.144 274.326 255.94 272.498 257.828 270.793C258.159 270.84 258.499 270.878 258.839 270.915C258.848 270.915 258.858 270.915 258.867 270.915C259.802 271 260.756 271.028 261.719 271Z" fill="url(#paint2_linear_3191_106)"/>
<path d="M271.898 219.013C265.901 217.505 260.244 218.787 256.127 220.416C256.901 219.625 257.676 218.796 258.441 217.901C267.715 216.563 271.898 219.013 271.898 219.013Z" fill="url(#paint3_linear_3191_106)"/>
<path d="M261.141 214.386C268.243 214.452 271.709 216.111 271.709 216.111C267.186 215.14 263.077 215.479 259.791 216.233C260.254 215.64 260.707 215.027 261.141 214.386Z" fill="url(#paint4_linear_3191_106)"/>
<path d="M263.635 210.053C268.177 210.967 271.029 212.38 271.029 212.38C267.988 211.946 265.127 211.928 262.549 212.144C262.86 211.607 263.153 211.051 263.437 210.486C263.503 210.345 263.569 210.203 263.635 210.053Z" fill="url(#paint5_linear_3191_106)"/>
<path d="M271.767 221.933C271.691 221.933 271.616 221.924 271.531 221.924C267.224 220.699 262.521 220.69 257.941 222.15C254.74 223.177 251.906 224.816 249.536 226.908C249.404 226.964 249.281 227.011 249.158 227.068C250.518 225.626 252.596 223.874 254.853 221.688C264.552 218.636 271.767 221.933 271.767 221.933Z" fill="url(#paint6_linear_3191_106)"/>
<path d="M268.847 204.41C267.761 204.089 266.618 203.92 265.484 203.854C265.55 203.42 265.598 202.987 265.626 202.563C267.78 203.552 268.847 204.41 268.847 204.41Z" fill="url(#paint7_linear_3191_106)"/>
<path d="M270.134 209.026C268.198 208.526 266.244 208.3 264.393 208.234C264.619 207.622 264.808 207.009 264.969 206.416C268.501 207.612 270.068 208.96 270.134 209.026Z" fill="url(#paint8_linear_3191_106)"/>
<path d="M267.442 199.887C266.856 199.708 266.271 199.557 265.685 199.416C265.675 199.294 265.675 199.171 265.666 199.049C266.724 199.52 267.366 199.849 267.442 199.887Z" fill="url(#paint9_linear_3191_106)"/>
<path d="M214.19 236.744C214.058 236.857 213.916 236.97 213.784 237.083C212.886 237.846 212.065 238.685 211.328 239.589C210.96 240.041 210.601 240.512 210.271 241.002C210.063 241.313 209.383 242.067 209.383 242.444C210.327 230.337 209.638 221.34 209.638 221.34C209.638 221.34 210.176 228.095 214.19 236.744Z" fill="url(#paint10_linear_3191_106)"/>
<path d="M237.383 277.943C234.163 277.67 231.32 277.001 228.855 276.144C229.857 276.125 230.697 275.899 231.651 275.71C231.868 275.663 232.236 275.579 232.435 275.531C233.71 276.2 235.457 277.256 237.383 277.943Z" fill="url(#paint11_linear_3191_106)"/>
<path d="M227.626 261.588C226.813 261.758 226.01 261.447 225.51 260.863C226.794 261.098 229.562 261.173 228.986 257.32L229.335 259.007C229.571 260.194 228.806 261.352 227.626 261.588Z" fill="#8C8C8C"/>
<path d="M232.897 254.767C232.595 255.238 232.104 255.586 231.509 255.709L229.289 256.161C230.696 255.822 234.286 254.597 231.509 251.422C232.34 251.592 233.029 252.242 233.209 253.127C233.341 253.712 233.209 254.296 232.897 254.767Z" fill="#8C8C8C"/>
<path d="M286.34 246.881C286.34 253.608 283.356 259.647 278.634 263.736C278.624 263.745 278.615 263.755 278.606 263.764C278.039 264.254 277.444 264.725 276.821 265.158C275.914 265.79 274.97 266.355 273.978 266.854C273.978 266.854 273.978 266.854 273.978 266.864C270.965 268.371 267.566 269.219 263.958 269.219C262.787 269.219 261.644 269.134 260.53 268.955C260.521 268.955 260.511 268.955 260.502 268.955C260.011 268.852 259.519 268.767 259.047 268.682C259.047 268.682 259.038 268.682 259.028 268.682C258.112 268.531 257.234 268.409 256.365 268.324C256.365 268.324 262.655 268.842 271.145 265.083C279.616 261.305 282.685 253.071 282.685 253.071C282.685 253.071 285.509 247.192 284.338 238.731C284.253 238.147 284.187 237.639 284.13 237.186C285.547 240.126 286.34 243.404 286.34 246.881Z" fill="#969696"/>
<path d="M237.797 254.474C237.797 260.768 232.678 265.874 226.37 265.874C224.915 265.874 223.537 265.601 222.262 265.111C222.819 265.186 223.386 265.224 223.952 265.224C231.233 265.224 237.145 259.336 237.145 252.062C237.145 251.488 237.107 250.922 237.032 250.376C237.523 251.648 237.797 253.033 237.797 254.474Z" fill="#3A3A3A"/>
<path d="M276.142 243.272C278.182 249.236 274.99 255.709 269.021 257.744C267.652 258.215 266.245 258.403 264.885 258.347C265.433 258.234 265.98 258.092 266.528 257.904C273.422 255.558 277.096 248.077 274.744 241.2C274.555 240.653 274.338 240.135 274.093 239.636C274.971 240.691 275.679 241.906 276.142 243.272Z" fill="#3A3A3A"/>
<path d="M286.33 246.881C286.33 253.608 283.346 259.647 278.624 263.736C278.614 263.746 278.605 263.755 278.595 263.764C278.029 264.254 277.434 264.725 276.811 265.159C275.904 265.79 274.96 266.355 273.968 266.855C273.968 266.855 273.968 266.855 273.968 266.864C270.955 268.371 267.556 269.219 263.948 269.219C262.777 269.219 261.634 269.135 260.52 268.956C260.511 268.956 260.501 268.956 260.492 268.956C260.001 268.852 259.509 268.767 259.037 268.682C259.037 268.682 259.028 268.682 259.018 268.682C258.102 268.532 257.224 268.409 256.355 268.324C244.371 267.128 236.873 272.036 236.466 272.31C235.796 272.621 235.163 272.884 234.502 273.092C233.643 273.374 232.764 273.582 231.792 273.751C230.696 273.94 229.563 274.043 228.411 274.043C222.773 274.043 217.21 271.49 213.556 267.203C212.507 265.978 211.629 264.612 210.921 263.171C210.817 262.964 210.732 262.756 210.637 262.549C209.353 259.638 208.843 256.548 209.041 253.523C209.183 255.728 209.703 257.933 210.637 260.043C210.722 260.25 210.817 260.457 210.921 260.665C211.629 262.116 212.507 263.472 213.556 264.697C217.21 268.984 222.773 271.537 228.411 271.537C229.563 271.537 230.696 271.443 231.792 271.245C232.764 271.075 233.643 270.868 234.502 270.586C235.163 270.378 235.796 270.114 236.466 269.804C236.873 269.53 244.371 264.622 256.355 265.818C257.224 265.903 258.102 266.026 259.018 266.176C259.018 266.176 259.028 266.176 259.037 266.176C259.519 266.261 260.001 266.346 260.492 266.45C260.501 266.45 260.511 266.45 260.52 266.45C261.644 266.619 262.786 266.713 263.948 266.713C267.546 266.713 270.946 265.865 273.968 264.358C273.968 264.358 273.968 264.358 273.968 264.349C274.96 263.859 275.913 263.284 276.811 262.653C277.424 262.219 278.019 261.758 278.595 261.258C278.605 261.249 278.614 261.239 278.624 261.23C283.044 257.396 285.943 251.846 286.292 245.628C286.321 246.043 286.33 246.457 286.33 246.881Z" fill="#969696"/>
<path d="M243.417 275.918C243.408 275.984 243.389 276.04 243.379 276.106C243.379 276.106 242.775 274.533 242.066 271.876C242.558 271.716 243.087 271.556 243.644 271.405C243.521 272.338 243.332 274.166 243.417 275.918Z" fill="#A0C13A"/>
<path d="M217.153 231.024C216.691 231.477 216.521 231.769 216.492 231.816C216.596 231.505 216.823 231.241 217.153 231.024Z" fill="url(#paint12_linear_3191_106)"/>
<path d="M210.932 222.329C211.007 222.385 211.092 222.451 211.177 222.517C210.979 222.621 210.78 222.734 210.582 222.856C210.582 222.856 210.639 222.649 210.932 222.329Z" fill="url(#paint13_linear_3191_106)"/>
<path d="M212.716 223.658C212.244 223.846 211.781 224.072 211.365 224.336C211.365 224.336 211.582 223.874 212.253 223.328C212.338 223.384 212.414 223.45 212.499 223.507C212.574 223.554 212.64 223.601 212.716 223.658Z" fill="url(#paint14_linear_3191_106)"/>
<path d="M214.782 225.108C213.903 225.419 213.101 225.815 212.496 226.343C212.496 226.343 212.77 225.551 214.14 224.666C214.206 224.713 214.272 224.76 214.338 224.797C214.48 224.901 214.621 225.005 214.782 225.108Z" fill="url(#paint15_linear_3191_106)"/>
<path d="M217.246 226.729C215.857 227.125 214.573 227.69 213.723 228.481C213.723 228.481 213.742 227.219 215.99 225.919C216.349 226.154 216.726 226.399 217.104 226.635C217.151 226.672 217.199 226.701 217.246 226.729Z" fill="url(#paint16_linear_3191_106)"/>
<path d="M219.808 228.274C218.335 228.698 216.711 229.395 215.096 230.506C215.096 230.506 215.54 228.905 218.439 227.463C218.505 227.51 218.58 227.548 218.647 227.586C219.034 227.821 219.421 228.048 219.808 228.274Z" fill="url(#paint17_linear_3191_106)"/>
<path d="M223.444 230.139C221.008 230.459 218.118 231.119 216.418 232.485C216.418 232.485 216.767 230.544 220.979 228.914C221.518 229.206 222.065 229.489 222.604 229.753C222.878 229.884 223.161 230.016 223.444 230.139Z" fill="url(#paint18_linear_3191_106)"/>
<path d="M228.674 232.551C225.718 232.212 222.686 232.551 219.891 233.55C219.286 233.766 218.701 234.002 218.125 234.275C218.03 234.294 217.926 234.304 217.832 234.322C217.832 234.322 218.569 232.353 224.547 230.629C225.227 230.921 225.897 231.223 226.577 231.534C227.285 231.863 227.984 232.203 228.674 232.551Z" fill="url(#paint19_linear_3191_106)"/>
<path fill-rule="evenodd" clip-rule="evenodd" d="M12 240C12 264.878 32.122 285 57 285C72.2439 285 85.6585 277.439 93.8293 265.976C98.9512 258.659 102 249.634 102 240C102 230.244 98.9512 221.341 93.7073 213.902C85.6585 202.561 72.2439 195 57 195C32.2439 195 12 215.244 12 240Z" fill="#113658"/>
<path d="M68.4617 243.414C68.4617 240.61 67.73 238.049 66.3886 235.975C63.4617 230.732 57.73 224.268 56.8764 220C56.8764 219.878 56.8764 219.756 56.8764 219.878C56.8764 219.878 56.8764 219.878 56.8764 220C56.8764 220 56.8764 220 56.8764 219.878C56.8764 219.878 56.8764 219.878 56.8764 220C55.7788 225 48.3398 232.927 46.1447 238.293C46.0227 238.414 46.0227 238.658 46.0227 238.902C45.5349 240.366 45.291 241.829 45.291 243.414C45.291 243.658 45.291 243.78 45.291 244.024C45.291 244.268 45.291 244.268 45.291 244.268C45.7788 251.097 50.7788 256.341 56.8764 256.341C62.9739 256.341 67.9739 251.097 68.4617 244.268C68.4617 244.268 68.4617 244.39 68.4617 244.268C68.4617 244.024 68.4617 243.78 68.4617 243.414ZM60.6569 252.317C59.3154 252.439 57.73 251.951 57.3642 250.488C56.9983 248.78 58.4617 247.195 59.8032 246.463C59.8032 246.463 59.8032 246.463 59.9252 246.463C62.1203 245.244 62.1203 241.219 62.1203 239.024C62.1203 237.683 62.2422 235.854 61.5105 234.634C61.8764 235.122 62.2422 235.732 62.4861 236.341C63.3398 237.927 64.0715 239.512 64.6813 241.219C65.0471 242.317 65.413 243.414 65.5349 244.512C65.7788 247.805 64.3154 251.829 60.6569 252.317Z" fill="#10A0B5"/>
<path fill-rule="evenodd" clip-rule="evenodd" d="M76.5118 231.829C79.3167 233.293 82.2435 234.756 85.0484 236.22C85.7801 235.122 86.7557 234.146 87.3655 233.049C85.1703 231.951 82.6094 230.854 80.6582 229.512C82.9752 228.171 85.4143 226.951 87.7313 225.61L85.6582 221.829C83.3411 223.171 81.024 224.634 78.585 225.976C78.7069 223.415 79.0728 220.854 79.0728 218.293C77.8533 218.415 76.5118 218.537 75.1703 218.659C74.9264 221.951 74.8045 225.122 74.4386 228.293L67.6094 231.951C68.463 233.049 69.0728 234.268 69.6825 235.366L76.5118 231.829Z" fill="white"/>
<path fill-rule="evenodd" clip-rule="evenodd" d="M44.4394 235.488C45.0492 234.39 45.6589 233.293 46.5126 232.073L39.6833 228.415C39.3175 225.244 39.0736 221.951 38.9516 218.78C37.6101 218.658 36.3906 218.537 35.0492 218.415C35.1711 220.976 35.415 223.537 35.537 226.097C33.2199 224.756 30.9028 223.293 28.4638 221.951L26.3906 225.732C28.7077 227.073 31.1467 228.293 33.4638 229.634C31.5126 230.854 28.9516 231.951 26.7565 233.171C27.3662 234.268 28.2199 235.244 29.0736 236.341C31.8784 234.878 34.8053 233.415 37.6101 231.951L44.4394 235.488Z" fill="white"/>
<path fill-rule="evenodd" clip-rule="evenodd" d="M37.6101 248.171C34.8053 246.707 31.8784 245.244 29.0736 243.781C28.3418 244.878 27.3662 245.854 26.7565 246.951C28.9516 248.049 31.3906 249.146 33.4638 250.488C31.1467 251.829 28.7077 253.049 26.3906 254.39L28.4638 258.171C30.7809 256.829 33.0979 255.366 35.537 254.024C35.415 256.585 35.0492 259.146 35.0492 261.707C36.2687 261.585 37.6101 261.463 38.9516 261.341C39.1955 258.049 39.3175 254.878 39.6833 251.707L43.2199 249.878L42.976 245.61L37.6101 248.171Z" fill="white"/>
<path fill-rule="evenodd" clip-rule="evenodd" d="M70.7791 245.61L70.5352 249.878L74.0717 251.585C74.4376 254.756 74.6815 258.049 74.8034 261.219C76.1449 261.341 77.3644 261.463 78.7059 261.585C78.5839 259.024 78.34 256.463 78.2181 253.902C80.5352 255.244 82.8522 256.707 85.2913 258.049L87.3644 254.268C85.0473 252.927 82.6083 251.707 80.2913 250.366C82.2425 249.146 84.8034 248.049 86.9986 246.829C86.3888 245.732 85.5352 244.756 84.6815 243.658C81.8766 245.122 78.9498 246.585 76.1449 248.049L70.7791 245.61Z" fill="#BED435"/>
<defs>
<radialGradient id="paint0_radial_3191_106" cx="0" cy="0" r="1" gradientUnits="userSpaceOnUse" gradientTransform="translate(244.428 250.603) scale(2.37998 2.3739)">
<stop stop-color="#4D4D4D" stop-opacity="0"/>
<stop offset="0.306" stop-color="#505050" stop-opacity="0.306"/>
<stop offset="0.5333" stop-color="#595859" stop-opacity="0.5333"/>
<stop offset="0.7353" stop-color="#69676A" stop-opacity="0.7353"/>
<stop offset="0.9215" stop-color="#7E7C80" stop-opacity="0.9215"/>
<stop offset="1" stop-color="#8A878C"/>
</radialGradient>
<linearGradient id="paint1_linear_3191_106" x1="257.47" y1="219.35" x2="294.376" y2="217.121" gradientUnits="userSpaceOnUse">
<stop stop-color="#B1E03F" stop-opacity="0"/>
<stop offset="0.0122227" stop-color="#B1DF3F" stop-opacity="0.0122227"/>
<stop offset="0.6149" stop-color="#A4C93B" stop-opacity="0.6149"/>
<stop offset="1" stop-color="#A0C13A"/>
</linearGradient>
<linearGradient id="paint2_linear_3191_106" x1="252.224" y1="269.162" x2="260.522" y2="278.149" gradientUnits="userSpaceOnUse">
<stop stop-color="#A0C13A" stop-opacity="0"/>
<stop offset="1" stop-color="#A0C13A"/>
</linearGradient>
<linearGradient id="paint3_linear_3191_106" x1="260.205" y1="215.547" x2="267.31" y2="223.35" gradientUnits="userSpaceOnUse">
<stop stop-color="#A0C13A" stop-opacity="0"/>
<stop offset="1" stop-color="#A0C13A"/>
</linearGradient>
<linearGradient id="paint4_linear_3191_106" x1="262.453" y1="212.561" x2="268.484" y2="219.184" gradientUnits="userSpaceOnUse">
<stop stop-color="#A0C13A" stop-opacity="0"/>
<stop offset="1" stop-color="#A0C13A"/>
</linearGradient>
<linearGradient id="paint5_linear_3191_106" x1="264.007" y1="209.215" x2="268.819" y2="214.5" gradientUnits="userSpaceOnUse">
<stop stop-color="#A0C13A" stop-opacity="0"/>
<stop offset="1" stop-color="#A0C13A"/>
</linearGradient>
<linearGradient id="paint6_linear_3191_106" x1="256.073" y1="219.701" x2="264.391" y2="228.836" gradientUnits="userSpaceOnUse">
<stop stop-color="#A0C13A" stop-opacity="0"/>
<stop offset="1" stop-color="#A0C13A"/>
</linearGradient>
<linearGradient id="paint7_linear_3191_106" x1="265.552" y1="202.365" x2="268.09" y2="205.153" gradientUnits="userSpaceOnUse">
<stop stop-color="#A0C13A" stop-opacity="0"/>
<stop offset="1" stop-color="#A0C13A"/>
</linearGradient>
<linearGradient id="paint8_linear_3191_106" x1="264.914" y1="206.048" x2="268.806" y2="210.322" gradientUnits="userSpaceOnUse">
<stop stop-color="#A0C13A" stop-opacity="0"/>
<stop offset="1" stop-color="#A0C13A"/>
</linearGradient>
<linearGradient id="paint9_linear_3191_106" x1="265.789" y1="198.804" x2="267.089" y2="200.232" gradientUnits="userSpaceOnUse">
<stop stop-color="#A0C13A" stop-opacity="0"/>
<stop offset="1" stop-color="#A0C13A"/>
</linearGradient>
<linearGradient id="paint10_linear_3191_106" x1="215.271" y1="225.014" x2="207.119" y2="234.85" gradientUnits="userSpaceOnUse">
<stop stop-color="#44EACA" stop-opacity="0"/>
<stop offset="0.0554221" stop-color="#44E7C8" stop-opacity="0.0554221"/>
<stop offset="0.6317" stop-color="#40D1B5" stop-opacity="0.6317"/>
<stop offset="1" stop-color="#3FC9AE"/>
</linearGradient>
<linearGradient id="paint11_linear_3191_106" x1="236.233" y1="273.051" x2="231.013" y2="279.778" gradientUnits="userSpaceOnUse">
<stop stop-color="#44EACA" stop-opacity="0"/>
<stop offset="0.0554221" stop-color="#44E7C8" stop-opacity="0.0554221"/>
<stop offset="0.6317" stop-color="#40D1B5" stop-opacity="0.6317"/>
<stop offset="1" stop-color="#3FC9AE"/>
</linearGradient>
<linearGradient id="paint12_linear_3191_106" x1="216.568" y1="231.11" x2="217.059" y2="231.709" gradientUnits="userSpaceOnUse">
<stop stop-color="#44EACA" stop-opacity="0"/>
<stop offset="0.0554221" stop-color="#44E7C8" stop-opacity="0.0554221"/>
<stop offset="0.6317" stop-color="#40D1B5" stop-opacity="0.6317"/>
<stop offset="1" stop-color="#3FC9AE"/>
</linearGradient>
<linearGradient id="paint13_linear_3191_106" x1="211.384" y1="222.587" x2="210.287" y2="222.602" gradientUnits="userSpaceOnUse">
<stop stop-color="#44EACA" stop-opacity="0"/>
<stop offset="0.0554221" stop-color="#44E7C8" stop-opacity="0.0554221"/>
<stop offset="0.6317" stop-color="#40D1B5" stop-opacity="0.6317"/>
<stop offset="1" stop-color="#3FC9AE"/>
</linearGradient>
<linearGradient id="paint14_linear_3191_106" x1="213.188" y1="223.81" x2="210.708" y2="223.845" gradientUnits="userSpaceOnUse">
<stop stop-color="#44EACA" stop-opacity="0"/>
<stop offset="0.0554221" stop-color="#44E7C8" stop-opacity="0.0554221"/>
<stop offset="0.6317" stop-color="#40D1B5" stop-opacity="0.6317"/>
<stop offset="1" stop-color="#3FC9AE"/>
</linearGradient>
<linearGradient id="paint15_linear_3191_106" x1="215.587" y1="225.474" x2="211.383" y2="225.534" gradientUnits="userSpaceOnUse">
<stop stop-color="#44EACA" stop-opacity="0"/>
<stop offset="0.0554221" stop-color="#44E7C8" stop-opacity="0.0554221"/>
<stop offset="0.6317" stop-color="#40D1B5" stop-opacity="0.6317"/>
<stop offset="1" stop-color="#3FC9AE"/>
</linearGradient>
<linearGradient id="paint16_linear_3191_106" x1="218.492" y1="227.151" x2="212.007" y2="227.242" gradientUnits="userSpaceOnUse">
<stop stop-color="#44EACA" stop-opacity="0"/>
<stop offset="0.0554221" stop-color="#44E7C8" stop-opacity="0.0554221"/>
<stop offset="0.6317" stop-color="#40D1B5" stop-opacity="0.6317"/>
<stop offset="1" stop-color="#3FC9AE"/>
</linearGradient>
<linearGradient id="paint17_linear_3191_106" x1="221.473" y1="228.921" x2="212.805" y2="229.043" gradientUnits="userSpaceOnUse">
<stop stop-color="#44EACA" stop-opacity="0"/>
<stop offset="0.0554221" stop-color="#44E7C8" stop-opacity="0.0554221"/>
<stop offset="0.6317" stop-color="#40D1B5" stop-opacity="0.6317"/>
<stop offset="1" stop-color="#3FC9AE"/>
</linearGradient>
<linearGradient id="paint18_linear_3191_106" x1="225.913" y1="230.599" x2="213.017" y2="230.781" gradientUnits="userSpaceOnUse">
<stop stop-color="#44EACA" stop-opacity="0"/>
<stop offset="0.0554221" stop-color="#44E7C8" stop-opacity="0.0554221"/>
<stop offset="0.6317" stop-color="#40D1B5" stop-opacity="0.6317"/>
<stop offset="1" stop-color="#3FC9AE"/>
</linearGradient>
<linearGradient id="paint19_linear_3191_106" x1="232.472" y1="232.316" x2="212.605" y2="232.598" gradientUnits="userSpaceOnUse">
<stop stop-color="#44EACA" stop-opacity="0"/>
<stop offset="0.0554221" stop-color="#44E7C8" stop-opacity="0.0554221"/>
<stop offset="0.6317" stop-color="#40D1B5" stop-opacity="0.6317"/>
<stop offset="1" stop-color="#3FC9AE"/>
</linearGradient>
</defs>
</svg>
