<svg width="505" height="322" viewBox="0 0 505 322" fill="none" xmlns="http://www.w3.org/2000/svg">
<path d="M504.753 51.6782V311.432C504.753 316.999 499.214 321.506 492.372 321.506H13.0751C6.23329 321.506 0.694336 316.999 0.694336 311.432V51.6782H504.753Z" fill="#F7F7F7"/>
<path d="M504.753 10.492V45.9826H0.694336V10.492C0.694336 4.92459 6.23329 0.417969 13.0751 0.417969H492.365C499.206 0.417969 504.753 4.92459 504.753 10.492Z" fill="white"/>
<path d="M449.505 283.324H64.7758C58.0764 283.324 52.6514 277.892 52.6514 271.2V210.57C52.6514 203.871 58.0835 198.446 64.7758 198.446H449.505C456.204 198.446 461.629 203.878 461.629 210.57V271.2C461.629 277.899 456.204 283.324 449.505 283.324Z" fill="url(#paint0_linear)"/>
<path d="M99.7752 265.967C113.628 265.967 124.857 254.737 124.857 240.885C124.857 227.033 113.628 215.803 99.7752 215.803C85.9229 215.803 74.6934 227.033 74.6934 240.885C74.6934 254.737 85.9229 265.967 99.7752 265.967Z" fill="#F7F7F7"/>
<path d="M427.684 232.434H145.753C144.052 232.434 142.678 231.053 142.678 229.358C142.678 227.657 144.059 226.283 145.753 226.283H427.684C429.386 226.283 430.76 227.664 430.76 229.358C430.767 231.053 429.386 232.434 427.684 232.434Z" fill="#F7F7F7"/>
<path d="M427.684 242.907H145.753C144.052 242.907 142.678 241.525 142.678 239.831C142.678 238.129 144.059 236.755 145.753 236.755H427.684C429.386 236.755 430.76 238.137 430.76 239.831C430.767 241.525 429.386 242.907 427.684 242.907Z" fill="#F7F7F7"/>
<path d="M316.35 253.38H145.76C144.059 253.38 142.685 251.999 142.685 250.304C142.685 248.603 144.066 247.229 145.76 247.229H316.35C318.051 247.229 319.425 248.61 319.425 250.304C319.425 251.999 318.044 253.38 316.35 253.38Z" fill="#F7F7F7"/>
<path d="M105.863 150.631H92.8342L76.6943 134.043L92.8342 117.455H105.863L89.7229 134.043L105.863 150.631Z" fill="url(#paint1_linear)"/>
<path d="M127.193 109.958H133.045L121.511 158.143H115.659L127.193 109.958Z" fill="url(#paint2_linear)"/>
<path d="M157.65 134.05L141.432 117.462H154.539L170.678 134.05L154.539 150.639H141.432L157.65 134.05Z" fill="url(#paint3_linear)"/>
<path d="M421.903 126.653H205.948C204.491 126.653 203.314 125.272 203.314 123.578C203.314 121.876 204.497 120.502 205.948 120.502H421.903C423.36 120.502 424.536 121.883 424.536 123.578C424.536 125.279 423.36 126.653 421.903 126.653Z" fill="#575555"/>
<path d="M421.903 137.126H205.948C204.491 137.126 203.314 135.745 203.314 134.05C203.314 132.349 204.497 130.975 205.948 130.975H421.903C423.36 130.975 424.536 132.356 424.536 134.05C424.536 135.752 423.36 137.126 421.903 137.126Z" fill="#575555"/>
<path d="M358.718 147.598H206.39C204.688 147.598 203.314 146.217 203.314 144.523C203.314 142.821 204.696 141.447 206.39 141.447H358.718C360.42 141.447 361.794 142.828 361.794 144.523C361.794 146.217 360.42 147.598 358.718 147.598Z" fill="#575555"/>
<defs>
<linearGradient id="paint0_linear" x1="257.14" y1="198.446" x2="257.14" y2="283.324" gradientUnits="userSpaceOnUse">
<stop stop-color="#B9E040"/>
<stop offset="1" stop-color="#A6CE2B"/>
</linearGradient>
<linearGradient id="paint1_linear" x1="91.2786" y1="117.455" x2="91.2786" y2="150.631" gradientUnits="userSpaceOnUse">
<stop stop-color="#585656"/>
<stop offset="1" stop-color="#323232"/>
</linearGradient>
<linearGradient id="paint2_linear" x1="124.352" y1="109.958" x2="124.352" y2="158.143" gradientUnits="userSpaceOnUse">
<stop stop-color="#585656"/>
<stop offset="1" stop-color="#323232"/>
</linearGradient>
<linearGradient id="paint3_linear" x1="156.055" y1="117.462" x2="156.055" y2="150.639" gradientUnits="userSpaceOnUse">
<stop stop-color="#585656"/>
<stop offset="1" stop-color="#323232"/>
</linearGradient>
</defs>
</svg>
