<svg width="603" height="325" viewBox="0 0 603 325" fill="none" xmlns="http://www.w3.org/2000/svg">
<path d="M444.739 250.485V311.616C444.739 318.615 439.068 324.297 432.067 324.297H109.317C99.5155 324.297 91.5783 316.346 91.5783 306.545V259.962V259.946C91.5783 258.824 91.2843 257.724 90.7196 256.756L79.7266 237.804H432.075C439.068 237.804 444.739 243.479 444.739 250.485Z" fill="url(#paint0_linear)"/>
<path d="M36.7139 247.621C32.3585 247.613 28.916 244.121 28.9082 239.701C28.9005 235.396 32.4204 231.904 36.7526 231.912C41.1003 231.92 44.5738 235.427 44.5816 239.824C44.5893 244.106 41.0229 247.628 36.7139 247.621Z" fill="#A0C13A"/>
<path d="M52.4259 265.512C47.9699 268.725 42.5005 270.614 36.5901 270.614C30.788 270.614 25.4115 268.787 20.9941 265.682C21.4506 257.476 27.5079 251.608 34.7412 250.671C38.4081 250.191 41.8661 250.934 44.9993 252.924C49.6409 255.873 51.9927 260.155 52.4259 265.512Z" fill="#A0C13A"/>
<path d="M63.7276 243.456C63.7276 251.298 60.401 258.367 55.0941 263.329C53.895 256.33 49.8181 251.484 42.9793 248.589C48.7582 244.168 48.5648 236.976 44.9134 232.772C40.9757 228.235 34.2685 227.693 29.8512 231.487C27.5613 233.453 26.1997 235.946 26.0141 238.965C25.7665 242.952 27.3447 246.165 30.6016 248.65C26.7954 250.029 23.8093 252.289 21.5504 255.471C19.802 257.933 18.7112 260.612 18.3012 263.538C12.8627 258.568 9.44336 251.414 9.44336 243.463C9.44336 228.467 21.5968 216.305 36.5816 216.305C51.5742 216.297 63.7276 228.46 63.7276 243.456Z" fill="#A0C13A"/>
<path d="M157.83 144.615V201.479C157.83 209.662 164.46 216.289 172.629 216.289H496.192C504.369 216.289 510.991 209.655 510.991 201.479V151.962V151.946C510.991 150.824 511.285 149.724 511.849 148.756L522.842 129.804H172.629C164.452 129.804 157.83 136.439 157.83 144.615Z" fill="url(#paint1_linear)"/>
<path d="M565.855 139.621C570.21 139.613 573.653 136.122 573.661 131.701C573.668 127.396 570.148 123.905 565.816 123.913C561.469 123.92 557.995 127.427 557.987 131.825C557.987 136.106 561.546 139.629 565.855 139.621Z" fill="#5B5959"/>
<path d="M550.15 157.512C554.606 160.725 560.076 162.614 565.986 162.614C571.788 162.614 577.165 160.787 581.582 157.682C581.126 149.476 575.068 143.608 567.835 142.671C564.168 142.191 560.71 142.934 557.577 144.924C552.935 147.873 550.576 152.155 550.15 157.512Z" fill="#575555"/>
<path d="M538.841 135.456C538.841 143.298 542.167 150.367 547.474 155.329C548.673 148.33 552.75 143.484 559.589 140.589C553.81 136.168 554.004 128.976 557.655 124.772C561.593 120.235 568.3 119.693 572.717 123.487C575.007 125.453 576.369 127.946 576.554 130.965C576.802 134.952 575.224 138.165 571.967 140.65C575.773 142.029 578.759 144.289 581.018 147.471C582.766 149.933 583.857 152.612 584.267 155.538C589.706 150.568 593.125 143.414 593.125 135.463C593.125 120.467 580.972 108.305 565.987 108.305C550.994 108.297 538.841 120.46 538.841 135.456Z" fill="#333333"/>
<path d="M435.571 35.1668V94.9345C435.571 102.313 429.591 108.297 422.218 108.297H95.7628C88.3903 108.297 82.4103 102.313 82.4103 94.9345V43.9616V42.2352L70.5586 21.8042H422.218C429.599 21.8042 435.571 27.7887 435.571 35.1668Z" fill="url(#paint2_linear)"/>
<path d="M27.5538 31.621C23.1984 31.6133 19.7558 28.1216 19.7481 23.701C19.7403 19.3965 23.2602 15.9049 27.5925 15.9126C31.9402 15.9204 35.4137 19.4274 35.4214 23.8249C35.4214 28.1062 31.8551 31.6287 27.5538 31.621Z" fill="#A0C13A"/>
<path d="M43.2579 49.5122C38.8019 52.7251 33.3325 54.6141 27.4221 54.6141C21.6201 54.6141 16.2435 52.787 11.8262 49.6825C12.2826 41.476 18.34 35.6077 25.5732 34.6709C29.2401 34.1909 32.6982 34.9341 35.8313 36.9238C40.4729 39.8735 42.8247 44.1547 43.2579 49.5122Z" fill="#A0C13A"/>
<path d="M54.5607 27.4556C54.5607 35.2982 51.2341 42.3666 45.9272 47.3291C44.7281 40.3304 40.6511 35.484 33.8124 32.5885C39.5913 28.1678 39.3979 20.9756 35.7465 16.7717C31.8088 12.2349 25.1016 11.693 20.6843 15.4866C18.3944 17.453 17.0328 19.9459 16.8472 22.9653C16.5996 26.9524 18.1778 30.1653 21.4347 32.6504C17.6285 34.0285 14.6424 36.2891 12.3834 39.4711C10.6351 41.933 9.54429 44.6117 9.13428 47.5382C3.70354 42.5601 0.28418 35.4066 0.28418 27.4556C0.28418 12.4595 12.4376 0.296875 27.4224 0.296875C42.4072 0.296875 54.5607 12.4595 54.5607 27.4556Z" fill="#A0C13A"/>
<path d="M383.553 44.5732H105.649V52.8881H383.553V44.5732Z" fill="white"/>
<path d="M296.507 60.8931H105.649V69.2079H296.507V60.8931Z" fill="white"/>
<path d="M296.507 77.2207H105.649V85.5355H296.507V77.2207Z" fill="white"/>
<path d="M203.475 193.534L481.379 193.534V185.219L203.475 185.219V193.534Z" fill="white"/>
<path d="M290.519 177.21L481.376 177.21V168.895L290.519 168.895V177.21Z" fill="white"/>
<path d="M229.828 160.879L481.375 160.879V152.564L229.828 152.564V160.879Z" fill="white"/>
<path d="M322.686 258.297H130.011V266.612H322.686V258.297Z" fill="white"/>
<path d="M383.956 274.617H130.011V282.932H383.956V274.617Z" fill="white"/>
<defs>
<linearGradient id="paint0_linear" x1="262.233" y1="237.804" x2="262.233" y2="324.297" gradientUnits="userSpaceOnUse">
<stop stop-color="#B9E040"/>
<stop offset="1" stop-color="#AED634"/>
</linearGradient>
<linearGradient id="paint1_linear" x1="340.336" y1="129.804" x2="340.336" y2="216.289" gradientUnits="userSpaceOnUse">
<stop stop-color="#ADD533"/>
<stop offset="0.0001" stop-color="#5B5959"/>
<stop offset="1" stop-color="#2E2E2E"/>
</linearGradient>
<linearGradient id="paint2_linear" x1="253.065" y1="21.8042" x2="253.065" y2="108.297" gradientUnits="userSpaceOnUse">
<stop stop-color="#BAE141"/>
<stop offset="1" stop-color="#ABD331"/>
</linearGradient>
</defs>
</svg>
