<svg width="975" height="654" viewBox="0 0 975 654" fill="none" xmlns="http://www.w3.org/2000/svg">
<g clip-path="url(#clip0)">
<path d="M660.694 653.661C783.163 653.661 882.443 648.734 882.443 642.656C882.443 636.578 783.163 631.651 660.694 631.651C538.226 631.651 438.945 636.578 438.945 642.656C438.945 648.734 538.226 653.661 660.694 653.661Z" fill="#D0CDE1"/>
<path d="M372.416 83.1087C360.82 63.4778 344.731 46.8793 325.471 34.6779C306.211 22.4765 284.33 15.0207 261.627 12.9235C238.924 10.8262 216.047 14.1474 194.878 22.614C173.709 31.0806 154.851 44.4509 139.856 61.6254L130.584 53.5239C146.858 34.8782 167.326 20.362 190.304 11.1693C213.282 1.97664 238.114 -1.63001 262.758 0.646012C287.402 2.92204 311.153 11.0157 332.059 24.2614C352.965 37.5071 370.427 55.5263 383.011 76.8372L372.416 83.1087Z" fill="#D0CDE1"/>
<path d="M378.218 243.5L368 236.63C383.134 214.059 391.578 187.67 392.359 160.506C393.141 133.343 386.227 106.512 372.416 83.1085L383.011 76.8369C398.007 102.243 405.515 131.371 404.666 160.86C403.818 190.35 394.649 218.998 378.218 243.5Z" fill="#1E8449"/>
<path d="M131.868 260.653C106.418 232.23 92.2393 195.482 92.003 157.331C91.7667 119.18 105.489 82.2594 130.585 53.5234L139.856 61.625C116.738 88.0977 104.097 122.11 104.315 157.255C104.533 192.401 117.594 226.254 141.038 252.438L131.868 260.653Z" fill="#3F3D56"/>
<path d="M248.366 312.731C226.38 312.714 204.643 308.068 184.572 299.096C164.5 290.123 146.542 277.025 131.868 260.653L141.038 252.438C155.677 268.793 173.86 281.587 194.198 289.842C214.536 298.097 236.491 301.596 258.387 300.07C280.284 298.545 301.542 292.037 320.539 281.042C339.537 270.047 355.77 254.856 368 236.629L378.218 243.5C363.924 264.816 344.599 282.283 321.951 294.357C299.304 306.432 274.031 312.742 248.366 312.731Z" fill="#1E8449"/>
<path d="M523.844 319.583H355.532V245.784H358.122V316.993H523.844V319.583Z" fill="#3F3D56"/>
<path d="M356.827 271.984C364.692 271.984 371.069 265.607 371.069 257.742C371.069 249.876 364.692 243.5 356.827 243.5C348.961 243.5 342.585 249.876 342.585 257.742C342.585 265.607 348.961 271.984 356.827 271.984Z" fill="#3F3D56"/>
<path d="M560.815 342.509H483.132V345.099H560.815V342.509Z" fill="#1E8449"/>
<path d="M560.815 350.278H483.132V352.867H560.815V350.278Z" fill="#1E8449"/>
<path d="M560.815 358.046H483.132V360.635H560.815V358.046Z" fill="#1E8449"/>
<path d="M643.934 406.666L635.597 435.342C635.597 435.342 634.84 449.662 654.644 448.724L652.244 435.586L661.605 411.566L643.934 406.666Z" fill="#A0616A"/>
<path d="M669.917 240.193L678.444 266.839L665.653 290.288V316.935H682.707L706.156 261.51L693.366 233.797L669.917 240.193Z" fill="#A0616A"/>
<path d="M685.905 300.947H662.456L660.324 331.857L657.126 368.096L695.498 358.504L685.905 300.947Z" fill="#D0CDE1"/>
<path d="M645.402 455.497L625.151 518.383L603.833 611.113L624.085 617.509L654.995 530.108L677.378 483.21L682.707 535.437L690.168 621.772L710.42 624.97V533.305L724.276 455.497H645.402Z" fill="#A0616A"/>
<path d="M712.018 613.778L688.569 608.449L673.647 628.7C673.647 628.7 642.049 644.035 654.462 644.688C674.713 645.754 714.683 644.688 714.683 642.556C714.683 640.425 712.018 613.778 712.018 613.778Z" fill="#2F2E41"/>
<path d="M626.749 613.778L603.3 608.449L588.378 628.7C588.378 628.7 556.78 644.035 569.193 644.688C589.444 645.754 629.414 644.688 629.414 642.556C629.414 640.425 626.749 613.778 626.749 613.778Z" fill="#2F2E41"/>
<path d="M701.893 349.977L653.929 357.438L640.729 459.761C640.729 459.761 650.731 469.353 676.312 462.958V466.156C676.312 466.156 714.683 448.036 724.276 466.156L724.933 463.31C732.014 433.139 729.795 401.532 718.568 372.647C713.384 359.47 707.489 349.177 701.893 349.977Z" fill="#2F2E41"/>
<path d="M674.713 247.121C689.43 247.121 701.36 235.191 701.36 220.474C701.36 205.758 689.43 193.828 674.713 193.828C659.996 193.828 648.066 205.758 648.066 220.474C648.066 235.191 659.996 247.121 674.713 247.121Z" fill="#A0616A"/>
<path d="M706.156 247.654L674.18 311.606C674.18 311.606 668.851 335.055 682.707 359.57C690.547 373.439 709.39 402.727 724.276 425.546C735.701 443.059 720.56 456.763 720.56 456.763L775.437 449.102L742.396 349.977L738.132 264.708L715.749 258.312L706.156 247.654Z" fill="#575A89"/>
<path d="M724.276 360.635L699.761 377.689C699.761 377.689 690.169 388.348 706.156 400.072L712.552 388.348L734.935 375.557L724.276 360.635Z" fill="#A0616A"/>
<path d="M640.073 462.958L678.977 266.306L664.058 275.257C661.254 276.94 658.891 279.266 657.165 282.044C655.439 284.822 654.399 287.97 654.132 291.23L640.073 462.958Z" fill="#575A89"/>
<path opacity="0.2" d="M675.779 462.425L676.845 484.809L673.647 491.204L675.779 462.425Z" fill="#2F2E41"/>
<path d="M724.276 265.773H738.132C740.48 266.924 742.552 268.566 744.207 270.59C745.863 272.613 747.062 274.969 747.725 277.498C749.857 286.025 757.318 323.33 757.318 323.33L761.581 344.647L734.935 381.953L718.947 362.767L732.803 342.516L712.551 292.42C712.551 292.42 709.354 271.103 724.276 265.773Z" fill="#575A89"/>
<path opacity="0.2" d="M717.077 303.614L732.27 341.983L718.414 362.234L729.072 341.983L717.077 303.614Z" fill="#2F2E41"/>
<path d="M685.905 230.067C687.377 230.067 688.57 228.158 688.57 225.804C688.57 223.449 687.377 221.54 685.905 221.54C684.433 221.54 683.24 223.449 683.24 225.804C683.24 228.158 684.433 230.067 685.905 230.067Z" fill="#A0616A"/>
<path d="M699.767 241.107C692.405 242.474 684.797 241.349 678.147 237.908L671.694 234.57L670.329 227.223C670.187 226.458 669.852 225.743 669.356 225.144C668.86 224.545 668.219 224.084 667.494 223.802C666.769 223.521 665.984 223.43 665.214 223.538C664.444 223.645 663.714 223.948 663.094 224.417C663.094 224.417 638.196 198.825 659.709 188.114C681.221 177.404 685.371 181.67 685.371 181.67C685.371 181.67 679.76 142.423 709.757 150.281C739.754 158.139 731.479 194.929 708.158 195.903C708.158 195.903 728.072 230.814 699.767 241.107Z" fill="#2F2E41"/>
<path d="M689.06 184.246C689.06 184.246 670.429 149.251 701.31 146.433C705.793 145.936 710.33 146.499 714.555 148.077C710.379 145.759 705.063 144.562 698.581 145.154C667.699 147.972 686.33 182.967 686.33 182.967L689.06 184.246Z" fill="#2F2E41"/>
<path d="M831.956 638.262C831.956 638.262 842.156 603.945 803.369 584.407L831.956 638.262Z" fill="#D0CDE1"/>
<path d="M833.228 638.445C833.228 638.445 837.271 604.576 882.443 602.453L833.228 638.445Z" fill="#D0CDE1"/>
</g>
<defs>
<clipPath id="clip0">
<rect width="975" height="654" fill="white"/>
</clipPath>
</defs>
</svg>
