<svg width="975" height="675" viewBox="0 0 975 675" fill="none" xmlns="http://www.w3.org/2000/svg">
<g clip-path="url(#clip0)">
<path d="M88.0969 294.408C70.0509 309.173 99.5807 438.776 99.5807 438.776C99.5807 438.776 106.143 636.461 120.087 645.484C134.032 654.507 165.202 644.664 177.506 643.023C189.81 641.383 179.147 519.162 161.101 474.047C143.055 428.932 157 363.311 157 363.311L254.612 382.177C254.612 382.177 195.552 432.214 198.013 442.877C200.474 453.541 263.635 489.632 275.119 491.273C286.603 492.914 308.75 425.651 328.437 379.716C348.123 333.781 193.912 304.251 193.912 304.251L172.585 264.058C172.585 264.058 106.143 279.643 88.0969 294.408Z" fill="#2F2E41"/>
<path d="M137.088 648.888C137.088 648.888 131.136 669.722 137.088 669.722C143.04 669.722 153.953 675.674 170.818 673.69C187.683 671.706 182.723 650.873 170.818 647.896C158.913 644.92 161.889 621.111 161.889 621.111C157.921 613.174 139.072 623.095 139.072 623.095L137.088 648.888Z" fill="#2F2E41"/>
<path d="M221.594 483.221C221.594 483.221 211.382 502.331 217.2 503.586C223.019 504.841 232.431 512.961 249.335 514.578C266.239 516.195 265.784 494.784 254.774 489.365C243.765 483.945 251.695 461.298 251.695 461.298C249.49 452.704 228.973 458.426 228.973 458.426L221.594 483.221Z" fill="#2F2E41"/>
<path d="M99.1706 116.819C100.811 120.1 93.4287 161.114 93.4287 161.114L99.9909 172.597C99.9909 172.597 137.723 157.833 131.982 155.372C126.24 152.911 127.06 122.561 127.06 122.561C127.06 122.561 97.5301 113.538 99.1706 116.819Z" fill="#FFB9B9"/>
<path d="M113.373 129.462C141.149 129.462 163.667 106.945 163.667 79.168C163.667 51.3914 141.149 28.874 113.373 28.874C85.596 28.874 63.0786 51.3914 63.0786 79.168C63.0786 106.945 85.596 129.462 113.373 129.462Z" fill="#2F2E41"/>
<path d="M109.904 52.895C121.398 52.895 130.715 43.5775 130.715 32.0838C130.715 20.59 121.398 11.2725 109.904 11.2725C98.4103 11.2725 89.0928 20.59 89.0928 32.0838C89.0928 43.5775 98.4103 52.895 109.904 52.895Z" fill="#2F2E41"/>
<path d="M119.009 41.5101C119.729 41.5849 120.453 41.6225 121.177 41.6227C123.91 41.6227 126.616 41.0844 129.141 40.0385C131.666 38.9926 133.96 37.4597 135.892 35.5272C137.825 33.5947 139.358 31.3004 140.404 28.7755C141.45 26.2505 141.988 23.5443 141.988 20.8113C141.988 18.0783 141.45 15.3721 140.404 12.8472C139.358 10.3222 137.825 8.02801 135.892 6.0955C133.96 4.16299 131.666 2.63003 129.141 1.58417C126.616 0.5383 123.91 -8.14492e-08 121.177 0C120.453 0.000186217 119.729 0.0377411 119.009 0.112518C124.125 0.648563 128.861 3.06043 132.304 6.88278C135.747 10.7051 137.652 15.6671 137.652 20.8113C137.652 25.9556 135.747 30.9175 132.304 34.7399C128.861 38.5622 124.125 40.9741 119.009 41.5101Z" fill="#2F2E41"/>
<path d="M114.756 138.146C133.783 138.146 149.207 122.722 149.207 103.695C149.207 84.6676 133.783 69.2432 114.756 69.2432C95.7286 69.2432 80.3042 84.6676 80.3042 103.695C80.3042 122.722 95.7286 138.146 114.756 138.146Z" fill="#FFB9B9"/>
<path d="M65.129 156.602C54.4654 159.063 36.4194 185.312 36.4194 185.312L65.129 214.021C65.129 214.021 85.6358 291.127 88.0966 294.408C104.218 315.903 176.686 268.159 176.686 268.159C176.686 268.159 173.815 244.781 175.456 233.297C177.033 222.253 169.304 200.076 169.304 200.076C169.304 200.076 196.373 188.593 190.631 177.109C184.889 165.625 149.617 139.376 134.852 148.399C120.087 157.422 90.5575 148.399 90.5575 148.399C90.5575 148.399 75.7926 154.141 65.129 156.602Z" fill="#1E8449"/>
<path d="M274.709 321.887C274.709 321.887 321.464 362.081 332.948 353.878C344.432 345.675 288.654 316.966 288.654 316.966L274.709 321.887Z" fill="#FFB9B9"/>
<path d="M64.7192 307.943C71.2814 315.325 102.452 296.459 98.4556 288.08C94.4594 279.702 69.6408 296.459 69.6408 296.459C69.6408 296.459 58.157 300.56 64.7192 307.943Z" fill="#FFB9B9"/>
<path d="M65.1292 196.796L30.6778 260.777C30.6778 260.777 70.0508 293.588 74.9724 294.408C79.894 295.228 65.1291 316.556 65.1291 316.556C65.1291 316.556 20.8344 285.385 3.60873 269.8C-13.617 254.215 36.4196 185.312 36.4196 185.312L51.1846 176.289L65.1292 196.796Z" fill="#1E8449"/>
<path d="M165.202 194.335L205.395 256.676C205.395 256.676 266.916 325.578 275.119 328.86C283.321 332.141 293.165 316.555 293.165 316.555L219.34 227.146L191.451 177.109L180.787 173.008L165.202 194.335Z" fill="#1E8449"/>
<path d="M113.373 83.5728C132.529 83.5728 148.058 74.2553 148.058 62.7615C148.058 51.2677 132.529 41.9502 113.373 41.9502C94.2162 41.9502 78.687 51.2677 78.687 62.7615C78.687 74.2553 94.2162 83.5728 113.373 83.5728Z" fill="#2F2E41"/>
<path d="M210.677 511.789C209.54 511.79 208.45 512.243 207.647 513.046C206.843 513.85 206.39 514.94 206.389 516.077V662.322C206.39 663.458 206.843 664.548 207.647 665.352C208.45 666.156 209.54 666.608 210.677 666.609H709.346C710.483 666.608 711.572 666.156 712.376 665.352C713.18 664.548 713.632 663.458 713.634 662.322V516.077C713.632 514.94 713.18 513.85 712.376 513.046C711.572 512.243 710.483 511.79 709.346 511.789L210.677 511.789Z" fill="#E6E6E6"/>
<path d="M217.134 655.864H702.888V522.534H217.134V655.864Z" fill="white"/>
<path d="M641.574 628.205C640.641 628.204 639.716 628.387 638.853 628.743C637.991 629.1 637.207 629.623 636.546 630.282C635.886 630.942 635.362 631.725 635.004 632.588C634.647 633.45 634.463 634.374 634.463 635.308C634.463 636.241 634.647 637.165 635.004 638.028C635.362 638.89 635.886 639.673 636.546 640.333C637.207 640.993 637.991 641.516 638.853 641.872C639.716 642.229 640.641 642.412 641.574 642.41H669.984C671.868 642.41 673.675 641.662 675.007 640.33C676.339 638.998 677.087 637.191 677.087 635.308C677.087 633.424 676.339 631.617 675.007 630.285C673.675 628.953 671.868 628.205 669.984 628.205H641.574Z" fill="#1E8449"/>
<path d="M677.088 614.428H349.122V616.297H677.088V614.428Z" fill="#E6E6E6"/>
<path d="M349.64 603.993L348.604 602.438L382.684 579.717L406.054 590.935L439.669 569.459L506.537 597.983L559.787 571.825L611.495 592.788L676.468 535.241L677.707 536.64L611.867 594.956L559.86 573.871L506.591 600.038L439.843 571.565L406.184 593.071L382.835 581.864L349.64 603.993Z" fill="#3F3D56"/>
<path d="M355.195 629.182C354.397 629.181 353.607 629.337 352.869 629.642C352.131 629.946 351.461 630.394 350.896 630.958C350.331 631.522 349.883 632.192 349.577 632.929C349.272 633.666 349.114 634.457 349.114 635.255C349.114 636.053 349.272 636.844 349.577 637.581C349.883 638.318 350.331 638.988 350.896 639.552C351.461 640.117 352.131 640.564 352.869 640.868C353.607 641.173 354.397 641.33 355.195 641.329H418.733C420.342 641.326 421.885 640.686 423.022 639.547C424.16 638.408 424.799 636.865 424.799 635.255C424.799 633.646 424.16 632.102 423.022 630.963C421.885 629.824 420.342 629.184 418.733 629.182H355.195Z" fill="#E6E6E6"/>
<path d="M275.612 43.3545C274.475 43.3559 273.385 43.808 272.582 44.6119C271.778 45.4157 271.326 46.5056 271.324 47.6424V193.887C271.326 195.024 271.778 196.114 272.582 196.918C273.385 197.721 274.475 198.173 275.612 198.175H774.281C775.418 198.173 776.507 197.721 777.311 196.917C778.115 196.114 778.567 195.024 778.569 193.887V47.6423C778.567 46.5055 778.115 45.4157 777.311 44.6119C776.507 43.808 775.418 43.3558 774.281 43.3545L275.612 43.3545Z" fill="#E6E6E6"/>
<path d="M282.069 187.43H767.823V54.0996H282.069V187.43Z" fill="white"/>
<path d="M706.509 159.77C704.626 159.77 702.819 160.518 701.487 161.85C700.155 163.182 699.407 164.988 699.407 166.872C699.407 168.756 700.155 170.563 701.487 171.895C702.819 173.227 704.626 173.975 706.509 173.975H734.92C736.804 173.975 738.61 173.227 739.942 171.895C741.274 170.563 742.023 168.756 742.023 166.872C742.023 164.988 741.274 163.182 739.942 161.85C738.61 160.518 736.804 159.77 734.92 159.77H706.509Z" fill="#1E8449"/>
<path d="M742.023 145.992H414.057V147.861H742.023V145.992Z" fill="#E6E6E6"/>
<path d="M414.575 135.557L413.539 134.002L447.619 111.282L470.989 122.5L504.604 101.024L505.058 101.217L571.472 129.548L624.722 103.39L676.43 124.353L741.403 66.8047L742.642 68.2037L676.802 126.52L624.795 105.436L571.527 131.603L504.779 103.13L471.119 124.635L447.77 113.427L414.575 135.557Z" fill="#3F3D56"/>
<path d="M420.131 160.747C418.521 160.749 416.978 161.39 415.841 162.529C414.704 163.667 414.065 165.211 414.065 166.821C414.065 168.43 414.704 169.974 415.841 171.112C416.978 172.251 418.521 172.892 420.131 172.894H483.668C485.279 172.894 486.824 172.254 487.963 171.115C489.102 169.976 489.742 168.431 489.742 166.821C489.742 165.21 489.102 163.665 487.963 162.526C486.824 161.387 485.279 160.747 483.668 160.747H420.131Z" fill="#E6E6E6"/>
<path d="M471.799 277.572C470.662 277.574 469.572 278.026 468.768 278.83C467.964 279.633 467.512 280.723 467.511 281.86V428.105C467.512 429.242 467.964 430.331 468.768 431.135C469.572 431.939 470.662 432.391 471.799 432.393H970.467C971.604 432.391 972.694 431.939 973.498 431.135C974.302 430.331 974.754 429.242 974.755 428.105V281.86C974.754 280.723 974.302 279.633 973.498 278.83C972.694 278.026 971.604 277.574 970.467 277.572L471.799 277.572Z" fill="#E6E6E6"/>
<path d="M478.256 421.647H964.01V288.317H478.256V421.647Z" fill="white"/>
<path d="M902.696 393.987C900.812 393.987 899.006 394.736 897.674 396.068C896.342 397.4 895.593 399.206 895.593 401.09C895.593 402.974 896.342 404.78 897.674 406.112C899.006 407.444 900.812 408.193 902.696 408.193H931.106C932.99 408.193 934.797 407.444 936.129 406.112C937.461 404.78 938.209 402.974 938.209 401.09C938.209 399.206 937.461 397.4 936.129 396.068C934.797 394.736 932.99 393.987 931.106 393.987H902.696Z" fill="#1E8449"/>
<path d="M938.209 380.21H610.244V382.079H938.209V380.21Z" fill="#E6E6E6"/>
<path d="M610.762 369.775L609.725 368.22L643.805 345.5L667.176 356.718L700.79 335.242L701.245 335.435L767.658 363.766L820.909 337.608L872.617 358.57L937.59 301.023L938.829 302.423L872.989 360.738L820.982 339.654L767.713 365.821L700.966 337.348L667.305 358.853L643.957 347.646L610.762 369.775Z" fill="#3F3D56"/>
<path d="M616.317 394.964C614.706 394.964 613.162 395.604 612.023 396.743C610.884 397.882 610.244 399.427 610.244 401.037C610.244 402.648 610.884 404.193 612.023 405.332C613.162 406.471 614.706 407.111 616.317 407.111H679.855C681.465 407.111 683.01 406.471 684.149 405.332C685.288 404.193 685.928 402.648 685.928 401.037C685.928 399.427 685.288 397.882 684.149 396.743C683.01 395.604 681.465 394.964 679.855 394.964H616.317Z" fill="#E6E6E6"/>
<path d="M280.5 548.25C257.73 548.25 239.25 566.73 239.25 589.5C239.25 612.27 257.73 630.75 280.5 630.75C303.27 630.75 321.75 612.27 321.75 589.5C321.75 566.73 303.27 548.25 280.5 548.25ZM280.5 560.625C287.347 560.625 292.875 566.153 292.875 573C292.875 579.847 287.347 585.375 280.5 585.375C273.653 585.375 268.125 579.847 268.125 573C268.125 566.153 273.653 560.625 280.5 560.625ZM280.5 619.2C270.188 619.2 261.071 613.92 255.75 605.917C255.874 597.709 272.25 593.212 280.5 593.212C288.709 593.212 305.126 597.709 305.25 605.917C299.929 613.92 290.812 619.2 280.5 619.2Z" fill="#1E8449"/>
<path d="M542.5 314.25C519.73 314.25 501.25 332.73 501.25 355.5C501.25 378.27 519.73 396.75 542.5 396.75C565.27 396.75 583.75 378.27 583.75 355.5C583.75 332.73 565.27 314.25 542.5 314.25ZM542.5 326.625C549.347 326.625 554.875 332.153 554.875 339C554.875 345.847 549.347 351.375 542.5 351.375C535.653 351.375 530.125 345.847 530.125 339C530.125 332.153 535.653 326.625 542.5 326.625ZM542.5 385.2C532.188 385.2 523.071 379.92 517.75 371.917C517.874 363.709 534.25 359.212 542.5 359.212C550.709 359.212 567.126 363.709 567.25 371.917C561.929 379.92 552.812 385.2 542.5 385.2Z" fill="#1E8449"/>
<path d="M346.5 80.25C323.73 80.25 305.25 98.73 305.25 121.5C305.25 144.27 323.73 162.75 346.5 162.75C369.27 162.75 387.75 144.27 387.75 121.5C387.75 98.73 369.27 80.25 346.5 80.25ZM346.5 92.625C353.347 92.625 358.875 98.1525 358.875 105C358.875 111.847 353.347 117.375 346.5 117.375C339.653 117.375 334.125 111.847 334.125 105C334.125 98.1525 339.653 92.625 346.5 92.625ZM346.5 151.2C336.188 151.2 327.071 145.92 321.75 137.917C321.874 129.709 338.25 125.212 346.5 125.212C354.709 125.212 371.126 129.709 371.25 137.917C365.929 145.92 356.812 151.2 346.5 151.2Z" fill="#1E8449"/>
</g>
<defs>
<clipPath id="clip0">
<rect width="974.755" height="674.095" fill="white"/>
</clipPath>
</defs>
</svg>
