<svg width="610" height="212" viewBox="0 0 610 212" fill="none" xmlns="http://www.w3.org/2000/svg">
<path d="M260.653 211.382H18.1578C8.55624 211.382 0.775391 203.608 0.775391 194.015V160.957C0.775391 151.364 8.55624 143.59 18.1578 143.59H260.648C270.249 143.59 278.03 151.364 278.03 160.957V194.01C278.035 203.608 270.254 211.382 260.653 211.382Z" fill="url(#paint0_linear)"/>
<path d="M37.8736 201.384C51.0834 201.384 61.7921 190.684 61.7921 177.486C61.7921 164.287 51.0834 153.588 37.8736 153.588C24.6638 153.588 13.9551 164.287 13.9551 177.486C13.9551 190.684 24.6638 201.384 37.8736 201.384Z" fill="white"/>
<path d="M43.5012 182.003C48.5924 178.116 48.4264 171.785 45.2048 168.088C41.7341 164.099 35.8228 163.621 31.9324 166.957C29.9115 168.688 28.7107 170.878 28.5496 173.541C28.3349 177.047 29.7212 179.871 32.5963 182.061C29.2428 183.271 26.6166 185.265 24.6251 188.06C22.6188 190.874 21.6035 194.02 21.5938 197.527H24.1028C24.2931 190.065 29.7309 184.69 36.2426 183.836C39.4741 183.417 42.52 184.066 45.2829 185.821C49.5638 188.538 51.6335 192.537 51.8727 197.566H54.4695C54.04 189.991 50.3448 184.89 43.5012 182.003ZM37.9901 181.154C34.1485 181.144 31.1123 178.072 31.1075 174.189C31.1026 170.4 34.2022 167.327 38.0243 167.332C41.861 167.337 44.9168 170.424 44.9216 174.297C44.9216 178.057 41.7878 181.164 37.9901 181.154Z" fill="#A0C13A"/>
<path d="M73.5068 186.021H250.699" stroke="white" stroke-miterlimit="10"/>
<path d="M103.039 197.726H76.6797C74.9273 197.726 73.5068 196.307 73.5068 194.556C73.5068 192.805 74.9273 191.386 76.6797 191.386H103.039C104.791 191.386 106.212 192.805 106.212 194.556C106.212 196.307 104.791 197.726 103.039 197.726Z" fill="#383837" stroke="#A0C13A" stroke-miterlimit="10"/>
<path d="M247.527 197.726H238.74C236.988 197.726 235.567 196.307 235.567 194.556C235.567 192.805 236.988 191.386 238.74 191.386H247.527C249.279 191.386 250.7 192.805 250.7 194.556C250.7 196.307 249.279 197.726 247.527 197.726Z" fill="white" stroke="#A0C13A" stroke-miterlimit="10"/>
<path d="M73.5068 177.73L91.0796 168.463L120.368 177.73L152.096 164.562L196.516 177.73L233.615 164.562L242.889 168.463L250.699 159.685" stroke="#383837" stroke-miterlimit="10"/>
<path d="M592.393 211.499H349.903C340.301 211.499 332.521 203.725 332.521 194.132V161.079C332.521 151.486 340.301 143.712 349.903 143.712H592.393C601.995 143.712 609.775 151.486 609.775 161.079V194.132C609.775 203.725 601.995 211.499 592.393 211.499Z" fill="url(#paint1_linear)"/>
<path d="M369.614 201.501C382.824 201.501 393.532 190.802 393.532 177.603C393.532 164.405 382.824 153.705 369.614 153.705C356.404 153.705 345.695 164.405 345.695 177.603C345.695 190.802 356.404 201.501 369.614 201.501Z" fill="white"/>
<path d="M375.242 182.12C380.334 178.233 380.168 171.902 376.946 168.205C373.475 164.216 367.564 163.738 363.674 167.074C361.653 168.805 360.452 170.995 360.291 173.658C360.076 177.165 361.462 179.988 364.337 182.178C360.984 183.388 358.358 185.383 356.366 188.177C354.36 190.991 353.345 194.137 353.335 197.644H355.844C356.034 190.182 361.472 184.807 367.984 183.954C371.215 183.534 374.261 184.183 377.024 185.939C381.305 188.655 383.375 192.654 383.614 197.683H386.211C385.786 190.113 382.086 185.007 375.242 182.12ZM369.731 181.271C365.89 181.261 362.854 178.189 362.849 174.307C362.844 170.517 365.943 167.444 369.766 167.449C373.602 167.454 376.658 170.541 376.663 174.414C376.663 178.174 373.529 181.281 369.731 181.271Z" fill="#A0C13A"/>
<path d="M405.247 186.138H582.439" stroke="white" stroke-miterlimit="10"/>
<path d="M434.779 197.843H408.42C406.668 197.843 405.247 196.424 405.247 194.673C405.247 192.922 406.668 191.503 408.42 191.503H434.779C436.532 191.503 437.952 192.922 437.952 194.673C437.952 196.424 436.532 197.843 434.779 197.843Z" fill="#383837" stroke="#A0C13A" stroke-miterlimit="10"/>
<path d="M405.247 177.847L422.82 168.581L452.108 177.847L483.837 164.679L528.257 177.847L565.355 164.679L574.629 168.581L582.439 159.802" stroke="#383837" stroke-miterlimit="10"/>
<path d="M424.949 115.907H182.454C172.852 115.907 165.071 108.132 165.071 98.5391V65.4867C165.071 55.8933 172.852 48.1191 182.454 48.1191H424.944C434.545 48.1191 442.326 55.8933 442.326 65.4867V98.5391C442.331 108.132 434.55 115.907 424.949 115.907Z" fill="url(#paint2_linear)"/>
<path d="M202.17 105.908C215.379 105.908 226.088 95.2088 226.088 82.0103C226.088 68.8118 215.379 58.1123 202.17 58.1123C188.96 58.1123 178.251 68.8118 178.251 82.0103C178.251 95.2088 188.96 105.908 202.17 105.908Z" fill="white"/>
<path d="M207.797 86.527C212.888 82.6399 212.722 76.3094 209.501 72.6125C206.03 68.623 200.119 68.145 196.228 71.481C194.207 73.2124 193.007 75.4022 192.846 78.0652C192.631 81.5718 194.017 84.3957 196.892 86.5855C193.539 87.7951 190.913 89.7898 188.921 92.5844C186.915 95.3985 185.899 98.5443 185.89 102.051H188.399C188.589 94.5889 194.027 89.2143 200.539 88.3608C203.77 87.9414 206.816 88.59 209.579 90.3458C213.86 93.0624 215.929 97.0616 216.169 102.09H218.765C218.336 94.5207 214.641 89.4143 207.797 86.527ZM202.286 85.6784C198.444 85.6686 195.408 82.596 195.403 78.7138C195.398 74.9243 198.498 71.8517 202.32 71.8565C206.157 71.8614 209.213 74.9487 209.218 78.8211C209.218 82.5814 206.084 85.6881 202.286 85.6784Z" fill="#A0C13A"/>
<path d="M237.803 90.5459H414.995" stroke="white" stroke-miterlimit="10"/>
<path d="M267.335 102.25H240.976C239.223 102.25 237.803 100.831 237.803 99.0803C237.803 97.3294 239.223 95.9102 240.976 95.9102H267.335C269.087 95.9102 270.508 97.3294 270.508 99.0803C270.508 100.831 269.087 102.25 267.335 102.25Z" fill="#383837" stroke="#A0C13A" stroke-miterlimit="10"/>
<path d="M411.823 102.25H403.036C401.284 102.25 399.863 100.831 399.863 99.0803C399.863 97.3294 401.284 95.9102 403.036 95.9102H411.823C413.575 95.9102 414.995 97.3294 414.995 99.0803C414.995 100.831 413.575 102.25 411.823 102.25Z" fill="white" stroke="#A0C13A" stroke-miterlimit="10"/>
<path d="M237.803 82.2544L255.376 72.9878L284.664 82.2544L316.392 69.0861L360.812 82.2544L397.91 69.0861L407.185 72.9878L414.995 64.209" stroke="#383837" stroke-miterlimit="10"/>
<path d="M331.535 10.8534C330.827 11.3119 330.607 11.8874 330.431 12.6092C329.494 16.4231 328.542 20.237 327.591 24.0461C327.22 25.5336 326.897 25.7823 325.345 25.7823C313.064 25.797 300.782 25.8116 288.501 25.8214C286.597 25.8214 286.397 25.6751 285.953 23.89C284.996 20.0419 284.059 16.1841 283.073 12.3409C282.965 11.9117 282.653 11.4387 282.297 11.185C280.764 10.0828 280.334 8.29778 281.335 6.84439C282.253 5.50317 284.171 5.14226 285.548 6.05917C287.007 7.02972 287.305 8.87328 286.255 10.434C286.153 10.59 286.021 10.7266 285.743 11.0778C287.163 12.4336 288.496 13.7212 289.848 14.9892C292.284 17.2717 295.828 17.0815 297.917 14.4674C300.06 11.7849 302.1 9.01959 304.145 6.26401C304.331 6.01527 304.341 5.47391 304.194 5.1764C303.428 3.59621 303.618 2.17696 304.809 1.20153C305.922 0.289502 307.538 0.279748 308.661 1.17714C309.852 2.12331 310.067 3.54256 309.349 5.14714C309.217 5.44465 309.256 5.97138 309.442 6.22987C311.443 8.97082 313.444 11.7167 315.538 14.3845C317.652 17.0815 321.181 17.301 323.681 14.9697C325.033 13.7065 326.336 12.3946 327.522 11.2387C327.18 10.1999 326.746 9.36587 326.663 8.49774C326.536 7.13702 327.571 5.94699 328.889 5.63973C330.339 5.30321 331.779 5.9665 332.389 7.24919C333.004 8.54651 332.731 10.0828 331.535 10.8534Z" fill="url(#paint3_linear)"/>
<path d="M327.132 31.4493C327.132 32.0297 327.132 32.6052 327.132 33.1856C327.122 34.8926 326.712 35.312 325.033 35.312C318.975 35.312 312.922 35.312 306.864 35.312C300.767 35.312 294.676 35.312 288.579 35.312C286.978 35.312 286.582 34.9219 286.573 33.3612C286.568 32.4004 286.568 31.4347 286.577 30.469C286.587 29.5375 287.085 29.0547 287.998 28.9961C288.305 28.9766 288.613 28.9815 288.92 28.9815H324.681C326.853 28.9766 327.127 29.2595 327.132 31.4493Z" fill="url(#paint4_linear)"/>
<defs>
<linearGradient id="paint0_linear" x1="139.403" y1="143.59" x2="139.403" y2="211.382" gradientUnits="userSpaceOnUse">
<stop stop-color="#BEE545"/>
<stop offset="1" stop-color="#9BC321"/>
</linearGradient>
<linearGradient id="paint1_linear" x1="471.148" y1="143.712" x2="471.148" y2="211.499" gradientUnits="userSpaceOnUse">
<stop stop-color="#BDE444"/>
<stop offset="1" stop-color="#A3CB29"/>
</linearGradient>
<linearGradient id="paint2_linear" x1="303.699" y1="48.1191" x2="303.699" y2="115.907" gradientUnits="userSpaceOnUse">
<stop stop-color="#BCE343"/>
<stop offset="1" stop-color="#A7CE2D"/>
</linearGradient>
<linearGradient id="paint3_linear" x1="306.751" y1="0.510742" x2="306.751" y2="25.8214" gradientUnits="userSpaceOnUse">
<stop stop-color="#E5E020"/>
<stop offset="1" stop-color="#F8D418"/>
</linearGradient>
<linearGradient id="paint4_linear" x1="306.85" y1="28.981" x2="306.85" y2="35.312" gradientUnits="userSpaceOnUse">
<stop stop-color="#E5E020"/>
<stop offset="1" stop-color="#F8D418"/>
</linearGradient>
</defs>
</svg>
