<svg width="975" height="612" viewBox="0 0 975 612" fill="none" xmlns="http://www.w3.org/2000/svg">
<g clip-path="url(#clip0)">
<path d="M768.26 568.121C882.575 568.121 975.246 563.682 975.246 558.207C975.246 552.731 882.575 548.292 768.26 548.292C653.945 548.292 561.274 552.731 561.274 558.207C561.274 563.682 653.945 568.121 768.26 568.121Z" fill="#D0CDE1"/>
<path d="M767.749 357.395L783.345 418.005C783.345 418.005 783.922 460.721 787.388 477.461C790.854 494.201 802.407 534.608 802.407 534.608L816.27 536.917L813.382 480.347C813.382 480.347 813.382 446.29 810.493 438.786C807.605 431.282 801.829 354.509 801.829 354.509L767.749 357.395Z" fill="#FFB8B8"/>
<path opacity="0.1" d="M767.749 357.395L783.345 418.005C783.345 418.005 783.922 460.721 787.388 477.461C790.854 494.201 802.407 534.608 802.407 534.608L816.27 536.917L813.382 480.347C813.382 480.347 813.382 446.29 810.493 438.786C807.605 431.282 801.829 354.509 801.829 354.509L767.749 357.395Z" fill="black"/>
<path d="M810.989 103.354H810.989C791.735 103.354 776.126 120.665 776.126 142.018V169.148H784.476L789.309 159.096L788.101 169.148H841.769L846.163 160.01L845.065 169.148H851.107V147.846C851.107 123.274 833.146 103.354 810.989 103.354Z" fill="#2F2E41"/>
<path d="M753.019 347.87C753.019 347.87 746.088 377.309 755.33 380.196C764.572 383.082 762.261 347.87 762.261 347.87H753.019Z" fill="#FFB8B8"/>
<path d="M764.573 198.364L759.951 203.559L761.107 303.422L750.709 350.756L773.815 353.065L785.367 257.82L781.902 209.332L764.573 198.364Z" fill="#3F3D56"/>
<path opacity="0.1" d="M764.573 198.364L759.951 203.559L761.107 303.422L750.709 350.756L773.815 353.065L785.367 257.82L781.902 209.332L764.573 198.364Z" fill="black"/>
<path d="M807.904 165.357C821.611 165.357 832.723 154.253 832.723 140.555C832.723 126.857 821.611 115.753 807.904 115.753C794.197 115.753 783.085 126.857 783.085 140.555C783.085 154.253 794.197 165.357 807.904 165.357Z" fill="#FFB8B8"/>
<path d="M793.675 155.435C793.675 155.435 800.955 193.134 797.646 197.102C794.337 201.07 832.723 189.827 832.723 189.827C832.723 189.827 820.148 164.033 826.767 149.482L793.675 155.435Z" fill="#FFB8B8"/>
<path d="M856.416 320.74C856.416 320.74 863.347 350.179 854.105 353.066C844.863 355.952 847.174 320.74 847.174 320.74H856.416Z" fill="#FFB8B8"/>
<path d="M802.985 350.468C802.985 350.468 793.165 409.346 793.743 418.005C794.32 426.663 793.743 427.818 793.743 427.818C793.743 427.818 783.923 453.216 781.035 467.647C778.146 482.079 771.792 500.55 771.792 500.55C771.792 500.55 764.283 517.29 770.637 517.29C776.991 517.29 785.656 514.981 785.656 514.981C785.633 508.314 787.873 501.835 792.01 496.604C798.941 487.851 819.736 446.867 819.736 441.672C819.736 436.477 823.202 421.468 823.202 421.468L836.488 357.395L802.985 350.468Z" fill="#FFB8B8"/>
<path d="M762.55 311.215C762.55 311.215 752.73 360.858 761.395 362.013C770.059 363.167 782.19 354.508 797.786 364.322C813.382 374.135 839.376 371.826 839.376 371.826C839.376 371.826 857.282 326.224 841.109 315.256C824.935 304.289 762.55 311.215 762.55 311.215Z" fill="#2F2E41"/>
<path d="M773.525 510.363C776.068 509.257 778.862 508.858 781.612 509.208C784.244 509.598 786.926 508.98 789.121 507.477C789.121 507.477 784.5 524.217 785.078 530.566C785.656 536.916 783.345 564.046 771.215 561.16C759.084 558.274 755.619 549.615 760.24 534.607C764.861 519.599 763.705 502.282 763.705 502.282C763.705 502.282 772.136 493.58 773.697 494.756C775.258 495.932 773.525 510.363 773.525 510.363Z" fill="#2F2E41"/>
<path d="M812.227 531.721C812.227 531.721 806.451 519.022 799.519 530.567C792.587 542.111 792.01 544.998 792.01 544.998C792.01 544.998 772.37 562.892 786.233 564.624C800.097 566.356 811.072 564.047 811.072 561.16C811.072 558.274 818.003 558.851 818.581 556.542C819.159 554.234 817.426 532.876 817.426 532.876L812.227 531.721Z" fill="#2F2E41"/>
<path d="M825.223 174.698C825.223 174.698 800.963 179.316 798.075 178.739C797.424 178.624 796.766 178.554 796.106 178.53C790.457 178.274 784.856 179.662 779.982 182.526C771.938 187.195 759.951 195.505 759.951 203.56C759.951 215.682 775.547 236.463 775.547 236.463C775.547 236.463 761.106 286.105 762.261 290.723C763.416 295.341 753.597 310.927 759.951 316.122C766.305 321.317 826.956 316.122 837.931 321.317C848.906 326.512 843.708 252.048 843.708 252.048C843.708 252.048 873.167 184.511 858.149 178.162C853.289 176.107 849.094 174.536 845.644 173.351C842.321 172.208 838.804 171.738 835.298 171.97C831.792 172.201 828.367 173.129 825.223 174.698Z" fill="#3F3D56"/>
<path d="M847.751 178.739L861.005 180.928C861.005 180.928 866.813 186.821 866.813 189.707C866.813 192.593 865.658 317.277 863.925 321.317C862.192 325.358 843.13 323.626 843.13 323.626L846.596 252.626L847.751 178.739Z" fill="#3F3D56"/>
<path d="M820.9 114.003C819.222 111.752 817.048 109.917 814.546 108.642C812.044 107.366 809.282 106.683 806.473 106.646H805.789C792.592 106.646 781.894 118.58 781.894 133.301V133.301H786.315L787.03 127.869L788.077 133.301H814.303L816.5 128.705L815.951 133.301H821.11C823.518 145.249 820.059 157.198 810.732 169.146H819.521L823.916 159.955L822.817 169.146H839.571L842.867 148.007C842.867 132.175 833.662 118.75 820.9 114.003Z" fill="#2F2E41"/>
<path d="M825.717 116.231C832.929 116.231 838.775 110.388 838.775 103.182C838.775 95.975 832.929 90.1328 825.717 90.1328C818.505 90.1328 812.659 95.975 812.659 103.182C812.659 110.388 818.505 116.231 825.717 116.231Z" fill="#2F2E41"/>
<path d="M638.948 106.887H88.7354V458.677H638.948V106.887Z" fill="#3F3D56"/>
<path d="M623.301 170.405H375.575V458.352H623.301V170.405Z" fill="#1E8449"/>
<path d="M609.61 197.197H459.364V203.251H609.61V197.197Z" fill="white"/>
<path d="M609.61 210.517H459.364V216.571H609.61V210.517Z" fill="white"/>
<path d="M510.254 223.836H459.364V229.89H510.254V223.836Z" fill="white"/>
<path d="M301.085 327.396H150.839V333.451H301.085V327.396Z" fill="white"/>
<path d="M301.085 340.716H150.839V346.77H301.085V340.716Z" fill="white"/>
<path d="M201.729 354.035H150.839V360.089H201.729V354.035Z" fill="white"/>
<path d="M574.408 271.465H424.162V277.519H574.408V271.465Z" fill="white"/>
<path d="M574.408 284.783H424.162V290.837H574.408V284.783Z" fill="white"/>
<path d="M574.408 297.813H424.162V303.868H574.408V297.813Z" fill="white"/>
<path d="M574.408 310.842H424.162V316.896H574.408V310.842Z" fill="white"/>
<path d="M574.408 323.872H424.162V329.926H574.408V323.872Z" fill="white"/>
<path d="M574.408 336.901H424.162V342.956H574.408V336.901Z" fill="white"/>
<path d="M574.408 349.93H424.162V355.984H574.408V349.93Z" fill="white"/>
<path d="M574.408 362.96H424.162V369.014H574.408V362.96Z" fill="white"/>
<path d="M574.408 375.989H424.162V382.043H574.408V375.989Z" fill="white"/>
<path d="M574.408 389.018H424.162V395.072H574.408V389.018Z" fill="white"/>
<path d="M574.408 402.048H424.162V408.102H574.408V402.048Z" fill="white"/>
<path d="M280.709 231.132C280.718 239.289 278.898 247.344 275.381 254.704C271.865 262.065 266.742 268.545 260.389 273.666C258.04 275.573 255.534 277.28 252.899 278.767C251.308 279.67 249.672 280.49 247.996 281.223C242.443 283.672 236.517 285.172 230.467 285.66C228.98 285.783 227.479 285.844 225.962 285.842C222.961 285.845 219.965 285.599 217.005 285.106C215.962 284.943 214.932 284.741 213.915 284.507C212.137 284.111 210.381 283.624 208.654 283.047C201.552 280.68 195.012 276.88 189.442 271.881C188.007 270.61 186.646 269.257 185.367 267.829C179.407 261.243 175.14 253.306 172.935 244.703C170.731 236.101 170.656 227.091 172.716 218.453C174.776 209.814 178.909 201.807 184.759 195.122C190.608 188.437 197.999 183.276 206.291 180.084C214.584 176.893 223.529 175.766 232.355 176.802C241.18 177.839 249.621 181.006 256.947 186.032C264.274 191.058 270.266 197.79 274.406 205.648C278.545 213.505 280.709 222.252 280.709 231.132Z" fill="#1E8449"/>
<path d="M638.621 260.958C614.416 260.958 591.201 270.567 574.086 287.671C556.97 304.776 547.354 327.974 547.354 352.163V352.163C547.354 359.247 544.538 366.041 539.525 371.05C534.513 376.059 527.714 378.873 520.626 378.873H476.296C465.851 378.873 455.509 380.929 445.86 384.923C436.21 388.917 427.443 394.771 420.057 402.152C412.672 409.532 406.814 418.294 402.817 427.936C398.82 437.579 396.763 447.914 396.763 458.351V458.352H638.621V260.958H638.621Z" fill="#3F3D56"/>
<path d="M369.382 106.887H357.648V458.677H369.382V106.887Z" fill="#2F2E41"/>
</g>
<defs>
<clipPath id="clip0">
<rect width="975" height="612" fill="white"/>
</clipPath>
</defs>
</svg>
