<svg width="486" height="313" viewBox="0 0 486 313" fill="none" xmlns="http://www.w3.org/2000/svg">
<g clip-path="url(#clip0)">
<path d="M237.08 0.499512H0.240234V302.041H237.08V0.499512Z" fill="white"/>
<path d="M117.354 156.5C144.044 156.5 165.68 134.844 165.68 108.131C165.68 81.4176 144.044 59.7622 117.354 59.7622C90.6645 59.7622 69.0283 81.4176 69.0283 108.131C69.0283 134.844 90.6645 156.5 117.354 156.5Z" fill="url(#paint0_linear)"/>
<path d="M458.247 54.5332V141.388C456.984 141.614 455.678 141.858 454.329 142.12C433.692 146.068 419.508 154.565 409.791 164.779C407.379 167.306 405.254 169.93 403.365 172.623C402.555 173.773 401.789 174.941 401.066 176.109C399.472 178.697 398.079 181.329 396.878 183.952C396.338 185.111 395.841 186.279 395.38 187.438C394.309 190.079 393.421 192.711 392.672 195.282C392.332 196.458 392.028 197.617 391.74 198.768C391.078 201.478 390.565 204.11 390.173 206.611C389.99 207.805 389.833 208.964 389.703 210.097C389.363 212.947 389.18 215.588 389.093 217.941C389.041 219.187 389.024 220.355 389.024 221.427C389.024 224.486 388.823 227.074 388.249 229.271C387.909 230.569 387.43 231.72 386.794 232.757C383.912 237.411 377.626 239.589 364.582 240.6C354.577 241.376 340.585 241.472 321.106 241.472C314.079 241.472 307.845 242.413 302.324 244.086C296.229 245.916 290.996 248.636 286.503 251.93C267.8 265.665 261.931 289.492 260.102 302.042H246.658V54.5332H458.247Z" stroke="#E5E020" stroke-miterlimit="10"/>
<path d="M180.044 189.617H56.4062C54.2402 189.617 52.4844 191.373 52.4844 193.538C52.4844 195.704 54.2402 197.46 56.4062 197.46H180.044C182.21 197.46 183.966 195.704 183.966 193.538C183.966 191.373 182.21 189.617 180.044 189.617Z" fill="#515050"/>
<path d="M180.044 200.075H56.4062C54.2402 200.075 52.4844 201.831 52.4844 203.996C52.4844 206.162 54.2402 207.918 56.4062 207.918H180.044C182.21 207.918 183.966 206.162 183.966 203.996C183.966 201.831 182.21 200.075 180.044 200.075Z" fill="#515050"/>
<path d="M93.8409 211.405H56.4062C54.2402 211.405 52.4844 213.161 52.4844 215.327C52.4844 217.493 54.2402 219.248 56.4062 219.248H93.8409C96.0068 219.248 97.7627 217.493 97.7627 215.327C97.7627 213.161 96.0068 211.405 93.8409 211.405Z" fill="#515050"/>
<path d="M473.92 0.499512H237.08V302.041H473.92V0.499512Z" fill="white"/>
<path d="M458.248 30.1309H259.72V302.041H458.248V30.1309Z" fill="url(#paint1_linear)"/>
<path d="M431.909 71.5273H373.131C371.569 71.5273 370.303 72.7935 370.303 74.3554C370.303 75.9173 371.569 77.1834 373.131 77.1834H431.909C433.471 77.1834 434.737 75.9173 434.737 74.3554C434.737 72.7935 433.471 71.5273 431.909 71.5273Z" fill="white"/>
<path d="M431.909 79.3799H373.131C371.569 79.3799 370.303 80.646 370.303 82.2079C370.303 83.7698 371.569 85.036 373.131 85.036H431.909C433.471 85.036 434.737 83.7698 434.737 82.2079C434.737 80.646 433.471 79.3799 431.909 79.3799Z" fill="white"/>
<path d="M389.661 87.2231H373.131C371.569 87.2231 370.303 88.4893 370.303 90.0512C370.303 91.6131 371.569 92.8792 373.131 92.8792H389.661C391.223 92.8792 392.489 91.6131 392.489 90.0512C392.489 88.4893 391.223 87.2231 389.661 87.2231Z" fill="white"/>
<path d="M431.255 142.12H278.44V149.963H431.255V142.12Z" fill="white"/>
<path d="M431.255 153.449H278.44V161.293H431.255V153.449Z" fill="white"/>
<path d="M409.791 164.779C407.379 167.306 405.254 169.929 403.365 172.622H278.44V164.779H409.791Z" fill="white"/>
<path d="M401.066 176.108C399.473 178.697 398.08 181.329 396.878 183.952H278.44V176.108H401.066Z" fill="white"/>
<path d="M395.38 187.438C394.309 190.079 393.421 192.711 392.672 195.282H278.44V187.438H395.38Z" fill="white"/>
<path d="M391.741 198.768C391.079 201.478 390.565 204.11 390.173 206.611H278.44V198.768H391.741Z" fill="white"/>
<path d="M389.703 210.097C389.364 212.947 389.181 215.588 389.094 217.941H278.44V210.097H389.703Z" fill="white"/>
<path d="M389.024 221.427C389.024 224.486 388.824 227.074 388.249 229.27H278.44V221.427H389.024Z" fill="white"/>
<path d="M386.795 232.756C383.913 237.41 377.626 239.589 364.582 240.6H278.44V232.756H386.795Z" fill="white"/>
<path d="M302.325 244.086C296.23 245.916 290.996 248.635 286.503 251.93H278.44V244.086H302.325Z" fill="white"/>
<path d="M473.921 138.878V302.042H260.103C261.931 289.492 267.8 265.665 286.503 251.93C290.996 248.636 296.229 245.917 302.325 244.086C307.845 242.413 314.079 241.472 321.106 241.472C340.585 241.472 354.577 241.376 364.582 240.6C377.626 239.589 383.913 237.411 386.795 232.757C387.43 231.72 387.909 230.569 388.249 229.271C388.823 227.075 389.024 224.486 389.024 221.427C389.024 220.355 389.041 219.187 389.093 217.941C389.18 215.588 389.363 212.947 389.703 210.098C389.834 208.965 389.99 207.806 390.173 206.612C390.565 204.11 391.079 201.478 391.74 198.768C392.028 197.618 392.333 196.458 392.672 195.282C393.421 192.711 394.309 190.079 395.38 187.438C395.842 186.279 396.338 185.111 396.878 183.952C398.079 181.329 399.473 178.697 401.066 176.109C401.789 174.941 402.555 173.773 403.365 172.623C405.254 169.93 407.379 167.307 409.791 164.779C419.508 154.565 433.692 146.068 454.329 142.12C455.679 141.858 456.985 141.614 458.247 141.388C464.403 140.255 469.584 139.444 473.921 138.878Z" fill="url(#paint2_linear)"/>
<path d="M243.175 0.499512H232.727V302.041H243.175V0.499512Z" fill="#F2F2F2"/>
</g>
<defs>
<linearGradient id="paint0_linear" x1="117.354" y1="59.7622" x2="117.354" y2="156.5" gradientUnits="userSpaceOnUse">
<stop stop-color="#BBE242"/>
<stop offset="1" stop-color="#AAD230"/>
</linearGradient>
<linearGradient id="paint1_linear" x1="358.984" y1="30.1309" x2="358.984" y2="302.041" gradientUnits="userSpaceOnUse">
<stop stop-color="#BBE242"/>
<stop offset="1" stop-color="#A5CD2B"/>
</linearGradient>
<linearGradient id="paint2_linear" x1="367.012" y1="138.878" x2="367.012" y2="302.042" gradientUnits="userSpaceOnUse">
<stop stop-color="#515050"/>
<stop offset="1" stop-color="#333333"/>
</linearGradient>
<clipPath id="clip0">
<rect width="485" height="312" fill="white" transform="translate(0.240234 0.499512)"/>
</clipPath>
</defs>
</svg>
