<svg width="60" height="59" viewBox="0 0 60 59" fill="none" xmlns="http://www.w3.org/2000/svg">
<g clip-path="url(#clip0)">
<path d="M30.1953 59C46.4877 59 59.6953 45.7924 59.6953 29.5C59.6953 13.2076 46.4877 0 30.1953 0C13.9029 0 0.695312 13.2076 0.695312 29.5C0.695312 45.7924 13.9029 59 30.1953 59Z" fill="#EC5353"/>
<path d="M59.1296 35.2774L51.2629 27.4107L49.4942 28.5354L39.5799 18.6211L7.97656 38.104L28.8401 58.9675C29.2899 58.9879 29.7419 58.9998 30.1967 58.9998C44.5116 58.9998 56.4434 48.8033 59.1296 35.2774Z" fill="#D13135"/>
<path d="M43.902 24.518C41.2299 18.4164 35.2001 14.4746 28.5391 14.4746H27.9087C21.2476 14.4746 15.218 18.4164 12.5457 24.518H11.766C9.67316 24.518 7.97656 26.2146 7.97656 28.3075V38.1043H53.8927V33.9409C53.8927 28.7368 49.6739 24.518 44.4698 24.518H43.902Z" fill="#BCDEFA"/>
<path d="M53.8902 33.9408C53.8902 28.7367 49.6714 24.518 44.4673 24.518H43.8995C41.2273 18.4165 35.1976 14.4746 28.5366 14.4746H28.293V38.1043H53.8902V33.9408Z" fill="#92CBF7"/>
<path d="M7.97656 33.2686V38.1044H53.8927V33.9409C53.8927 33.7146 53.8819 33.491 53.8662 33.2687L7.97656 33.2686Z" fill="#92CBF7"/>
<path d="M53.8902 33.9408C53.8902 33.7145 53.8794 33.4908 53.8637 33.2686H28.293V38.1044H53.8902V33.9408Z" fill="#2789E1"/>
<path d="M26.8515 16.5918C22.1513 16.5918 17.8965 19.3733 16.011 23.6787L15.5703 24.685H26.8515V16.5918Z" fill="white"/>
<path d="M41.607 24.0521C39.6221 19.5199 35.1432 16.5918 30.1953 16.5918V24.685H41.8841L41.607 24.0521Z" fill="#EDF0F2"/>
<path d="M15.827 42.6335C18.7151 42.6335 21.0563 40.2922 21.0563 37.4041C21.0563 34.5161 18.7151 32.1748 15.827 32.1748C12.9389 32.1748 10.5977 34.5161 10.5977 37.4041C10.5977 40.2922 12.9389 42.6335 15.827 42.6335Z" fill="#595959"/>
<path d="M15.8286 39.7831C17.1427 39.7831 18.2079 38.7179 18.2079 37.4038C18.2079 36.0897 17.1427 35.0244 15.8286 35.0244C14.5145 35.0244 13.4492 36.0897 13.4492 37.4038C13.4492 38.7179 14.5145 39.7831 15.8286 39.7831Z" fill="#969696"/>
<path d="M46.0301 42.6335C48.9182 42.6335 51.2595 40.2922 51.2595 37.4041C51.2595 34.5161 48.9182 32.1748 46.0301 32.1748C43.142 32.1748 40.8008 34.5161 40.8008 37.4041C40.8008 40.2922 43.142 42.6335 46.0301 42.6335Z" fill="#303030"/>
<path d="M46.0317 39.7831C47.3458 39.7831 48.4111 38.7179 48.4111 37.4038C48.4111 36.0897 47.3458 35.0244 46.0317 35.0244C44.7176 35.0244 43.6523 36.0897 43.6523 37.4038C43.6523 38.7179 44.7176 39.7831 46.0317 39.7831Z" fill="#828282"/>
<path d="M52.1509 28.4893H48.4404C47.7722 28.4893 47.2305 29.031 47.2305 29.6992C47.2305 30.3675 47.7722 30.9092 48.4404 30.9092H53.3891C53.0931 30.0381 52.6737 29.2247 52.1509 28.4893Z" fill="#E5E5E5"/>
</g>
<defs>
<clipPath id="clip0">
<rect width="59" height="59" fill="white" transform="translate(0.695312)"/>
</clipPath>
</defs>
</svg>
