<svg width="101" height="101" viewBox="0 0 101 101" fill="none" xmlns="http://www.w3.org/2000/svg">
<g clip-path="url(#clip0)">
<path d="M50.5 101C78.3904 101 101 78.3904 101 50.5C101 22.6096 78.3904 0 50.5 0C22.6096 0 0 22.6096 0 50.5C0 78.3904 22.6096 101 50.5 101Z" fill="#EC5353"/>
<path d="M100.028 60.3903L86.5612 46.9236L83.5336 48.8489L66.5616 31.877L12.4609 65.229L48.1765 100.945C48.9464 100.979 49.7203 101 50.4989 101C75.004 101 95.4297 83.5447 100.028 60.3903Z" fill="#D13135"/>
<path d="M73.9605 41.9712C69.3861 31.5262 59.064 24.7783 47.6612 24.7783H46.582C35.1792 24.7783 24.8573 31.5262 20.2827 41.9712H18.948C15.3653 41.9712 12.4609 44.8755 12.4609 48.4583V65.2292H91.0632V58.102C91.0632 49.1933 83.8411 41.9712 74.9324 41.9712H73.9605Z" fill="#BCDEFA"/>
<path d="M91.0631 58.1018C91.0631 49.1931 83.841 41.9712 74.9323 41.9712H73.9604C69.386 31.5264 59.0639 24.7783 47.6612 24.7783H47.2441V65.2292H91.0631V58.1018Z" fill="#92CBF7"/>
<path d="M12.4609 56.9512V65.2294H91.0632V58.1022C91.0632 57.7148 91.0446 57.3319 91.0178 56.9514L12.4609 56.9512Z" fill="#92CBF7"/>
<path d="M91.0651 58.102C91.0651 57.7146 91.0466 57.3317 91.0197 56.9512H47.2461V65.2294H91.0651V58.102Z" fill="#2789E1"/>
<path d="M44.7748 28.4023C36.7287 28.4023 29.4451 33.1639 26.2172 40.5342L25.4629 42.2569H44.7748V28.4023Z" fill="white"/>
<path d="M70.0352 41.1733C66.6373 33.4149 58.9702 28.4023 50.5 28.4023V42.2569H70.5096L70.0352 41.1733Z" fill="#EDF0F2"/>
<path d="M25.905 72.9829C30.849 72.9829 34.8569 68.975 34.8569 64.031C34.8569 59.087 30.849 55.0791 25.905 55.0791C20.961 55.0791 16.9531 59.087 16.9531 64.031C16.9531 68.975 20.961 72.9829 25.905 72.9829Z" fill="#595959"/>
<path d="M25.9052 68.1033C28.1547 68.1033 29.9783 66.2797 29.9783 64.0302C29.9783 61.7806 28.1547 59.957 25.9052 59.957C23.6556 59.957 21.832 61.7806 21.832 64.0302C21.832 66.2797 23.6556 68.1033 25.9052 68.1033Z" fill="#969696"/>
<path d="M77.6101 72.9829C82.5541 72.9829 86.5621 68.975 86.5621 64.031C86.5621 59.087 82.5541 55.0791 77.6101 55.0791C72.6661 55.0791 68.6582 59.087 68.6582 64.031C68.6582 68.975 72.6661 72.9829 77.6101 72.9829Z" fill="#303030"/>
<path d="M77.6102 68.1033C79.8598 68.1033 81.6834 66.2797 81.6834 64.0302C81.6834 61.7806 79.8598 59.957 77.6102 59.957C75.3607 59.957 73.5371 61.7806 73.5371 64.0302C73.5371 66.2797 75.3607 68.1033 77.6102 68.1033Z" fill="#828282"/>
<path d="M88.0871 48.7695H81.7354C80.5914 48.7695 79.6641 49.6969 79.6641 50.8408C79.6641 51.9848 80.5914 52.9121 81.7354 52.9121H90.2067C89.7002 51.421 88.9821 50.0285 88.0871 48.7695Z" fill="#E5E5E5"/>
</g>
<defs>
<clipPath id="clip0">
<rect width="101" height="101" fill="white"/>
</clipPath>
</defs>
</svg>
