<svg width="512" height="335" viewBox="0 0 512 335" fill="none" xmlns="http://www.w3.org/2000/svg">
<path d="M503.17 335H8.82797C3.95298 335 0 331.052 0 326.183V8.81617C0 3.9477 3.95298 0 8.82797 0H503.171C508.046 0 511.999 3.9477 511.999 8.81617V326.183C511.998 331.052 508.045 335 503.17 335Z" fill="#41479B"/>
<path d="M511.998 8.81617C511.998 3.9477 508.045 0 503.17 0H463.675L300.136 107.003V0H211.86V107.003L48.3218 0H8.82797C3.95298 0 0 3.9477 0 8.81617V31.6166L140.308 123.42H0V211.578H140.308L0 303.383V326.183C0 331.052 3.95298 335 8.82797 335H48.3228L211.862 227.996V335H300.138V227.996L463.677 335H503.172C508.047 335 512 331.052 512 326.183V303.383L371.692 211.579H511.998V123.421H371.69L511.998 31.6166V8.81617Z" fill="#F5F5F5"/>
<path d="M511.998 141.053H282.482V0H229.516V141.053H0V193.947H229.516V335H282.482V193.947H511.998V141.053Z" fill="#FF4B55"/>
<path d="M178.948 211.578L0.25 327.42C0.875 331.677 4.39 335 8.827 335H20.986L211.376 211.579H178.948V211.578V211.578Z" fill="#FF4B55"/>
<path d="M346.387 211.578H313.959L504.072 334.817C508.503 334.346 512 330.733 512 326.183V318.934L346.387 211.578Z" fill="#FF4B55"/>
<path d="M0 18.5482L161.779 123.422H194.207L5.143 0.859863C2.123 2.26099 0 5.27196 0 8.81621V18.5482Z" fill="#FF4B55"/>
<path d="M332.565 123.422L511.692 7.30021C510.948 3.18372 507.508 0.000976562 503.171 0.000976562H490.524L300.137 123.422H332.565Z" fill="#FF4B55"/>
</svg>
