<svg width="512" height="335" viewBox="0 0 512 335" fill="none" xmlns="http://www.w3.org/2000/svg">
<path d="M503.171 335H8.82798C3.95299 335 0 331.052 0 326.184V8.81618C0 3.9477 3.95299 0 8.82798 0H503.172C508.047 0 512 3.9477 512 8.81618V326.184C511.999 331.053 508.046 335 503.171 335Z" fill="#FF4B55"/>
<path d="M297.95 189.432L365.383 140.02H281.874L255.999 60.4888L230.124 140.02H146.615L214.048 189.432L188.373 268.349L255.933 220.124L255.999 220.171L256.065 220.124L323.625 268.349L297.95 189.432ZM311.477 157.652L292.204 171.774L287.609 157.652H311.477ZM234.783 182.757L242.952 157.651H269.046L277.215 182.757L255.999 198.304L234.783 182.757ZM255.999 117.55L263.309 140.02H248.687L255.999 117.55ZM200.521 157.652H224.389L219.794 171.774L200.521 157.652ZM221.736 222.857L229.038 200.416L240.949 209.143L221.736 222.857ZM282.961 200.416L290.263 222.857L271.051 209.144L282.961 200.416Z" fill="#5A8250"/>
</svg>
