<?xml version="1.0" encoding="iso-8859-1"?>
<!-- Generator: Adobe Illustrator 19.0.0, SVG Export Plug-In . SVG Version: 6.00 Build 0)  -->
<svg version="1.1" id="Capa_1" xmlns="http://www.w3.org/2000/svg" xmlns:xlink="http://www.w3.org/1999/xlink" x="0px" y="0px"
	 viewBox="0 0 512.004 512.004" style="enable-background:new 0 0 512.004 512.004;" xml:space="preserve">
<path d="M467.002,422.004h-150c-24.814,0-45,20.186-45,45v45h240v-45C512.002,442.19,491.816,422.004,467.002,422.004z"/>
<rect x="95.026" y="76.065" transform="matrix(0.7071 -0.7071 0.7071 0.7071 -12.02 183.1111)" width="239.998" height="59.999"/>
<rect x="285.928" y="266.99" transform="matrix(0.7071 -0.7071 0.7071 0.7071 -91.1099 374.0196)" width="239.998" height="59.998"/>
<rect x="220.474" y="126.529" transform="matrix(0.7071 -0.7071 0.7071 0.7071 -51.5668 278.5643)" width="179.998" height="149.999"/>
<polygon points="200.723,261.48 177.664,280.848 231.157,334.342 250.526,311.283 		"/>
<path d="M154.606,300.218L19.631,414.874c-24.705,20.75-26.329,58.206-3.516,81.017c22.811,22.813,60.267,21.187,81.017-3.516
l114.656-134.977L154.606,300.218z"/>
</svg>
