<svg width="14" height="14" viewBox="0 0 14 14" fill="none" xmlns="http://www.w3.org/2000/svg">
<path d="M13.1659 12.4679C13.0727 12.5611 12.9806 12.6554 12.8856 12.7469C12.329 13.2869 11.721 13.2902 11.1717 12.7463C10.3959 11.9782 9.62508 11.2044 8.8526 10.4329C8.35362 9.93412 7.85578 9.43483 7.29973 8.87905C7.03527 9.16259 6.78776 9.44274 6.52443 9.70707C5.53495 10.7017 4.54096 11.6913 3.5481 12.6819C2.9135 13.3151 2.33372 13.3117 1.69347 12.6729C1.58667 12.5662 1.47986 12.46 1.37476 12.3521C0.868437 11.8308 0.863916 11.1987 1.37871 10.6797C2.26704 9.78445 3.16157 8.89543 4.05555 8.00472C4.44207 7.62008 4.83255 7.23883 5.26258 6.81466C4.96817 6.53056 4.70088 6.28035 4.4415 6.02223C3.45373 5.04002 2.46764 4.05611 1.48213 3.07164C0.82662 2.41646 0.829446 1.83075 1.48721 1.17217C1.58045 1.07898 1.67256 0.984656 1.7675 0.893156C2.32354 0.353195 2.93328 0.349806 3.48142 0.892591C4.18439 1.58788 4.8834 2.28655 5.58016 2.98748C6.1509 3.56077 6.71656 4.1397 7.30538 4.73784C7.40371 4.64634 7.47773 4.58026 7.54837 4.51022C8.73393 3.32637 9.91893 2.14196 11.1051 0.95811C11.7396 0.324954 12.3194 0.327778 12.9597 0.966582C13.093 1.09931 13.2315 1.22809 13.3552 1.36929C13.7457 1.81493 13.7638 2.37749 13.3824 2.83329C13.1659 3.09197 12.9162 3.32355 12.6766 3.56303C11.6182 4.62149 10.558 5.67769 9.49906 6.73502C9.47928 6.75479 9.46459 6.77908 9.42899 6.82539C9.49624 6.89599 9.56348 6.96942 9.63468 7.04002C10.814 8.21709 11.9945 9.39247 13.1733 10.5701C13.8277 11.2236 13.8237 11.8093 13.1659 12.4679Z" fill="#FF6060"/>
</svg>
