<svg width="28" height="18" viewBox="0 0 28 18" fill="none" xmlns="http://www.w3.org/2000/svg">
<path d="M26.8742 5.70258C26.5074 5.91535 26.3936 6.18246 26.3025 6.51747C25.8169 8.28759 25.3237 10.0577 24.8304 11.8256C24.6382 12.516 24.4712 12.6314 23.6669 12.6314C17.3029 12.6382 10.939 12.645 4.57501 12.6495C3.58854 12.6495 3.48483 12.5816 3.25466 11.7531C2.75889 9.96716 2.27326 8.17667 1.76232 6.39297C1.70667 6.19377 1.54479 5.97421 1.36014 5.8565C0.565909 5.34493 0.34333 4.51646 0.861856 3.84191C1.33738 3.21943 2.33144 3.05192 3.04473 3.47748C3.80102 3.92793 3.95531 4.78356 3.41149 5.50791C3.35838 5.58034 3.29007 5.64372 3.14589 5.8067C3.88195 6.43598 4.57248 7.03356 5.27313 7.62209C6.5353 8.68145 8.37163 8.59317 9.45421 7.37989C10.5646 6.13492 11.6219 4.85147 12.6817 3.57255C12.7778 3.45711 12.7829 3.20585 12.707 3.06777C12.3099 2.33437 12.4085 1.67567 13.0257 1.22295C13.6024 0.799662 14.4397 0.795135 15.0214 1.21163C15.6386 1.65077 15.7499 2.30947 15.3781 3.05419C15.3098 3.19227 15.33 3.43673 15.4261 3.5567C16.4632 4.82883 17.5002 6.10323 18.5853 7.34141C19.6806 8.59317 21.5093 8.69503 22.8044 7.61304C23.505 7.02677 24.1804 6.41787 24.795 5.8814C24.618 5.39926 24.3928 5.01218 24.3498 4.60927C24.2841 3.97773 24.8203 3.42542 25.5032 3.28281C26.2545 3.12662 27.0006 3.43447 27.3168 4.02979C27.6355 4.6319 27.4939 5.34493 26.8742 5.70258Z" fill="url(#paint0_linear)"/>
<path d="M24.5927 15.2618C24.5927 15.5312 24.5927 15.7983 24.5927 16.0677C24.5876 16.86 24.3751 17.0546 23.505 17.0546C20.366 17.0546 17.2296 17.0546 14.0906 17.0546C10.9314 17.0546 7.77468 17.0546 4.61546 17.0546C3.78582 17.0546 3.58094 16.8735 3.57588 16.1492C3.57335 15.7033 3.57335 15.2551 3.57841 14.8069C3.58347 14.3745 3.84146 14.1504 4.31446 14.1233C4.47381 14.1142 4.63317 14.1165 4.79252 14.1165H23.3229C24.4485 14.1142 24.5901 14.2455 24.5927 15.2618Z" fill="url(#paint1_linear)"/>
<defs>
<linearGradient id="paint0_linear" x1="14.0318" y1="0.902344" x2="14.0318" y2="12.6495" gradientUnits="userSpaceOnUse">
<stop stop-color="#E5E020"/>
<stop offset="1" stop-color="#F8D418"/>
</linearGradient>
<linearGradient id="paint1_linear" x1="14.0834" y1="14.1162" x2="14.0834" y2="17.0546" gradientUnits="userSpaceOnUse">
<stop stop-color="#E5E020"/>
<stop offset="1" stop-color="#F8D418"/>
</linearGradient>
</defs>
</svg>
