<svg width="24" height="24" viewBox="0 0 24 24" fill="none" xmlns="http://www.w3.org/2000/svg">
<path d="M23.0024 5.95575C22.1463 12.2551 17.7729 17.5166 12.0789 18.9994C13.0642 16.2525 14.267 13.753 15.9989 11.5506C13.9919 13.403 12.6754 15.8045 11.4024 18.4548C10.8438 16.6251 10.8368 14.9477 11.168 13.2718C12.0143 8.98021 15.3631 5.72496 19.4221 5.22566C20.6824 5.07028 21.8768 5.35237 23.0024 5.95575Z" fill="white"/>
<path d="M6.82727 12.5121C6.7978 12.5453 6.76832 12.577 6.73885 12.6087C7.57534 13.3704 8.32481 14.3027 9.26797 14.8532C10.5185 15.5818 10.5915 16.6619 10.5171 18.0331C6.93674 17.8717 4.19008 16.2018 2.33323 12.9994C0.884813 10.5029 0.507269 7.82987 1.75639 5C5.1206 6.16302 8.42587 7.30794 10.7978 10.3233C11.129 10.7442 11.2399 11.0912 11.0883 11.6598C10.7964 12.758 10.6322 13.8969 10.3838 15.1866C9.16551 14.271 7.99639 13.3916 6.82727 12.5121Z" fill="white"/>
</svg>
