<svg width="24" height="25" viewBox="0 0 24 25" fill="none" xmlns="http://www.w3.org/2000/svg">
<path d="M7 19.1279V17.1279H9V19.1279H7ZM11 19.1279V17.1279H13V19.1279H11ZM15 19.1279V17.1279H17V19.1279H15ZM7 15.1279V13.1279H9V15.1279H7ZM11 15.1279V13.1279H13V15.1279H11ZM15 15.1279V13.1279H17V15.1279H15ZM7 11.1279V9.12793H9V11.1279H7ZM11 11.1279V9.12793H13V11.1279H11ZM15 11.1279V9.12793H17V11.1279H15ZM7 7.12793V5.12793H9V7.12793H7ZM11 7.12793V5.12793H13V7.12793H11ZM15 7.12793V5.12793H17V7.12793H15Z" fill="#ADADAD"/>
</svg>
