<svg width="39" height="37" viewBox="0 0 39 37" fill="none" xmlns="http://www.w3.org/2000/svg">
<path d="M27.9896 12.4173C28.5428 11.8943 28.5428 11.0139 27.9896 10.4909V10.4909C27.4786 10.0078 26.6793 10.0078 26.1683 10.4909L19.4299 16.8621L12.6916 10.4909C12.1806 10.0078 11.3812 10.0078 10.8702 10.4909V10.4909C10.3171 11.0139 10.3171 11.8943 10.8702 12.4173L17.5006 18.6863L10.8702 24.9553C10.3171 25.4783 10.3171 26.3586 10.8702 26.8816V26.8816C11.3812 27.3648 12.1806 27.3648 12.6916 26.8816L19.4299 20.5105L26.1683 26.8816C26.6793 27.3648 27.4786 27.3648 27.9896 26.8816V26.8816C28.5428 26.3586 28.5428 25.4783 27.9896 24.9553L21.3593 18.6863L27.9896 12.4173Z" fill="white"/>
<path d="M19.2107 0.441422C8.9078 0.428592 0.298007 8.44418 0.181063 17.9448C0.0539494 28.2715 8.75696 36.4137 19.1802 36.3704C29.551 36.3688 38.1591 28.3115 38.1794 18.5864C38.1997 8.56927 29.7171 0.454252 19.2107 0.441422ZM19.5938 33.4532C10.4535 33.5622 3.38601 26.9772 3.27415 18.248C3.17415 10.4104 10.3976 3.4629 18.7565 3.35866C27.7968 3.24479 34.9711 9.89237 35.1067 18.5062C35.2304 26.3726 27.9849 33.3538 19.5938 33.4532Z" fill="white"/>
</svg>
