<svg width="255" height="255" viewBox="0 0 255 255" fill="none" xmlns="http://www.w3.org/2000/svg">
<path d="M171.861 0C171.861 0 194.388 55.1119 97.8393 92.1303C45.377 112.239 5.08278 163.781 53.194 243.4C57.1784 207.812 74.2632 129.344 147.727 111.438C147.727 111.438 79.3513 137.006 73.3112 252.739C108.445 257.672 190.846 260.987 215.31 189.48C247.615 95.0029 171.861 0 171.861 0Z" fill="black"/>
<path d="M73.3431 252.258C147.93 222.49 202.202 152.757 209.692 69.5112C194.444 28.3804 171.861 0 171.861 0C171.861 0 194.388 55.1119 97.8393 92.1303C45.377 112.239 5.08278 163.781 53.194 243.4C57.1784 207.812 74.2632 129.344 147.727 111.438C147.723 111.439 79.5506 136.943 73.3431 252.258Z" fill="black"/>
<path d="M67.6454 85.0057C70.3959 85.0057 72.6257 82.7759 72.6257 80.0253C72.6257 77.2747 70.3959 75.0449 67.6454 75.0449C64.8948 75.0449 62.665 77.2747 62.665 80.0253C62.665 82.7759 64.8948 85.0057 67.6454 85.0057Z" fill="black"/>
<path d="M63.1804 45.1617C70.0569 45.1617 75.6314 39.5872 75.6314 32.7107C75.6314 25.8342 70.0569 20.2598 63.1804 20.2598C56.304 20.2598 50.7295 25.8342 50.7295 32.7107C50.7295 39.5872 56.304 45.1617 63.1804 45.1617Z" fill="black"/>
<path d="M101.53 65.084C103.731 65.084 105.515 63.3001 105.515 61.0996C105.515 58.8991 103.731 57.1152 101.53 57.1152C99.3298 57.1152 97.5459 58.8991 97.5459 61.0996C97.5459 63.3001 99.3298 65.084 101.53 65.084Z" fill="black"/>
<path d="M134.899 50.1423C141.226 50.1423 146.354 45.0138 146.354 38.6874C146.354 32.361 141.226 27.2324 134.899 27.2324C128.573 27.2324 123.444 32.361 123.444 38.6874C123.444 45.0138 128.573 50.1423 134.899 50.1423Z" fill="black"/>
<path d="M45.7492 93.9711C49.6002 93.9711 52.722 90.8492 52.722 86.9982C52.722 83.1472 49.6002 80.0254 45.7492 80.0254C41.8982 80.0254 38.7764 83.1472 38.7764 86.9982C38.7764 90.8492 41.8982 93.9711 45.7492 93.9711Z" fill="black"/>
</svg>
