<svg width="34" height="34" viewBox="0 0 34 34" fill="none" xmlns="http://www.w3.org/2000/svg">
<path d="M7.60325 10.625H0V34H7.60325V10.625Z" fill="white"/>
<path d="M28.3135 10.8991C28.2327 10.8736 28.1562 10.846 28.0713 10.8226C27.9692 10.7993 27.8672 10.7801 27.7631 10.7631C27.3594 10.6824 26.9174 10.625 26.3989 10.625C21.9661 10.625 19.1548 13.8486 18.2283 15.0939V10.625H10.625V34H18.2283V21.25C18.2283 21.25 23.9743 13.2472 26.3989 19.125C26.3989 24.3716 26.3989 34 26.3989 34H34V18.2261C34 14.6944 31.5796 11.7513 28.3135 10.8991Z" fill="white"/>
<path d="M3.71875 7.4375C5.77256 7.4375 7.4375 5.77256 7.4375 3.71875C7.4375 1.66494 5.77256 0 3.71875 0C1.66494 0 0 1.66494 0 3.71875C0 5.77256 1.66494 7.4375 3.71875 7.4375Z" fill="white"/>
</svg>
