<svg width="24" height="24" viewBox="0 0 24 24" fill="none" xmlns="http://www.w3.org/2000/svg">
<path d="M20.8646 4.65799C18.9015 6.59738 17.7557 8.9494 17.2279 11.6418C16.9547 13.0363 16.4999 14.38 15.6703 15.5628C14.5346 17.1825 12.9512 17.8662 11.0009 17.814C9.50972 17.7746 8.13443 17.4042 6.89288 16.451C6.38152 17.4743 5.88662 18.4504 5.74716 19.5567C5.71426 19.8149 5.63988 20.0237 5.35381 19.9979C5.05272 19.9715 4.95045 19.7226 5.02411 19.4709C5.25511 18.675 5.43033 17.8462 5.78506 17.106C7.6009 13.3223 10.2421 10.2609 13.873 8.09841C14.1183 7.95253 14.3765 7.82881 14.6275 7.69294C14.8421 7.57566 14.9658 7.40618 14.8328 7.16805C14.7005 6.93206 14.4952 6.95137 14.2764 7.06006C12.7388 7.82524 11.3649 8.81925 10.1205 9.99704C8.64006 11.3987 7.3935 12.9841 6.33933 14.7268C6.25136 14.872 6.04968 15.0622 5.92738 15.0443C5.77433 15.0222 5.58767 14.8327 5.52045 14.6718C4.55638 12.3762 4.96761 10.2616 6.45662 8.33798C7.52152 6.96138 8.98835 6.12112 10.5846 5.49825C12.6665 4.68588 14.8457 4.30758 17.0613 4.13882C18.2242 4.05086 19.3921 4.02797 20.5578 4.00008C20.7044 3.99651 20.9133 4.10878 20.9826 4.23107C21.0356 4.32403 20.9605 4.56288 20.8646 4.65799Z" fill="white"/>
</svg>
