<svg width="16" height="17" viewBox="0 0 16 17" fill="none" xmlns="http://www.w3.org/2000/svg">
<g clip-path="url(#clip0)">
<path d="M15.8646 1.41141C13.9015 3.3508 12.7557 5.70282 12.2279 8.39523C11.9547 9.7897 11.4999 11.1334 10.6703 12.3162C9.53457 13.9359 7.95116 14.6196 6.00087 14.5674C4.50972 14.5281 3.13443 14.1576 1.89288 13.2044C1.38152 14.2277 0.886618 15.2038 0.747158 16.3101C0.71426 16.5683 0.639881 16.7771 0.353809 16.7514C0.0527186 16.7249 -0.049552 16.476 0.0241115 16.2243C0.255114 15.4284 0.430333 14.5996 0.785063 13.8594C2.6009 10.0758 5.24206 7.01434 8.87303 4.85183C9.11834 4.70595 9.37652 4.58223 9.62754 4.44636C9.8421 4.32908 9.96582 4.1596 9.8328 3.92146C9.70049 3.68548 9.49524 3.70478 9.27639 3.81348C7.73875 4.57866 6.36489 5.57267 5.12048 6.75046C3.64006 8.15209 2.3935 9.7375 1.33933 11.4802C1.25136 11.6254 1.04968 11.8156 0.927383 11.7977C0.774335 11.7756 0.587673 11.5861 0.520446 11.4252C-0.443616 9.12965 -0.0323876 7.01506 1.45662 5.09139C2.52152 3.7148 3.98835 2.87453 5.58463 2.25167C7.66652 1.4393 9.84567 1.061 12.0613 0.892234C13.2242 0.804274 14.3921 0.781391 15.5578 0.753501C15.7044 0.749926 15.9133 0.862199 15.9826 0.984484C16.0356 1.07745 15.9605 1.3163 15.8646 1.41141Z" fill="#BBE242"/>
</g>
<defs>
<clipPath id="clip0">
<rect width="16" height="16" fill="white" transform="translate(0 0.753906)"/>
</clipPath>
</defs>
</svg>
