<svg width="48" height="48" viewBox="0 0 48 48" fill="none" xmlns="http://www.w3.org/2000/svg">
<g clip-path="url(#clip0)">
<path d="M23.9999 48.0001C36.9848 48.0001 47.5112 37.4737 47.5112 24.4888C47.5112 11.5039 36.9848 0.977539 23.9999 0.977539C11.015 0.977539 0.488647 11.5039 0.488647 24.4888C0.488647 37.4737 11.015 48.0001 23.9999 48.0001Z" fill="#647892"/>
<path d="M41.3299 20.2117C41.0282 10.8862 32.9746 3.39844 23.998 3.34697C13.6274 3.28754 5.49596 12.235 6.54043 22.5521C6.5739 22.8832 6.45971 23.2124 6.22609 23.4495L1.23202 28.5219C0.724368 29.0377 1.08962 29.9101 1.81337 29.9101H6.24193C6.82552 29.9101 7.29859 30.3831 7.29859 30.9667V37.1482C7.29859 39.9639 9.6023 42.2676 12.418 42.2676H15.568C16.9066 42.2676 17.9918 43.3528 17.9918 44.6914V47.2235C19.9097 47.7289 21.923 47.9994 23.9998 47.9994C27.8716 47.9994 31.5247 47.063 34.7456 45.4051L33.8911 36.6445C33.8911 35.714 34.2964 34.8248 35.0131 34.2314C39.0143 30.9183 41.5125 25.8534 41.3299 20.2117Z" fill="#EDB87E"/>
<path d="M22.9973 47.9788V44.6924C22.9973 43.3538 21.9121 42.2686 20.5735 42.2686H17.4235C14.6078 42.2686 12.3041 39.9649 12.3041 37.1492V30.9677C12.3041 30.3841 11.831 29.9111 11.2474 29.9111H6.81896C6.09521 29.9111 5.72987 29.0386 6.23762 28.5229L10.8461 23.8422C11.3078 23.3732 11.5525 22.7292 11.5039 22.0729C10.8209 12.8506 17.4468 4.8292 26.3617 3.53198C25.5883 3.41639 24.7997 3.35245 23.9979 3.34795C13.6273 3.28851 5.49587 12.236 6.54034 22.5531C6.57381 22.8842 6.45952 23.2133 6.22599 23.4505L1.23202 28.523C0.724368 29.0388 1.08962 29.9112 1.81337 29.9112H6.24193C6.82552 29.9112 7.29859 30.3842 7.29859 30.9678V37.1493C7.29859 39.965 9.6023 42.2687 12.418 42.2687H15.568C16.9066 42.2687 17.9918 43.3539 17.9918 44.6925V47.2246C19.5994 47.6484 21.2745 47.9062 22.9973 47.9788Z" fill="#E4A970"/>
<path d="M23.6301 32.8654C30.36 32.8654 35.8157 27.4097 35.8157 20.6798C35.8157 13.9498 30.36 8.49414 23.6301 8.49414C16.9001 8.49414 11.4445 13.9498 11.4445 20.6798C11.4445 27.4097 16.9001 32.8654 23.6301 32.8654Z" fill="#3997EE"/>
<path d="M21.716 28.8201C15.8878 25.4552 13.8908 18.0026 17.2558 12.1743C17.9332 11.001 18.7766 9.98313 19.7389 9.13281C9.89172 12.4472 8.431 25.9751 17.5375 31.2326C22.1924 33.9201 27.8831 33.1871 31.7001 29.8139C28.4998 30.8911 24.8702 30.6412 21.716 28.8201Z" fill="#1F7FE8"/>
<path d="M20.4562 10.9019C21.0252 10.9228 21.135 10.8518 21.1942 10.9702C21.6095 11.8007 21.6122 11.7746 21.5929 11.8409C21.2577 12.9969 21.2657 12.9313 21.286 12.9858C21.6135 13.8596 21.5898 13.8314 21.6485 13.8618L22.5047 14.3047C22.5869 14.3472 22.6849 14.2876 22.6849 14.195V13.1555C22.6849 13.0988 22.7236 13.0494 22.7784 13.0357C23.4759 12.8613 23.4242 12.8752 23.4386 12.8687C24.8372 12.2435 24.8419 12.2748 24.8419 12.1609C24.8419 12.1287 24.8419 10.3149 24.8419 10.4305C24.8419 10.3623 24.7866 10.307 24.7185 10.307C24.0326 10.307 24.0697 10.3103 24.0403 10.2994C23.0807 9.9453 23.151 9.96761 23.1193 9.96761C22.2384 9.96761 22.2872 9.9618 22.2492 9.98121C21.7048 10.2604 21.7396 10.2452 21.7133 10.2497L21.1021 10.356C21.0421 10.3664 20.6509 10.5435 20.5859 10.5358C20.2125 10.4918 20.2097 10.4815 20.1587 10.5219C20.0944 10.5727 20.0964 10.6708 20.1628 10.7188C20.391 10.8836 20.4028 10.9019 20.4562 10.9019Z" fill="#32CC65"/>
<path d="M23.5276 26.1871C23.4443 26.0074 23.3845 26.0946 21.5382 25.6274C21.3991 25.5947 20.8485 24.922 20.7232 24.8438C19.7484 24.2394 20.1862 24.4228 19.0173 24.0858C18.9673 24.0712 18.9989 24.0804 18.0955 23.5516C18.0011 23.496 18.0165 23.5305 16.8885 23.52C16.8479 23.52 16.8087 23.5314 16.7738 23.5515L15.4602 22.8675L15.176 22.2115C15.0181 21.8471 14.6847 21.8933 13.3464 21.332C13.3722 20.9441 13.2752 20.734 13.4623 20.6277C14.3105 20.1734 14.3526 20.0544 14.5239 20.115C15.1995 20.3253 14.7841 20.2775 15.3531 20.2844C15.7111 20.2844 15.574 19.6268 15.7484 19.4544L16.5168 18.6944C16.6031 18.6091 17.0697 17.5251 17.1522 17.4477L17.6731 16.9595C17.815 16.8265 17.798 16.3904 17.994 16.3004C18.7401 15.9706 18.746 15.9269 18.8605 15.9421C20.4197 16.1008 19.7222 16.2133 20.7013 15.8585C20.86 15.7986 20.9011 15.5933 20.7777 15.477C20.2788 15.0048 20.5389 15.305 19.6826 14.1956C19.5995 14.0881 19.5032 14.1151 19.1602 14.0266C18.8558 13.9601 18.9851 13.3056 18.6121 13.3537C18.4222 13.3949 18.2475 13.3498 18.1626 13.5089L17.6232 14.5201C17.3243 15.0706 17.3379 15.2081 17.1713 15.2539C16.9621 15.2868 16.7091 15.4643 16.5685 15.2595C16.0025 14.4436 16.2486 14.721 15.7875 14.3566C15.6472 14.2479 15.717 14.0938 15.6987 13.8137C15.6987 13.619 15.8451 13.6222 16.6454 12.961C16.7063 12.9135 17.1659 12.6938 17.2691 12.6109C17.4136 12.487 17.353 12.2511 17.1665 12.2122C16.8238 12.1434 17.1099 12.1754 16.2898 12.1679C16.1427 12.1679 16.1087 12.0624 15.7797 11.7819C15.6555 11.6681 15.518 11.7507 15.3245 11.7652C13.4231 13.5373 12.0891 15.9098 11.6251 18.5813C11.6279 18.5887 11.6537 18.6284 11.6548 18.6911C11.6893 20.2491 11.6664 20.1672 11.7016 20.2445C12.2869 21.5225 12.2555 21.4678 12.2816 21.5033C12.9036 22.3279 12.8733 22.3561 12.986 22.3989C12.986 22.3989 12.9862 22.3991 12.9863 22.3992L14.2499 22.8673L14.5197 23.4899C14.6541 23.8001 14.8497 23.7601 16.3149 24.5646C16.3987 24.7385 16.4914 24.8112 16.4581 24.9468C16.1896 26.0997 16.2271 25.4601 16.4682 26.5449C16.4885 26.6225 16.4525 26.5423 17.371 27.777C17.4224 27.8457 17.3905 27.8027 18.471 28.4165C18.6008 28.4893 18.5487 28.5208 19.0646 29.828C19.0815 29.8729 19.016 29.7613 20.3481 31.7772C20.4089 31.869 20.4719 31.8613 20.8377 32.0373C21.0469 32.1319 21.2499 31.8947 21.1242 31.7027C20.9906 31.4987 21.2212 31.3595 21.5394 30.7717C21.5697 30.722 21.551 30.7514 21.8586 29.6602C21.9134 29.4636 22.0874 29.5063 22.8372 29.2124C22.9819 29.1616 22.9741 29.0467 23.2602 28.5349C23.3342 28.3931 23.2271 27.8547 23.321 27.7042L23.7775 26.9727C23.8865 26.7979 23.7226 26.6693 23.5276 26.1871Z" fill="#32CC65"/>
<path d="M16.8187 23.531C16.8033 23.5361 16.7881 23.5417 16.7739 23.55L15.4603 22.866L15.1761 22.2099C15.0182 21.8455 14.6848 21.8917 13.3465 21.3304C13.3722 20.9425 13.2753 20.7324 13.4624 20.6261C14.3106 20.1718 14.3527 20.0528 14.524 20.1135C15.1995 20.3238 14.7843 20.2759 15.3532 20.2829C15.6607 20.2829 15.6034 19.7986 15.6914 19.5523C15.5185 17.9349 15.667 16.2737 16.1644 14.6686C16.0826 14.5617 16.0465 14.5593 15.7878 14.3548C15.6475 14.246 15.7173 14.0919 15.6988 13.8119C15.6988 13.6172 15.8453 13.6203 16.6456 12.9591C16.6738 12.9371 16.788 12.8779 16.9125 12.8126C17.0106 12.6171 17.1142 12.4232 17.2238 12.231C17.2062 12.2222 17.1876 12.2147 17.1668 12.2103C16.8241 12.1414 17.1101 12.1734 16.2901 12.1659C16.1429 12.1659 16.109 12.0604 15.7799 11.7799C15.6558 11.6661 15.5183 11.7487 15.3249 11.7633C13.3867 13.5695 12.0791 15.9669 11.6255 18.5793C11.6283 18.5868 11.6541 18.6264 11.6552 18.6891C11.6897 20.2472 11.6667 20.1652 11.702 20.2426C12.2873 21.5206 12.2559 21.4658 12.2819 21.5013C12.904 22.326 12.8737 22.3542 12.9864 22.3969C12.9864 22.3969 12.9866 22.3971 12.9866 22.3972L14.2501 22.8654L14.5199 23.488C14.6543 23.7982 14.8498 23.7583 16.3151 24.5628C16.3989 24.7367 16.4916 24.8093 16.4583 24.945C16.1898 26.0977 16.2273 25.4583 16.4684 26.543C16.4887 26.6207 16.4527 26.5406 17.3711 27.7752C17.4226 27.8438 17.3906 27.8009 18.4712 28.4147C18.601 28.4874 18.5488 28.519 19.0647 29.8262C19.0817 29.8711 19.0161 29.7594 20.3483 31.7753C20.4091 31.8672 20.4721 31.8594 20.8379 32.0355C21.0471 32.1301 21.2501 31.8929 21.1243 31.7009C20.9907 31.4969 21.2214 31.3577 21.5396 30.7698C21.5699 30.7202 21.5512 30.7496 21.8588 29.6583C21.9078 29.4826 22.0535 29.4974 22.6196 29.2926C20.0832 28.0955 18.0377 26.0817 16.8187 23.531Z" fill="#23B658"/>
<path d="M31.4156 11.3057C31.2565 11.3377 30.4236 11.7296 30.2448 11.7296H29.4427C29.2776 11.7296 29.1283 11.8275 29.0624 11.979C28.9398 12.3229 28.7596 12.4953 28.8713 12.7507L29.2108 13.5267C29.3694 13.8893 29.7991 13.7445 30.0385 13.7751C30.1981 13.7751 30.2649 13.6987 30.6196 13.5306C30.8646 13.4063 31.0599 13.5754 31.1235 13.596C31.3211 13.6961 31.405 13.9339 31.3141 14.1359C31.2397 14.2664 31.2157 14.4915 30.979 14.5791C29.6818 15.0786 30.4996 14.6295 29.2455 15.7521C29.1315 15.8622 29.0902 16.0276 29.1391 16.1783C29.2154 16.4137 29.0698 16.6633 28.8271 16.7126L28.4243 16.7943C28.0009 16.8802 28.1052 17.3597 28.0921 17.414C28.0921 17.643 28.2778 17.8287 28.5068 17.8287C28.8822 17.8287 29.2012 17.8287 29.5754 17.8287C29.9114 17.8287 29.9701 17.5134 30.3875 17.0136C30.5266 16.8257 30.6868 16.8625 31.3105 16.6663C31.5761 16.5926 31.7148 16.7866 32.1809 17.0208C32.3852 17.137 32.6453 17.0603 32.7538 16.8517L32.8544 16.658C33.0679 16.2473 33.708 16.4616 33.708 16.8828C33.693 17.4865 33.7451 17.5796 33.6507 17.7401C33.5819 17.9083 33.2712 18.1835 33.491 18.4938L33.7793 18.9008C34.0222 19.2437 33.6413 19.52 33.6119 19.5749C33.5109 19.6904 33.3542 19.7405 33.2049 19.7055C32.2623 19.474 32.2325 19.5003 32.1167 19.4177C31.4666 18.9638 31.4573 18.9211 31.3259 18.8882C30.3839 18.673 30.2956 18.5799 30.0939 18.6519C28.7387 19.1531 28.7027 19.1084 28.5796 19.2468C27.4267 20.5473 27.4773 20.4782 27.4408 20.538C26.7326 21.7651 26.5388 21.8456 26.6072 22.1328C26.8768 23.1333 26.8119 23.3081 27.034 23.4604C28.0952 24.1613 28.1108 24.2627 28.3323 24.2627C29.0886 24.2627 29.7138 24.2627 30.4149 24.2627C30.5845 24.2627 30.7369 24.366 30.7999 24.5233C30.9211 24.857 31.0011 24.9433 30.9799 25.1126C30.7754 26.6574 30.9936 25.834 30.2679 27.3419C29.4963 28.8556 29.6534 28.4848 29.4988 29.0014C29.3911 29.3538 29.7623 29.6612 30.0885 29.4895C30.461 29.2784 29.9046 29.7169 32.2387 27.3616C32.2863 27.3124 33.3746 25.8284 33.4222 25.7745C34.1615 24.9414 33.6557 25.4027 35.3292 24.097C36.6648 19.5169 35.2255 14.4736 31.4156 11.3057Z" fill="#32CC65"/>
<path d="M47.2178 9.47475C47.2178 10.2836 46.2455 10.9539 46.0461 11.7C45.8397 12.4718 46.3406 13.5374 45.9497 14.2132C45.553 14.8987 44.3762 14.9951 43.8198 15.5515C43.2635 16.1078 43.1669 17.2849 42.4814 17.6813C41.8057 18.0724 40.7401 17.5714 39.9682 17.7776C39.2223 17.977 38.552 18.9494 37.7431 18.9494C36.9342 18.9494 36.2639 17.977 35.5178 17.7776C34.746 17.5713 33.6804 18.0722 33.0046 17.6813C32.3191 17.2846 32.2226 16.1077 31.6663 15.5513C31.11 14.995 29.933 14.8985 29.5365 14.213C29.1455 13.5372 29.6465 12.4717 29.4402 11.6998C29.2408 10.9538 28.2684 10.2835 28.2684 9.47466C28.2684 8.66578 29.2408 7.99547 29.4403 7.2495C29.6466 6.47766 29.1457 5.41209 29.5366 4.73634C29.9332 4.05084 31.1102 3.95437 31.6665 3.39797C32.2228 2.84166 32.3194 1.66463 33.0049 1.26806C33.6807 0.877031 34.7462 1.37803 35.518 1.17178C36.2639 0.972375 36.9342 0 37.7431 0C38.552 0 39.2223 0.972375 39.9682 1.17188C40.7401 1.37822 41.8056 0.877312 42.4815 1.26825C43.167 1.66491 43.2635 2.84184 43.8198 3.39816C44.3761 3.95447 45.5531 4.05103 45.9496 4.73653C46.3406 5.41237 45.8396 6.47784 46.0459 7.24969C46.2455 7.99566 47.2178 8.66597 47.2178 9.47475Z" fill="#FAC149"/>
<path d="M36.7549 12.656C36.4264 12.656 36.1114 12.5255 35.8792 12.2933L34.1678 10.5818C33.6841 10.0981 33.6841 9.31388 34.1678 8.83031C34.6515 8.34675 35.4357 8.34675 35.9192 8.83031L36.7549 9.666L39.1705 7.25044C39.6541 6.76678 40.4383 6.76678 40.9219 7.25044C41.4055 7.73409 41.4055 8.51822 40.9219 9.00188L37.6306 12.2933C37.3984 12.5255 37.0834 12.656 36.7549 12.656Z" fill="#EFEFEF"/>
<path d="M40.9528 7.28516C40.8963 7.41528 40.8159 7.53753 40.7095 7.64384L37.6251 10.7282C37.1721 11.1812 36.4369 11.1814 35.9838 10.7282L34.38 9.12434C34.2917 9.03603 34.2211 8.93684 34.1672 8.83138C33.6841 9.31503 33.6841 10.0989 34.1676 10.5824L35.879 12.2939C36.3622 12.7772 37.1469 12.7775 37.6305 12.2939L40.9218 9.00256C41.3946 8.52969 41.404 7.77078 40.9528 7.28516Z" fill="#DDDDDD"/>
<path d="M41.569 16.9575C36.3363 16.9575 32.0943 12.7154 32.0943 7.48261C32.0943 5.06358 33.0013 2.85671 34.4932 1.18233C33.9551 1.12018 33.41 1.03421 33.0049 1.26858C32.3194 1.66524 32.2228 2.84208 31.6665 3.39849C31.1102 3.9548 29.9332 4.05136 29.5366 4.73686C29.1456 5.41271 29.6466 6.47818 29.4402 7.25011C29.2408 7.99608 28.2684 8.6664 28.2684 9.47527C28.2684 10.2841 29.2408 10.9545 29.4402 11.7004C29.6465 12.4723 29.1456 13.5378 29.5365 14.2136C29.9332 14.8991 31.1101 14.9956 31.6663 15.552C32.2226 16.1083 32.3192 17.2853 33.0047 17.6819C33.6805 18.0729 34.7461 17.5719 35.5179 17.7782C36.2639 17.9776 36.9342 18.95 37.7432 18.95C38.5521 18.95 39.2224 17.9776 39.9683 17.7782C40.7402 17.572 41.8057 18.0729 42.4815 17.682C42.782 17.5081 42.9693 17.1843 43.1318 16.8286C42.6232 16.9129 42.1012 16.9575 41.569 16.9575Z" fill="#F8A748"/>
</g>
<defs>
<clipPath id="clip0">
<rect width="48" height="48" fill="white"/>
</clipPath>
</defs>
</svg>
