<svg width="158" height="158" viewBox="0 0 158 158" fill="none" xmlns="http://www.w3.org/2000/svg">
<path d="M158 79C158 122.631 122.631 158 79 158C35.3689 158 0 122.631 0 79C0 35.3689 35.3689 0 79 0C122.631 0 158 35.3689 158 79Z" fill="url(#paint0_linear)"/>
<path d="M58.1959 128.66C58.1762 128.66 58.1555 128.66 58.1347 128.66C50.5542 128.618 44.3867 122.359 44.3867 114.706V43.4941C44.3867 38.4317 47.0249 33.9349 51.4453 31.4649C55.8656 28.9959 61.0776 29.1062 65.3898 31.7608L123.416 67.5296C127.529 70.0608 129.979 74.4582 129.969 79.2902C129.96 84.1222 127.492 88.5098 123.366 91.0257L81.4179 116.709C79.4436 117.918 76.8621 117.298 75.6522 115.323C74.4434 113.348 75.0636 110.766 77.039 109.557L118.993 83.8689C120.637 82.8664 121.58 81.1924 121.583 79.2727C121.587 77.3541 120.652 75.6758 119.018 74.669L60.9913 38.9001C59.3053 37.8628 57.2655 37.8202 55.5358 38.7866C53.8061 39.753 52.7731 41.5132 52.7731 43.4941V114.706C52.7731 118.018 55.5697 120.259 58.1806 120.273C59.0083 120.272 59.9813 119.96 60.9739 119.354C62.9514 118.148 65.5318 118.773 66.7373 120.749C67.944 122.726 67.3193 125.307 65.3418 126.513C63.0399 127.918 60.5698 128.66 58.1959 128.66V128.66Z" fill="white"/>
<defs>
<linearGradient id="paint0_linear" x1="0" y1="79" x2="158" y2="79" gradientUnits="userSpaceOnUse">
<stop stop-color="#C6ED4D"/>
<stop offset="0.231" stop-color="#C3E756"/>
<stop offset="0.5138" stop-color="#A4CB2D"/>
<stop offset="0.776042" stop-color="#94BB1E"/>
<stop offset="1" stop-color="#84AB0D"/>
</linearGradient>
</defs>
</svg>
