<svg width="34" height="28" viewBox="0 0 34 28" fill="none" xmlns="http://www.w3.org/2000/svg">
<path d="M34 3.45788C32.7356 4.0125 31.3884 4.38013 29.9837 4.55862C31.4287 3.69587 32.5316 2.34012 33.0501 0.706C31.7029 1.50925 30.2154 2.07663 28.6301 2.39325C27.3509 1.03113 25.5276 0.1875 23.5386 0.1875C19.6796 0.1875 16.5729 3.31975 16.5729 7.15963C16.5729 7.71213 16.6196 8.24337 16.7344 8.74912C10.9395 8.4665 5.81187 5.68913 2.36725 1.45825C1.76587 2.50163 1.41313 3.69588 1.41313 4.9815C1.41313 7.3955 2.65625 9.53537 4.50925 10.7743C3.38937 10.753 2.29075 10.4279 1.36 9.91575C1.36 9.937 1.36 9.96462 1.36 9.99225C1.36 13.3795 3.77612 16.193 6.9445 16.8411C6.37712 16.9963 5.75875 17.0706 5.117 17.0706C4.67075 17.0706 4.22025 17.0451 3.79737 16.9516C4.7005 19.712 7.26325 21.7414 10.3105 21.8072C7.939 23.6624 4.92788 24.7801 1.66813 24.7801C1.0965 24.7801 0.54825 24.7546 0 24.6845C3.08762 26.6756 6.74688 27.8125 10.693 27.8125C23.5195 27.8125 30.532 17.1875 30.532 7.97775C30.532 7.66962 30.5214 7.37213 30.5065 7.07675C31.8899 6.095 33.0522 4.86888 34 3.45788Z" fill="white"/>
</svg>
